<?xml version="1.0" encoding="utf-8"?>
<!-- Generator: Adobe Illustrator 18.0.0, SVG Export Plug-In . SVG Version: 6.00 Build 0)  -->
<!DOCTYPE svg PUBLIC "-//W3C//DTD SVG 1.1//EN" "http://www.w3.org/Graphics/SVG/1.1/DTD/svg11.dtd">
<svg version="1.1" id="Layer_1" xmlns="http://www.w3.org/2000/svg" xmlns:xlink="http://www.w3.org/1999/xlink" x="0px" y="0px"
	 width="500px" height="333px" viewBox="305.8 400.6 500 333" style="enable-background:new 305.8 400.6 500 333;"
	 xml:space="preserve">
<style type="text/css">
	.st0{fill:#E94D4D;}
	.st1{fill:#4AC4D3;}
	.st2{fill:#FFFFFF;}
</style>
<path class="st0" d="M612.7,681h-61.1V400.6h61.1V681z"/>
<polygon class="st1" points="703.1,512.8 769.9,404.3 697.9,404.3 630.2,514.6 731.9,681 805.8,681 "/>
<path class="st2" d="M420.1,400.6c-62.9,0-113.9,51-113.9,113.8s51,113.8,113.9,113.8c22.6,0,43.6-6.5,61.2-17.8v9.3
	c0,33.8-27.4,61.2-61.2,61.2c-31.8,0-61.5-8.9-86.8-24.4l-27.5,44.9c33.3,20.4,72.4,32.1,114.4,32.1c62.9,0,113.9-51,113.9-113.8
	V400.6H420.1z M481.3,514.6c0,33.8-27.4,61.2-61.2,61.2s-61.2-27.4-61.2-61.2c0-33.8,27.4-61.2,61.2-61.2h61.2V514.6z"/>
</svg>
