<?xml version="1.0" encoding="utf-8"?>
<!-- Generator: Adobe Illustrator 18.0.0, SVG Export Plug-In . SVG Version: 6.00 Build 0)  -->
<!DOCTYPE svg PUBLIC "-//W3C//DTD SVG 1.1//EN" "http://www.w3.org/Graphics/SVG/1.1/DTD/svg11.dtd">
<svg version="1.1" id="Layer_1" xmlns="http://www.w3.org/2000/svg" xmlns:xlink="http://www.w3.org/1999/xlink" x="0px" y="0px"
	 viewBox="224.8 179.3 342.5 254.1" enable-background="new 224.8 179.3 342.5 254.1" xml:space="preserve">
<g>
	<g>
		<path fill="#4AC4D3" d="M486.5,267.2l70.5-75.6h-39.8L463,255c-3.9,4.7-8.2,10.2-12,15.4l12.2,17l0.1,0l62.9,88.1h41L486.5,267.2z
			"/>
	</g>
	<g>
		<path fill="#E94D4D" d="M407.1,376.5v-192H442v192H407.1z"/>
	</g>
	<g>
		<path fill="#FFFFFF" d="M365,322.9c-6.5,12.4-14.9,21.7-25.2,27.9c-10.3,6.2-22.6,9.3-36.8,9.3c-22.6,0-41.3-8.2-56-24.6
			c-14.7-16.4-22.1-38-22.1-64.8c0-17.6,3.3-33.7,9.9-48.2c6.6-14.5,15.9-25.3,27.8-32.4c11.9-7.1,25.9-10.7,42-10.7
			c11.9,0,22.6,2.2,32.1,6.5c9.4,4.4,18.9,13.2,28.5,26.5v-28.2h31.6V328c0,36.1-4.1,59.9-12.3,71.5c-8.2,11.5-18.5,20.1-31.1,25.7
			c-12.6,5.6-27.3,8.3-44.2,8.3c-15.7,0-29.8-2.2-42.2-6.5c-12.5-4.3-21.9-10.2-28.4-17.7c-6.5-7.5-9.7-15.3-9.7-23.4v-2.7h31.6v2.5
			c0,7.8,4.6,14,13.7,18.7s20.6,7,34.6,7c11.4,0,21.1-1.8,29.3-5.4c8.1-3.6,14.7-9.5,19.6-17.6c4.9-8.1,7.4-22.9,7.4-44.3L365,322.9
			L365,322.9z M365,266.9c0-18.8-5.2-34-15.7-45.7c-10.5-11.7-23-17.5-37.5-17.5c-15.5,0-28.3,5.9-38.6,17.6
			c-10.2,11.8-15.4,28.3-15.4,49.6c0,13.4,2,25.2,6.1,35.3c4.1,10.1,10.5,17.7,19.2,22.9c8.7,5.2,18,7.8,27.9,7.8
			c16,0,29-6.5,39-19.6C360,304.3,365,287.5,365,266.9z"/>
	</g>
</g>
</svg>
