<?xml version="1.0"?>
<!--Icons from directory ""-->
<svg xmlns="http://www.w3.org/2000/svg" width="300" height="5100" viewBox="0 0 300 5100"><svg xmlns:xlink="http://www.w3.org/1999/xlink" id="android" xml:space="preserve" height="300" viewBox="0 0 512 512" width="300" version="1.1" enable-background="new 0 0 512 512" y="0"><rect y="1201" width="1300" height="400" x="-2243.5" fill="#fff"/><path d="m512 432c0 44.182-35.816 80-80 80h-352c-44.183 0-80-35.818-80-80v-352c0-44.183 35.817-80 80-80h352c44.184 0 80 35.817 80 80v352z" fill="#A4C439"/><path d="m512 432v-122.6l-202.64-202.65-18.224 30.996 13.08 13.25h-50.877l-15.854-15.854-1.427 1.428-29.683-29.684 12.87 29.6 7.951 8.929-5.57 5.57h-25.63v25.631l-23.435 23.436 86.337 86.338-10.16 10.159-88.409-88.409-26.755 26.756 16.755 16.756v38.001h6.769l-22.578 22.577 83.749 83.748-5.43 5.43 110.57 110.56h108.58c44.18 0 80-35.82 80-80zm-203-276.15l0.93 0.941-0.93 0.929v-1.87zm-11.66 39.15l-12-12h13.21l12 12h-13.21zm31.66 21.3v-2.853l1.426 1.427-1.43 1.42z" fill="#4C5B0E"/><g fill="#fff"><path d="m338.78 206.5v-0.002l-165.54 0.029 0.027 120.16c-0.002 3.205 0.773 6.218 2.121 8.891 3.249 6.451 9.909 10.873 17.636 10.868l13.453 0.003 0.016 41.025c-0.002 7.66 4.666 14.246 11.305 17.061 2.213 0.94 4.646 1.459 7.197 1.459 0.639 0 1.271-0.032 1.894-0.096 9.342-0.95 16.627-8.854 16.63-18.435l-0.011-41.021 24.998-0.005-0.002 41.026c0.01 10.214 8.318 18.525 18.521 18.509 10.231 0.007 18.525-8.307 18.523-18.526l-0.01-41.015 13.501-0.003c4.214 0.001 8.114-1.333 11.325-3.589 5.094-3.571 8.436-9.477 8.438-16.18l-0.02-120.17z"/><path d="m382.96 221.52c0-10.225-8.289-18.514-18.514-18.512-10.225-0.007-18.513 8.295-18.511 18.521l0.007 77.539c0.005 10.24 8.289 18.521 18.523 18.516 10.223-0.001 18.508-8.275 18.51-18.521l-0.02-77.55z"/><path d="m147.54 203.03c-10.226-0.005-18.513 8.299-18.515 18.516l0.014 77.54c0.001 6.359 3.196 11.952 8.061 15.285 2.978 2.043 6.578 3.244 10.457 3.247 8.955-0.01 16.42-6.348 18.14-14.795 0.245-1.208 0.374-2.457 0.373-3.737l0.001-77.551c0.01-10.23-8.29-18.53-18.52-18.52z"/><path d="m296.86 133.4l12.924-23.601c0.129-0.231 0.205-0.475 0.257-0.722 0.212-1.016-0.212-2.089-1.118-2.673-0.052-0.034-0.098-0.075-0.152-0.106-0.117-0.063-0.24-0.105-0.361-0.148-0.895-0.319-1.865-0.125-2.551 0.473-0.225 0.195-0.424 0.426-0.572 0.703l-13.058 23.838c-3.786-1.68-7.731-3.101-11.806-4.249-7.74-2.186-15.951-3.367-24.473-3.357-2.398-0.002-4.774 0.091-7.123 0.273-0.031 0.002-0.064 0.003-0.096 0.006-10.313 0.809-20.091 3.353-28.979 7.302l-13.067-23.785c-0.56-1.042-1.741-1.523-2.83-1.265-0.058 0.014-0.116 0.019-0.173 0.036-0.002 0-0.004 0.001-0.005 0.002-0.16 0.05-0.317 0.116-0.469 0.201-0.269 0.145-0.494 0.337-0.686 0.552-0.37 0.412-0.6 0.925-0.649 1.464-0.045 0.493 0.053 1.002 0.315 1.464l12.929 23.582c-17.755 9.16-31.475 24.108-38.128 42.055-0.487 1.313-0.945 2.636-1.354 3.979-2.004 6.571-3.074 13.501-3.071 20.662l166.79-0.016c0.01-28.61-17.12-53.5-42.49-66.64zm-78.84 36.47c-3.841-0.008-6.97-3.13-6.971-6.987 0.002-3.842 3.129-7 6.978-7.001 3.867-0.003 6.995 3.159 7 6.999-0.01 3.86-3.14 6.99-7.01 6.99zm75.94-0.01c-3.854 0.005-6.993-3.123-6.992-6.992 0.012-3.831 3.133-6.994 6.996-7.007 3.834 0.012 6.981 3.173 6.979 7.012-0.01 3.86-3.13 6.99-6.99 6.99z"/></g></svg><svg xmlns:xlink="http://www.w3.org/1999/xlink" id="apple" xml:space="preserve" height="300" viewBox="0 0 512 512" width="300" version="1.1" enable-background="new 0 0 512 512" y="300"><path d="m512 432c0 44.182-35.816 80-80 80h-352c-44.183 0-80-35.818-80-80v-352c0-44.183 35.818-80 80-80h352c44.184 0 80 35.817 80 80v352z" fill="#C4C4C4"/><path d="m512 432v-143.69l-192.31-192.31-50.965 50.967 4.817 4.817-17.947 17.948 82.329 82.328-153.49 153.49 106.44 106.44h141.13c44.18 0 80-35.82 80-80z" fill="#A8A8A8"/><g fill="#fff"><path d="m343.27 265.86c-0.439-40.499 32.98-59.997 34.487-60.941-18.847-27.481-48.121-31.209-58.551-31.65-24.926-2.49-48.603 14.739-61.234 14.755-12.624 0.018-32.163-14.248-52.815-13.829-27.169 0.427-52.175 15.852-66.147 40.179-28.135 49.009-7.044 121.5 20.498 161.18 13.464 19.397 29.51 41.234 50.56 40.416 20.267-0.817 27.912-13.133 52.395-13.164 24.49-0.032 31.402 13.053 52.828 12.618 21.808-0.414 35.597-19.847 48.911-39.352 15.405-22.571 21.72-44.412 22.101-45.539-0.48-0.21-42.54-16.27-43.03-64.68"/><path d="m303.04 147.09c11.181-13.534 18.697-32.343 16.639-51.088-16.088 0.654-35.575 10.725-47.13 24.243-10.35 11.978-19.415 31.122-16.965 49.492 17.94 1.39 36.28-9.13 47.46-22.64"/></g></svg><svg xmlns:xlink="http://www.w3.org/1999/xlink" id="appstore" xml:space="preserve" height="300" viewBox="0 0 512 512" width="300" version="1.1" enable-background="new 0 0 512 512" y="600"><path d="m512 432c0 44.182-35.816 80-80 80h-352c-44.183 0-80-35.818-80-80v-352c0-44.183 35.817-80 80-80h352c44.184 0 80 35.817 80 80v352z" fill="#1B85F3"/><g fill="#055093"><path d="m404.39 239.65l-15.019 15.019-135.33-135.32-6.139 6.139 23.132 23.132 12.195 34.476-5.86 5.86 45.963 45.963-16.475 16.475-52.816-52.816-55.273 55.273-16.269-16.27-23.859 23.859-11.703-11.703-39.126 39.125 44.375 44.375-10.17 10.171 168.62 168.59h121.39c44.183 0 79.999-35.818 79.999-80v-84.734l-107.61-107.62z"/><polygon points="147.26 374.49 143.84 371.07 128.38 386.54 253.84 512 305.13 512 157.44 364.31"/></g><g fill="#FDFDFD"><path d="m182.49 237.57h-70.213c-3.476 0-6.279 2.822-6.279 6.271v40.605c0 3.448 2.804 6.289 6.288 6.289h39.698l30.5-53.16z"/><path d="m155.68 362.88l-18.066-10.362c-3.303-1.905-6.361-0.345-6.796 3.43l-3.131 27.204c-0.427 3.811 1.788 5.153 4.945 2.993l23.337-15.86c3.17-2.17 3.04-5.5-0.28-7.4z"/><path d="m254.75 206.58c1.906-3.294 0.763-7.549-2.55-9.473l-18.057-10.345c-3.303-1.923-7.586-0.753-9.473 2.541l-27.693 48.254-30.533 53.164-25.472 44.362c-1.905 3.312-0.744 7.577 2.55 9.464l18.075 10.371c3.304 1.914 7.567 0.763 9.474-2.531l35.415-61.666 22.866-39.889 25.4-44.23z"/><path d="m251.45 237.57l-30.506 53.165h82.809c-5.998-11.896-13.974-28.865-24.662-53.165h-27.64z"/><path d="m352.97 291.4c-0.092-0.173-0.227-0.418-0.363-0.663-1.669-3.121-5.88-11.196-11.396-21.668-0.063-0.154-0.146-0.272-0.2-0.436-0.436-0.798-0.87-1.605-1.306-2.422-0.318-0.59-0.645-1.216-0.953-1.843-0.281-0.5-0.563-1.016-0.835-1.561-0.49-0.935-0.971-1.869-1.488-2.822-0.146-0.29-0.299-0.581-0.472-0.889-0.563-1.062-1.134-2.151-1.706-3.23-0.172-0.318-0.327-0.645-0.49-0.953-12.739-24.063-28.728-53.681-38.582-69.279-17.259-27.303-40.325-72.772-46.767-69.569-9.002 4.51 18.892 62.256 28.129 83.979 9.237 21.687 45.279 104.86 52.492 108.51 7.241 3.594 10.036 1.579 14.881-0.417 4.83-1.97 13.5-8.7 9.06-16.74z"/><path d="m373.57 334.26l-8.603-16.532c-1.96-3.729-6.533-5.254-10.199-3.385l-10.361 5.326c-3.657 1.905-4.801 6.315-2.56 9.908l10.88 17.205c2.241 3.547 7.005 4.709 10.525 2.55l7.404-4.428c3.53-2.09 4.85-6.9 2.91-10.64z"/><path d="m370.89 358.16c-2.705 2.612-9.138 8.211-1.353 19.173 7.785 10.97 25.153 11.442 27.439 18.756 0 0 5.46-55.71-26.09-37.93z"/><path d="m405.99 284.44v-40.597c0-3.448-2.795-6.27-6.279-6.27h-60.995c7.188 13.447 13.829 26.114 18.512 35.043 3.257 6.207 5.825 11.106 6.741 12.74 0.943 1.732 1.615 3.539 2.069 5.372h33.683c3.483 0 6.278-2.841 6.278-6.289h-0.01z"/></g></svg><svg xmlns:xlink="http://www.w3.org/1999/xlink" id="email" xml:space="preserve" height="300" viewBox="0 0 512 512" width="300" version="1.1" enable-background="new 0 0 512 512" y="900"><path d="m512 432c0 44.182-35.816 80-80 80h-352c-44.183 0-80-35.818-80-80v-352c0-44.183 35.817-80 80-80h352c44.184 0 80 35.817 80 80v352z" fill="#E8E8E8"/><path d="m512 432v-181.64l-113.92-113.06-11.434 5.246-219.3-5.246-51.414 9.443v203.56l-5.756 20.848 141.75 140.85h180.07c44.19 0 80-35.82 80-80z" fill="#D8D8D8"/><path d="m370.47 127.23h-228.93c-23.704 0-42.924 19.219-42.924 42.924v171.7c0 23.703 19.22 42.924 42.924 42.924h228.93c23.705 0 42.925-19.221 42.925-42.924v-171.7c-0.01-23.7-19.23-42.92-42.93-42.92zm0 28.61c1.642 0 3.193 0.332 4.66 0.84l-119.12 95.299-119.13-95.299c1.47-0.508 3.02-0.84 4.661-0.84h228.93zm0 200.32h-228.93c-7.905 0-14.308-6.404-14.308-14.309v-156.23l119.83 95.865c2.611 2.092 5.778 3.137 8.939 3.137s6.331-1.045 8.939-3.137l119.83-95.865v156.23c0 7.9-6.4 14.31-14.3 14.31z" fill="#fff"/></svg><svg xmlns:xlink="http://www.w3.org/1999/xlink" id="facebook" xml:space="preserve" height="300" viewBox="0 0 512 512" width="300" version="1.1" enable-background="new 0 0 512 512" y="1200"><path d="m512 432c0 44.183-35.816 80-80 80h-352c-44.183 0-80-35.817-80-80v-352c0-44.183 35.817-80 80-80h352c44.184 0 80 35.817 80 80v352z" fill="#3D5A98"/><path id="facebook-f" d="m335.27 512v-198.27h66.553l9.965-77.272h-76.518v-49.34c0-22.372 6.211-37.618 38.295-37.618l40.917-0.019v-69.107c-7.077-0.94-31.366-3.044-59.624-3.044-58.994 0-99.383 36.01-99.383 102.14v56.985h-66.724v77.272h66.724v198.27h79.79z" fill="#fff"/><path d="m414.48 80.373v69.11l-40.917 0.019c-32.084 0-38.295 15.246-38.295 37.618v49.335h76.518l-9.965 77.271h-66.553v198.27h96.728c44.184 0 80-35.817 80-80v-254.17" fill="#1B3568"/></svg><svg height="300" width="300" viewBox="0 0 512 512" id="googleplus" y="1500"><path d="M512 80v352c0 44.18-35.82 80-80 80h-352c-44.18 0-80-35.82-80-80v-352c0-44.18 35.82-80 80-80h352c44.18 0 80 35.82 80 80z" fill="#DD4B39"/><polygon fill="#07738C" points="-271.566,783.777 -272.004,784.215 -270.783,784.562"/><polygon fill="#07738C" points="361.996,1805.215 363.217,1805.562 362.434,1804.777"/><path d="M406.017 184.91l-.317.316-55.953-55.953-9.371 9.371v61.23l-70.602-70.602-9.274 2.228-68.5 4.5-31.5 5-16 25 9.5 53.5 43 21.5 1 5 7.5 34-8.5 3-32 5-20 7-23 33 11.74 16.334-16.725 16.725 150.942 150.941h164.043c28.16 0 52.906-14.566 67.162-36.561 8.11-12.511 12.838-27.419 12.838-43.439v-141.107l-105.983-105.983z" fill="#8C251E"/><g fill="#fff"><path d="M269.77 129.273h-78.497c-35.175 0-68.28 26.66-68.28 57.531 0 31.567 23.987 57.056 59.802 57.056l7.251-.237c-2.307 4.449-3.992 9.448-3.992 14.666 0 8.771 4.724 15.876 10.693 21.68l-13.623.146c-43.579-.017-77.124 27.759-77.124 56.526 0 28.362 36.786 46.087 80.365 46.087 49.676 0 77.143-28.198 77.143-56.543 0-22.723-6.72-36.364-27.467-51.013-7.067-5.035-20.654-17.249-20.654-24.427 0-8.423 2.398-12.561 15.088-22.448 12.965-10.145 22.156-24.427 22.156-40.997 0-19.739-8.789-39.002-25.305-45.337h24.865l17.579-12.69zm-27.393 192.041c.623 2.618.952 5.31.952 8.093 0 22.925-14.759 40.814-57.129 40.814-30.121 0-51.855-19.062-51.855-41.986 0-22.43 26.972-41.106 57.092-40.813 7.031.091 13.605 1.208 19.555 3.131 16.334 11.352 28.089 17.779 31.385 30.761zm-48.248-85.473c-20.233-.586-39.459-22.632-42.938-49.183-3.479-26.568 10.071-46.893 30.286-46.289 20.215.604 39.441 21.918 42.92 48.469 3.515 26.568-10.072 47.607-30.268 47.003z"/><polygon points="349.75,184.9 349.75,129.273 331,129.273 331,184.9 274.75,184.9 274.75,203.65 331,203.65 331,260.523 349.75,260.523 349.75,203.65 406,203.65 406,184.9"/></g></svg><svg height="300" width="300" viewBox="0 0 512 512" id="html5" y="1800"><path d="M512 432c0 44.182-35.816 80-80 80h-352c-44.183 0-80-35.818-80-80v-352c0-44.183 35.818-80 80-80h352c44.184 0 80 35.817 80 80v352z" fill="#F16529"/><polygon fill="#fff" points="-274.02,877.279 -274.013,877.279 -274.02,877.272"/><path d="M332.831 85.987l-11.501 11.499-11.486-11.486-17.866 17.865-17.865-17.865-11.406 11.405-11.389-11.39-24.531 24.531-24.531-24.531-14.696 14.695-14.711-14.71-11.709 11.708 15.292 15.293-18.97 18.969 50.867 50.867 18.969-18.97 14.417 14.417 6.941-6.941 9.533 9.533 11.405-11.405 11.39 11.39 18.503-18.503 33.49 33.489-82.456 82.456 13.553 13.553-106.768 106.767 113.376 113.377h161.318c14.967 0 28.965-4.121 40.944-11.273 7.948-4.744 15.01-10.82 20.861-17.934 11.368-13.816 18.195-31.506 18.195-50.793v-166.844l-179.169-179.169z" fill="#E44D26"/><polygon fill="#fff" points="135.317,152.138 157.294,398.619 255.94,426 354.668,398.63 376.684,152.138"/><polygon fill="#fff" points="172.827,116.572 186.877,116.572 186.877,131.97 202.254,131.97 202.254,86 186.877,86 186.877,101.188 172.827,101.188 172.827,86 157.462,86 157.462,131.97 172.827,131.97"/><polygon fill="#fff" points="222.448,131.97 237.819,131.97 237.819,101.249 251.334,101.249 251.334,86 208.934,86 208.934,101.249 222.448,101.249"/><polygon fill="#fff" points="273.105,109.195 283.688,125.528 283.944,125.528 294.514,109.195 294.514,131.97 309.823,131.97 309.823,86 293.793,86 283.944,102.177 274.096,86 258.081,86 258.081,131.97 273.105,131.97"/><polygon fill="#fff" points="354.437,116.782 332.829,116.782 332.829,86 317.463,86 317.463,131.97 354.437,131.97"/><polygon fill="#E44D26" points="329.009,232.743 256.001,232.743 213.323,232.743 216.081,263.702 256.001,263.702 326.263,263.702 317.973,356.543 256.001,373.709 255.953,373.723 194.022,356.543 189.702,307.984 220.043,307.984 222.292,333.174 255.96,342.271 256.009,342.258 256.009,342.258 289.709,333.16 293.22,293.949 256.009,293.949 256.009,293.949 188.448,293.949 180.285,202.532 256.001,202.532 331.703,202.532"/></svg><svg height="300" width="300" viewBox="0 0 512 512" id="instagram" y="2100"><path d="M512 80v352c0 44.18-35.82 80-80 80h-352c-44.18 0-80-35.82-80-80v-352c0-44.18 35.82-80 80-80h352c44.18 0 80 35.82 80 80z" fill="#527FA3"/><polygon fill="#07738C" points="-271.566,783.777 -272.004,784.215 -270.783,784.562"/><polygon fill="#07738C" points="361.996,1805.215 363.217,1805.562 362.434,1804.777"/><path d="M512 432v-212.787l-111.02-110.188-29.932 25.975h-235.048v235.048l-25.633 32.568 109.383 109.384h212.25c44.18 0 80-35.82 80-80z" fill="#255270"/><path d="M392.45 106h-272.909c-7.462 0-13.541 6.062-13.541 13.513v272.975c0 7.433 6.079 13.512 13.541 13.512h272.909c7.471 0 13.55-6.079 13.55-13.512v-272.975c0-7.451-6.079-13.513-13.55-13.513zm-136.45 97.649c28.913 0 52.351 23.438 52.351 52.351s-23.438 52.351-52.351 52.351-52.349-23.438-52.349-52.351 23.436-52.351 52.349-52.351zm112.5 164.851h-225v-131.25h24.691c-1.29 6.062-2.04 12.322-2.04 18.75 0 49.547 40.309 89.851 89.849 89.851 49.547 0 89.851-40.304 89.851-89.851 0-6.428-.753-12.688-2.033-18.75h24.682v131.25zm0-168.75h-56.25v-56.25h56.25v56.25z" fill="#fff"/></svg><svg height="300" width="300" viewBox="0 0 512 512" id="linkedin" y="2400"><path d="M512 432c0 44.182-35.816 80-80 80h-352c-44.183 0-80-35.818-80-80v-352c0-44.183 35.818-80 80-80h352c44.184 0 80 35.817 80 80v352z" fill="#0274B3"/><polygon fill="#fff" points="-274.02,877.279 -274.013,877.279 -274.02,877.272"/><path d="M512 432v-82.242l-126.572-126.573-47.042 47.042-64.333-64.333-9.645 9.645-96.479-96.479-51.435 51.435 45.916 45.916-31.836 31.836 25.093 25.092v87.182l-3.505-3.504-42.353 42.352 112.632 112.631h209.559c44.184 0 80-35.818 80-80z" fill="#0A5272"/><g fill="#fff"><rect height="193.476" width="64.312" x="109.794" y="205.896"/><path d="M141.955 179.473h-.429c-21.569 0-35.525-14.864-35.525-33.421 0-18.979 14.385-33.422 36.375-33.422 22.006 0 35.533 14.444 35.963 33.422-.001 18.556-13.966 33.421-36.384 33.421zM405.992 399.371h-64.305v-103.53c0-25.994-9.303-43.744-32.572-43.744-17.767 0-28.341 11.971-33.001 23.529-1.699 4.122-2.111 9.894-2.111 15.681v108.048h-64.304s.841-175.329 0-193.467h64.304v27.391c8.547-13.183 23.823-31.95 57.96-31.95 42.306 0 74.037 27.66 74.037 87.084v110.959h-.008z"/></g></svg><svg xmlns:xlink="http://www.w3.org/1999/xlink" id="paypal" xml:space="preserve" height="300" viewBox="0 0 512 512" width="300" version="1.1" enable-background="new 0 0 512 512" y="2700"><path d="m512 432c0 44.182-35.816 80-80 80h-352c-44.183 0-80-35.818-80-80v-352c0-44.183 35.818-80 80-80h352c44.184 0 80 35.817 80 80v352z" fill="#004890"/><path d="m346.87 128.75l-37.012-8.419-59.48-14.33h-85.8l-56.858 252.79 41.888 41.888-5.639 5.64 105.68 105.68h182.35c44.184 0 80-35.818 80-80v-138.12l-165.13-165.13z" fill="#033C70"/><g fill="#fff"><path d="m269.34 221.81c2.182-1.405 4.279-2.977 6.18-4.77 5.309-4.967 9.309-11.351 10.977-18.357 2.939-10.497-0.467-19.606-7.484-24.651-3.701-2.654-8.381-4.214-13.689-4.214h-30.807l-0.992 4.214-12.494 53.541h29.518c6.52 0 13.05-2.16 18.78-5.76zm-18.32-31.19h14.297c0.742 0 1.184 0.125 1.404 0.204 0.049 0.311 0.084 1.028-0.262 2.248l-0.113 0.382-0.084 0.376c-1.602 6.647-9.24 12.941-15.721 12.941h-3.299l3.77-16.15z"/><path d="m388.55 182.33c-5.996-7.46-13.57-13.653-22.166-18.411-2.82-12.517-8.338-22.051-13.783-28.812-14.645-18.225-38.633-29.11-64.17-29.11h-123.85l-3.652 16.229-47.5 211.19-5.708 25.375h46.553l-4.907 21.836-5.71 25.36h105.65l3.587-16.319 11.817-53.617h28.207c54.678 0 97.424-33.63 108.9-85.665 7.36-33.43-3.14-55.47-13.26-68.07zm-229.58 155.64h-25.24l47.509-211.18h107.19c19.828 0 41.705 8.978 52.418 27.999 3.688 6.551 6.049 14.298 6.539 23.289 0.348 6.252-0.203 13.132-1.854 20.61-3.754 17.066-11.578 31.304-22.211 42.405-16.26 16.994-39.201 26.486-64.762 26.869-0.543 0.012-1.07 0.061-1.596 0.061h-44.939l-15.397 69.948h-37.663zm222.52-92.06c-9.623 43.66-45.572 69.345-88.582 69.345h-44.938l-15.393 69.949h-62.901l5.941-26.414h37.749l3.604-16.331 11.801-53.619h28.207c54.676 0 97.411-33.629 108.89-85.651 0.969-4.417 1.619-8.613 2.008-12.643 12.28 11.76 19.21 30.01 13.61 55.35z"/></g></svg><svg xmlns:xlink="http://www.w3.org/1999/xlink" id="pinterest" xml:space="preserve" height="300" viewBox="0 0 512 512" width="300" version="1.1" enable-background="new 0 0 512 512" y="3000"><path d="m512 432c0 44.183-35.816 80-80 80h-352c-44.183 0-80-35.817-80-80v-352c0-44.183 35.817-80 80-80h352c44.184 0 80 35.817 80 80v352z" fill="#CB2028"/><path d="m1584.5 1445.3l-0.8-0.801c0.2 0.4 0.5 0.6 0.8 0.8z" fill="#fff"/><path d="m369.97 95.215s40.893 56.549 40.893 92.393c0 26.748-4.413 51.489-12.55 73.059l-20.44-20.44c7.509-14.157 11.712-29.955 11.712-46.623 0-60.753-55.738-110-124.49-110s-124.49 49.25-124.49 110c0 11.855 2.131 23.268 6.058 33.967l-23.298 41.865 95.859 92.372c-2.059 8.027-3.814 14.794-4.646 17.819-9.953 36.106-46.248 75.438-46.248 75.438l57.01 56.93h206.66c44.184 0 80-35.817 80-80v-194.88l-142.02-141.9z" fill="#681319"/><path d="m265.38 55.956c-109.18 0-164.24 78.282-164.24 143.56 0 39.523 14.963 74.688 47.058 87.794 5.263 2.15 9.979 0.075 11.506-5.752 1.062-4.031 3.571-14.207 4.695-18.443 1.537-5.761 0.94-7.783-3.306-12.807-9.255-10.917-15.168-25.052-15.168-45.064 0-58.077 43.451-110.07 113.14-110.07 61.714 0 95.621 37.708 95.621 88.071 0 66.258-29.325 122.18-72.859 122.18-24.043 0-42.038-19.881-36.269-44.264 6.907-29.112 20.286-60.531 20.286-81.546 0-18.81-10.095-34.499-30.993-34.499-24.576 0-44.317 25.422-44.317 59.482 0 21.688 7.328 36.361 7.328 36.361s-25.149 106.56-29.558 125.23c-8.783 37.165-1.321 82.729-0.69 87.332 0.37 2.726 3.874 3.375 5.463 1.313 2.264-2.958 31.536-39.097 41.489-75.203 2.813-10.224 16.163-63.166 16.163-63.166 7.985 15.231 31.319 28.645 56.136 28.645 73.875 0 123.99-67.352 123.99-157.5 0.01-68.16-57.72-131.64-145.47-131.64z" fill="#fff"/></svg><svg xmlns:xlink="http://www.w3.org/1999/xlink" id="playstore" xml:space="preserve" height="300" viewBox="0 0 512 512" width="300" version="1.1" enable-background="new 0 0 512 512" y="3300"><path d="m512.62 432c0 44.182-35.816 80-80 80h-352c-44.183 0-80-35.818-80-80v-352c0-44.183 35.817-80 80-80h352c44.184 0 80 35.817 80 80v352z" fill="#F7F7F7"/><path d="m512.62 432v-53.52l-129.34-129.34-19.57 19.57-53.63-53.63-178.14 178.14 118.78 118.78h181.9c44.18 0 80-35.82 80-80z" fill="#E5E5E5"/><polygon points="275.17 255.83 318.81 212.18 318.81 212.18 275.17 255.83 135.86 116.54 135.85 116.54 275.16 255.84 135.63 395.38 135.63 395.38 275.16 255.84 319.01 299.69 319.02 299.69" fill="none"/><linearGradient id="playstore-SVGID_1_" y2="-401.37" gradientUnits="userSpaceOnUse" y1="-286.26" gradientTransform="matrix(.7071 .7071 -.7071 .7071 -453.28 -49.633)" x2="518.47" x1="702.4"><stop stop-color="#D6FFA1" offset="0"/><stop stop-color="#93E2A7" offset=".3264"/><stop stop-color="#00A3B5" offset="1"/></linearGradient><path d="m318.81 212.18l-170.08-93.51c-4.821-2.641-9.266-3.257-12.865-2.131l139.31 139.29 43.64-43.65z" fill="url(#playstore-SVGID_1_)"/><linearGradient id="playstore-SVGID_2_" y2="-322.25" gradientUnits="userSpaceOnUse" y1="-384.6" gradientTransform="matrix(.7071 .7071 -.7071 .7071 -453.28 -49.633)" x2="833.94" x1="595.45"><stop stop-color="#FF177B" offset="0"/><stop stop-color="#FFA976" offset=".6721"/><stop stop-color="#FFEC73" offset="1"/></linearGradient><path d="m319.02 299.69l58.059-31.924c11.777-6.49 11.777-17.076 0-23.542l-58.27-32.046-43.645 43.65 43.86 43.86z" fill="url(#playstore-SVGID_2_)"/><linearGradient id="playstore-SVGID_3_" y2="-351.08" gradientUnits="userSpaceOnUse" y1="-198.94" gradientTransform="matrix(.7071 .7071 -.7071 .7071 -453.28 -49.633)" x2="469.98" x1="728.58"><stop stop-color="#63FFD4" offset="0"/><stop stop-color="#32A0BA" offset=".4854"/><stop stop-color="#1262A9" offset=".8349"/><stop stop-color="#064AA2" offset="1"/></linearGradient><path d="m135.85 116.54c-5.17 1.621-8.526 6.856-8.526 14.778l0.038 249.35c0 7.83 3.242 12.998 8.272 14.719l139.52-139.54-139.3-139.31z" fill="url(#playstore-SVGID_3_)"/><linearGradient id="playstore-SVGID_4_" y2="-109.97" gradientUnits="userSpaceOnUse" y1="-319.74" gradientTransform="matrix(.7071 .7071 -.7071 .7071 -453.28 -49.633)" x2="663.24" x1="822.47"><stop stop-color="#FF4521" offset="0"/><stop stop-color="#D43E65" offset=".3411"/><stop stop-color="#9F36B9" offset=".7935"/><stop stop-color="#8A33DB" offset="1"/></linearGradient><path d="m135.63 395.38c3.623 1.225 8.158 0.662 13.093-2.055l170.28-93.641-43.85-43.847-139.52 139.55z" fill="url(#playstore-SVGID_4_)"/></svg><svg xmlns:xlink="http://www.w3.org/1999/xlink" id="playtube" xml:space="preserve" height="300" viewBox="0 0 512 512" width="300" version="1.1" enable-background="new 0 0 512 512" y="3600"><path d="m512 432c0 44.182-35.816 80-80 80h-352c-44.183 0-80-35.818-80-80v-352c0-44.183 35.817-80 80-80h352c44.184 0 80 35.817 80 80v352z" fill="#E52D27"/><path d="m512 432v-159.82l-117-117v189.16h-289.94l167.66 167.66h159.27c44.19 0 80.01-35.82 80.01-80z" fill="#BC1515"/><rect fill-rule="evenodd" height="112.51" width="164" clip-rule="evenodd" y="188" x="187" fill="#BC1515"/><g id="playtube-Lozenge"><path d="m412.8 192.02s-3.126-22.051-12.721-31.762c-12.168-12.745-25.808-12.809-32.063-13.555-44.779-3.237-111.95-3.237-111.95-3.237h-0.14s-67.169 0-111.95 3.237c-6.255 0.746-19.89 0.81-32.063 13.555-9.6 9.71-12.72 31.76-12.72 31.76s-3.2 25.9-3.2 51.79v24.277c0 25.896 3.201 51.791 3.201 51.791s3.122 22.052 12.716 31.762c12.173 12.746 28.163 12.344 35.284 13.679 25.6 2.45 108.8 3.21 108.8 3.21s67.24-0.102 112.02-3.338c6.255-0.747 19.895-0.81 32.063-13.556 9.595-9.71 12.721-31.762 12.721-31.762s3.196-25.896 3.196-51.791v-24.277c0-25.88-3.2-51.78-3.2-51.78zm-189.84 105.49l-0.015-89.911 86.465 45.112-86.44 44.8z" fill="#fff"/></g></svg><svg xmlns:xlink="http://www.w3.org/1999/xlink" id="rss" xml:space="preserve" height="300" viewBox="0 0 512 512" width="300" version="1.1" enable-background="new 0 0 512 512" y="3900"><path d="m512 432c0 44.182-35.816 80-80 80h-352c-44.183 0-80-35.818-80-80v-352c0-44.183 35.817-80 80-80h352c44.184 0 80 35.817 80 80v352z" fill="#f90"/><path d="m512 432v-43.416l-180.66-180.66-33.093 33.093-109.28-109.27-32.97 7.26-49.881 24.151 65.013 64.842-9.88-0.99-15.256-2.387-39.971 40.843 70.018 69.781-55.314 55.316 121.44 121.45h189.82c44.19 0 80.01-35.82 80.01-80z" fill="#B75B0F"/><g fill="#fff"><path d="m148.97 322.3c-22.085 0-39.972 17.9-39.972 39.995 0 22.073 17.887 39.996 39.972 39.996 22.071 0 39.994-17.936 39.994-39.996 0-22.1-17.92-40-39.99-40z"/><path d="m106.02 207.73v57.727c37.498 0 72.682 14.665 99.144 41.272 26.535 26.608 41.129 62.067 41.129 99.818h57.7c0.01-109.61-88.79-198.82-197.97-198.82z"/><path d="m106.12 105.4v57.748c133.52 0 242.14 109.23 242.14 243.44h57.738c0-166.05-134.54-301.19-299.88-301.19z"/></g></svg><svg xmlns:xlink="http://www.w3.org/1999/xlink" id="twitter" xml:space="preserve" height="300" viewBox="0 0 512 512" width="300" version="1.1" enable-background="new 0 0 512 512" y="4200"><path d="m295.36 1354.6l0.023 0.023c0.005-0.016 0.011-0.03 0.016-0.046h-0.04z" fill="#fff"/><path d="m512 432c0 44.183-35.816 80-80 80h-352c-44.183 0-80-35.817-80-80v-352c0-44.183 35.817-80 80-80h352c44.184 0 80 35.817 80 80v352z" fill="#2AA9E0"/><path d="m426.66 150.14c-12.557 5.57-26.055 9.334-40.219 11.026 14.457-8.666 25.561-22.39 30.789-38.743-13.531 8.026-28.518 13.854-44.469 16.993-12.773-13.609-30.975-22.113-51.115-22.113-38.674 0-70.029 31.354-70.029 70.027 0 5.488 0.619 10.833 1.813 15.959-58.2-2.921-109.8-30.801-144.34-73.168-6.028 10.342-9.481 22.371-9.481 35.205 0 24.296 12.362 45.73 31.153 58.289-11.479-0.365-22.278-3.515-31.719-8.76-0.007 0.293-0.007 0.585-0.007 0.881 0 33.928 24.14 62.232 56.174 68.666-5.875 1.601-12.063 2.457-18.448 2.457-4.513 0-8.899-0.439-13.177-1.256 8.912 27.819 34.773 48.068 65.418 48.631-23.967 18.783-54.162 29.979-86.972 29.979-5.652 0-11.227-0.331-16.705-0.979 30.991 19.87 67.801 31.465 107.35 31.465 128.81 0 199.25-106.71 199.25-199.25 0-3.035-0.068-6.055-0.205-9.06 13.7-9.89 25.58-22.22 34.96-36.27z" fill="#fff"/><path d="m234.06 512h197.94c44.184 0 80-35.818 80-80v-214.75l-94.779-94.779c-5.234 16.333-16.33 30.039-30.773 38.697 14.164-1.692 27.662-5.456 40.219-11.026-9.387 14.044-21.26 26.377-34.943 36.25 0.137 3.005 0.205 6.024 0.205 9.06 0 92.542-70.439 199.25-199.25 199.25-39.547 0-76.357-11.594-107.35-31.465" fill="#1A70B7"/></svg><svg height="300" width="300" viewBox="0 0 512 512" id="vimeo" y="4500"><path d="M513 432c0 44.184-35.816 80-80 80h-352c-44.183 0-80-35.816-80-80v-352c0-44.182 35.818-80 80-80h352c44.184 0 80 35.818 80 80v352z" fill="#1AB7EA"/><path d="M392.038 144.188l-21.038 53.812-20.475 23.454-29.525-51.454-42.371 30.435 47.943 48.458-59.429 68.077-10.143 5.117-59.407-152.087-76.703 46.5 124.28 125.64-23.53 26.954 141.359 142.906h69.001c43.27 0 78.491-34.355 79.931-77.274.031-.907.069-1.812.069-2.726v-166.80700000000002l-119.962-121.005z" fill="#139FBF"/><path d="M363.311 135.047c29.021.759 43.535 17.242 43.689 49.465 0 2.123-.083 4.314-.196 6.577-1.278 27.334-21.613 64.56-61.086 111.679-40.713 49.353-75.241 74.059-103.599 74.185-17.651 0-32.293-15.106-44.056-45.334l-12.338-41.442-12.212-41.399c-8.993-29.988-18.606-44.941-28.864-44.941-2.249 0-10.034 4.37-23.399 13.084l-14.25-16.853 22.105-18.353 21.739-18.184c19.478-15.599 34.29-24.031 44.436-25.281 1.363-.141 2.712-.183 4.089-.183 20.854 0 33.881 14.979 38.983 44.955 2.852 17.088 5.213 30.987 7.125 41.666 1.854 10.709 3.414 18.171 4.65 22.415 6.887 28.345 14.321 42.595 22.303 42.706 6.128 0 15.571-9.247 28.317-27.713 12.465-18.985 19.167-33.038 20.039-42.199.267-1.856.365-3.599.365-5.199 0-12.396-6.816-18.564-20.404-18.564-6.887 0-14.236 1.461-22.119 4.3 14.109-43.479 41.216-65.247 81.309-65.388l3.374.001z" fill="#fff"/><polygon fill="#07738C" points="-271.566,783.777 -272.004,784.215 -270.783,784.562"/></svg><svg xmlns:xlink="http://www.w3.org/1999/xlink" id="youtube" xml:space="preserve" height="300" viewBox="0 0 512 512" width="300" version="1.1" enable-background="new 0 0 512 512" y="4800"><path d="m512 432c0 44.182-35.816 80-80 80h-352c-44.183 0-80-35.818-80-80v-352c0-44.183 35.817-80 80-80h352c44.184 0 80 35.817 80 80v352z" fill="#E52D27"/><path d="m512 432v-132.27l-173.68-173.68-15.755 15.755-15.755-15.755-13.313 13.313 10.333 10.333-7.432 7.433-26.713-26.713-4.928 4.927-39.33-39.33-22.5 22.5-22.5-22.5-13.313 13.313 22.5 22.5-7.396 7.396 17.967 17.967-12.084 12.084 11.705 11.705-12.705 12.704 6.919 6.919-10.067 10.068 60.34 60.35h-95.954v114.67h28.622l-40.229 15.362 110.97 110.97h184.3c44.18 0 80-35.82 80-80z" fill="#BC1515"/><g fill="#fff"><path d="m372.82 255.39c-12.399-12.39-116.88-12.567-116.88-12.551 0-0.017-104.46 0.152-116.9 12.534-12.428 12.398-12.462 73.631-12.462 73.986 0 0.465 0.025 61.588 12.462 73.995 12.44 12.37 116.91 12.64 116.91 12.64s104.48-0.271 116.88-12.636c12.482-12.449 12.584-74.003 12.584-74.003 0-0.35-0.14-61.57-12.59-73.97zm-169.14 36.07h-17.594v88.943h-17.019v-88.943h-17.593v-15.118h52.205v15.12zm49.73 88.94h-15.07v-8.437c-2.813 3.125-5.691 5.498-8.725 7.111-3.019 1.646-5.934 2.449-8.771 2.449-3.505 0-6.099-1.132-7.897-3.43-1.74-2.297-2.639-5.692-2.639-10.287v-64.188h15.084v58.902c0 1.824 0.321 3.124 0.925 3.935 0.667 0.828 1.697 1.226 3.096 1.226 1.11 0 2.524-0.532 4.223-1.631 1.702-1.081 3.243-2.433 4.688-4.104v-58.327h15.084v76.79zm54.78-15.86c0 5.431-1.191 9.595-3.556 12.5-2.349 2.905-5.786 4.333-10.271 4.333-2.965 0-5.583-0.54-7.889-1.655-2.306-1.123-4.484-2.838-6.453-5.203v5.887h-15.253v-104.07h15.253v33.514c2.062-2.332 4.207-4.131 6.471-5.338 2.313-1.217 4.628-1.825 6.968-1.825 4.789 0 8.438 1.639 10.937 4.891 2.552 3.277 3.793 8.083 3.793 14.358v42.61zm52.34-20.67h-28.869v14.443c0 4.045 0.49 6.841 1.47 8.429 1.022 1.554 2.703 2.322 5.119 2.322 2.499 0 4.247-0.659 5.244-1.984 0.988-1.317 1.512-4.24 1.512-8.759v-3.496h15.524v3.936c0 7.88-1.875 13.809-5.676 17.813-3.768 3.97-9.427 5.938-16.943 5.938-6.757 0-12.094-2.095-15.971-6.326-3.877-4.197-5.854-10-5.854-17.416v-34.477c0-6.639 2.163-12.085 6.419-16.267 4.273-4.188 9.764-6.292 16.537-6.292 6.909 0 12.213 1.951 15.93 5.828 3.716 3.876 5.558 9.451 5.558 16.73v19.59z"/><path d="m338.4 315.15c-2.407 0-4.139 0.676-5.186 2.112-1.047 1.343-1.563 3.665-1.563 6.884v7.744h13.344v-7.744c0-3.21-0.531-5.532-1.596-6.884-1-1.43-2.7-2.11-4.99-2.11z"/><path d="m286.35 314.88c-1.089 0-2.152 0.229-3.201 0.743-1.047 0.499-2.077 1.283-3.107 2.34v47.829c1.217 1.241 2.415 2.18 3.581 2.711 1.165 0.549 2.364 0.837 3.648 0.837 1.85 0 3.192-0.541 4.063-1.639 0.87-1.073 1.326-2.813 1.326-5.287v-39.62c0-2.602-0.541-4.577-1.604-5.912-1.11-1.33-2.69-2-4.71-2z"/><path d="m301.7 211.86c3.184 0 6.469-0.904 9.855-2.703 3.413-1.781 6.673-4.426 9.781-7.863v9.342h16.993v-84.586h-17.011v64.188c-1.57 1.858-3.327 3.37-5.236 4.553-1.908 1.19-3.496 1.782-4.729 1.782-1.588 0-2.762-0.448-3.454-1.352-0.71-0.887-1.099-2.34-1.099-4.342v-64.83h-16.968v70.676c0 5.05 0.997 8.825 2.981 11.343 1.99 2.53 4.93 3.79 8.89 3.79z"/><path d="m251.25 212.76c7.731 0 13.774-2.052 18.218-6.174 4.375-4.139 6.588-9.789 6.588-17.026v-43.684c0-6.435-2.247-11.714-6.723-15.811-4.511-4.104-10.283-6.148-17.306-6.148-7.708 0-13.873 1.951-18.438 5.828-4.595 3.885-6.878 9.096-6.87 15.667v43.834c0 7.188 2.242 12.897 6.68 17.154 4.46 4.24 10.42 6.36 17.85 6.36zm-7.05-67.99c0-1.85 0.664-3.345 1.943-4.484 1.31-1.133 2.986-1.698 5.068-1.698 2.233 0 4.05 0.565 5.435 1.698 1.389 1.14 2.082 2.635 2.082 4.484v46.072c0 2.256-0.676 4.028-2.031 5.347-1.369 1.284-3.184 1.926-5.485 1.926-2.256 0-3.986-0.625-5.186-1.893-1.205-1.283-1.826-3.074-1.826-5.38v-46.08z"/><polygon points="183.93 210.64 203.07 210.64 203.07 163.07 225.33 96 205.87 96 194.06 141.82 192.86 141.82 180.43 96 161.15 96 183.93 165.22"/></g></svg></svg>
