<?xml version="1.0" encoding="utf-8"?>
<!-- Generator: Adobe Illustrator 17.0.0, SVG Export Plug-In . SVG Version: 6.00 Build 0)  -->
<!DOCTYPE svg PUBLIC "-//W3C//DTD SVG 1.1//EN" "http://www.w3.org/Graphics/SVG/1.1/DTD/svg11.dtd">
<svg version="1.1" id="Layer_1" xmlns="http://www.w3.org/2000/svg" xmlns:xlink="http://www.w3.org/1999/xlink" x="0px" y="0px"
	 width="792px" height="612px" viewBox="0 0 792 612" enable-background="new 0 0 792 612" xml:space="preserve">
<g>
	<g>
		<path fill="#4AC4D3" d="M486.537,267.24l70.522-75.642h-39.803l-54.224,63.38c-3.874,4.704-8.154,10.249-11.955,15.392
			l12.235,16.985l0.1,0.031l62.928,88.094h40.95L486.537,267.24z"/>
	</g>
	<g>
		<path fill="#E94D4D" d="M407.058,376.535V184.582h34.899v191.953H407.058z"/>
	</g>
	<g>
		<path fill="#FFFFFF" d="M364.998,322.944c-6.484,12.389-14.899,21.675-25.247,27.87c-10.338,6.194-22.619,9.292-36.823,9.292
			c-22.629,0-41.302-8.213-56.021-24.647c-14.718-16.424-22.087-38.024-22.087-64.793c0-17.634,3.306-33.698,9.898-48.182
			c6.591-14.488,15.856-25.297,27.793-32.439c11.937-7.134,25.915-10.706,41.952-10.706c11.929,0,22.62,2.181,32.055,6.534
			c9.436,4.357,18.927,13.201,28.48,26.533v-28.186h31.64v143.757c0,36.115-4.1,59.945-12.281,71.489
			c-8.18,11.549-18.546,20.1-31.097,25.667c-12.57,5.562-27.307,8.348-44.237,8.348c-15.685,0-29.753-2.153-42.187-6.456
			c-12.452-4.308-21.907-10.208-28.381-17.717c-6.482-7.504-9.715-15.3-9.715-23.382v-2.672h31.639v2.514
			c0,7.766,4.551,13.992,13.653,18.66c9.102,4.668,20.642,7.007,34.638,7.007c11.378,0,21.138-1.815,29.274-5.431
			c8.126-3.621,14.682-9.503,19.631-17.635c4.948-8.136,7.422-22.908,7.422-44.327V322.944z M364.998,266.888
			c0-18.791-5.237-34.01-15.702-45.664c-10.466-11.652-22.981-17.481-37.546-17.481c-15.467,0-28.326,5.882-38.566,17.639
			c-10.24,11.757-15.35,28.29-15.35,49.601c0,13.436,2.04,25.193,6.139,35.269c4.091,10.078,10.493,17.712,19.198,22.909
			c8.704,5.201,18.005,7.797,27.902,7.797c16.036,0,29.03-6.537,38.99-19.608C360.013,304.284,364.998,287.462,364.998,266.888z"/>
	</g>
</g>
</svg>
