<?xml version="1.0" encoding="utf-8"?>
<!-- Generator: Adobe Illustrator 18.0.0, SVG Export Plug-In . SVG Version: 6.00 Build 0)  -->
<!DOCTYPE svg PUBLIC "-//W3C//DTD SVG 1.1//EN" "http://www.w3.org/Graphics/SVG/1.1/DTD/svg11.dtd">
<svg version="1.1" xmlns="http://www.w3.org/2000/svg" xmlns:xlink="http://www.w3.org/1999/xlink" x="0px" y="0px"
	 viewBox="0 0 156.4 138.1" enable-background="new 0 0 156.4 138.1" xml:space="preserve">
<g id="Layer_1">
	<g id="Responsivo_1_" display="none">
		<g display="inline">
			<g>
				<g>
					<path fill="#4D4D4D" stroke="#F1F1F3" stroke-width="11" stroke-miterlimit="10" d="M-233.5-77h-1.3c0,0-7.4-2.1-7.4-22.8
						c0-6.1-32.6-6-32.6,0.5c0,19.9-7.6,22.2-7.6,22.2h-1c-0.9,0-1.7,0.4-1.7,1.3v0.8c0,0.9,0.8,1.2,1.7,1.2h49.9
						c0.9,0,3.3-0.3,3.3-1.2v-0.8C-230.2-76.6-232.6-77-233.5-77z"/>
					<path fill="#4D4D4D" stroke="#F1F1F3" stroke-width="11" stroke-miterlimit="10" d="M-200.6-180h-116c-2.2,0-3.4,0.6-3.4,2.9
						v70.2v10.8c0,2.2,1.2,4.3,3.4,4.3h116c2.2,0,3.6-2.1,3.6-4.3V-107v-70.2C-197-179.4-198.3-180-200.6-180z"/>
				</g>
			</g>
		</g>
		<g display="inline">
			<g>
				<g>
					<path fill="#4D4D4D" stroke="#F1F1F3" stroke-width="11" stroke-miterlimit="10" d="M-182-59.9c0,2.5-1.9,4.6-4.3,4.6h-45.1
						c-2.4,0-5.4-2-5.4-4.6V-122c0-2.5,3.1-3.2,5.4-3.2h45.1c2.4,0,4.3,0.7,4.3,3.2V-59.9z"/>
				</g>
			</g>
		</g>
		<g display="inline">
			<g>
				<g>
					<path fill="#4D4D4D" stroke="#F1F1F3" stroke-width="11" stroke-miterlimit="10" d="M-215.3-59.2c0,2-2.7,3.9-4.7,3.9h-23.3
						c-2,0-1.8-1.8-1.8-3.9v-50.3c0-2-0.2-2.3,1.8-2.3h23.3c2,0,4.7,0.3,4.7,2.3V-59.2z"/>
					<g>
						<path fill="#4D4D4D" stroke="#F1F1F3" stroke-width="11" stroke-miterlimit="10" d="M-212-59.2c0,2-2.7,3.9-4.7,3.9H-240
							c-2,0-1.8-1.8-1.8-3.9v-50.3c0-2-0.2-2.3,1.8-2.3h23.3c2,0,4.7,0.3,4.7,2.3V-59.2z"/>
					</g>
				</g>
			</g>
		</g>
		<g display="inline">
			<g>
				<g>
					<path fill="#4D4D4D" d="M-233.5-77h-1.3c0,0-7.4-2.1-7.4-22.8c0-6.1-32.6-6-32.6,0.5c0,19.9-7.6,22.2-7.6,22.2h-1
						c-0.9,0-1.7,0.4-1.7,1.3v0.8c0,0.9,0.8,1.2,1.7,1.2h49.9c0.9,0,3.3-0.3,3.3-1.2v-0.8C-230.2-76.6-232.6-77-233.5-77z"/>
					<path fill="#4D4D4D" d="M-200.6-180h-116c-2.2,0-3.4,0.6-3.4,2.9v70.2v10.8c0,2.2,1.2,4.3,3.4,4.3h116c2.2,0,3.6-2.1,3.6-4.3
						V-107v-70.2C-197-179.4-198.3-180-200.6-180z"/>
					<rect x="-315" y="-175.1" fill="#F0F0F0" width="111.4" height="64.8"/>
					<path fill="#B1B1B1" d="M-253.5-100.3c0,2.8-2.2,5-5,5l0,0c-2.8,0-5-2.2-5-5l0,0c0-2.8,2.2-5,5-5l0,0
						C-255.7-105.2-253.5-103-253.5-100.3L-253.5-100.3z"/>
				</g>
			</g>
			<g>
				<path fill="#FF4522" d="M-270.1-165c0,0.9-2.2,1.6-3.3,1.6h-20.9c-1.1,0-0.8-0.7-0.8-1.6v-3.3c0-0.9-0.3-1.8,0.8-1.8h20.9
					c1.1,0,3.3,0.9,3.3,1.8V-165z"/>
				<path fill="#47DCE3" d="M-220.3-144c0,0.9-2.5,2.2-3.6,2.2h-70.4c-1.1,0-0.8-1.2-0.8-2.2v-15.5c0-0.9-0.3-2.3,0.8-2.3h70.4
					c1.1,0,3.6,1.4,3.6,2.3V-144z"/>
				<path fill="#979797" d="M-273.5-119.4c0,2-0.7,5.9-1.8,5.9h-19c-1.1,0-0.8-3.8-0.8-5.9v-18.4c0-2-0.3-2.4,0.8-2.4h19
					c1.1,0,1.8,0.3,1.8,2.4V-119.4z"/>
				<path fill="#979797" d="M-248.5-119.4c0,2-0.5,5.9-1.6,5.9h-19c-1.1,0-1-3.8-1-5.9v-18.4c0-2-0.1-2.4,1-2.4h19
					c1.1,0,1.6,0.3,1.6,2.4V-119.4z"/>
				<path fill="#979797" d="M-220.3-119.4c0,2-2.5,5.9-3.6,5.9h-19c-1.1,0-2.3-3.8-2.3-5.9v-18.4c0-2,1.2-2.4,2.3-2.4h19
					c1.1,0,3.6,0.3,3.6,2.4V-119.4z"/>
			</g>
		</g>
		<g display="inline">
			<g>
				<g>
					<path fill="#4D4D4D" d="M-182-59.9c0,2.5-1.9,4.6-4.3,4.6h-45.1c-2.4,0-5.4-2-5.4-4.6V-122c0-2.5,3.1-3.2,5.4-3.2h45.1
						c2.4,0,4.3,0.7,4.3,3.2V-59.9z"/>
					<rect x="-230.2" y="-121.9" fill="#F0F0F0" width="43.2" height="54.9"/>
					<circle fill="#B1B1B1" cx="-208.8" cy="-61.2" r="3.6"/>
				</g>
			</g>
			<g>
				<path fill="#FF4522" d="M-210.3-113.6c0,0.7,0.7,1.7,0,1.7h-14.3c-0.7,0-2.3-1-2.3-1.7v-2.5c0-0.7,1.5-0.8,2.3-0.8h14.3
					c0.7,0,0,0.1,0,0.8V-113.6z"/>
				<path fill="#47DCE3" d="M-192-94.9c0,0.8-0.6,2.9-1.3,2.9h-31.4c-0.7,0-2.2-2.1-2.2-2.9v-13c0-0.8,1.5-2.4,2.2-2.4h31.4
					c0.7,0,1.3,1.6,1.3,2.4V-94.9z"/>
				<path fill="#979797" d="M-210.3-72.9c0,1.6-0.4,2.6-1.2,2.6h-13.1c-0.8,0-2.4-1-2.4-2.6v-15.3c0-1.6,1.6-2.1,2.4-2.1h13.1
					c0.8,0,1.2,0.4,1.2,2.1V-72.9z"/>
				<path fill="#979797" d="M-192-73.6c0,1.6-0.6,3.3-1.3,3.3h-14.1c-0.7,0-1.3-1.6-1.3-3.3v-13.7c0-1.6,0.6-3,1.3-3h14.1
					c0.7,0,1.3,1.3,1.3,3V-73.6z"/>
			</g>
		</g>
		<g display="inline">
			<g>
				<g>
					<path fill="#4D4D4D" d="M-215.3-59.2c0,2-2.7,3.9-4.7,3.9h-23.3c-2,0-1.8-1.8-1.8-3.9v-50.3c0-2-0.2-2.3,1.8-2.3h23.3
						c2,0,4.7,0.3,4.7,2.3V-59.2z"/>
					<g>
						<path fill="#4D4D4D" d="M-212-59.2c0,2-2.7,3.9-4.7,3.9H-240c-2,0-1.8-1.8-1.8-3.9v-50.3c0-2-0.2-2.3,1.8-2.3h23.3
							c2,0,4.7,0.3,4.7,2.3V-59.2z"/>
						<rect x="-241.9" y="-106.9" fill="#F0F0F0" width="26.6" height="44.9"/>
						<circle fill="#B1B1B1" cx="-228.4" cy="-59.7" r="2.2"/>
						<path fill="#B1B1B1" d="M-223.6-109.1c0,0.3-0.2,0.5-0.5,0.5h-10.6c-0.3,0-0.5-0.2-0.5-0.5v-0.7c0-0.3,0.2-0.5,0.5-0.5h10.6
							c0.3,0,0.5,0.2,0.5,0.5V-109.1z"/>
					</g>
				</g>
			</g>
			<g>
				<path fill="#FF4522" d="M-220.3-99.7c0,0.6-0.5,1.1-1.1,1.1h-17.7c-0.6,0-1.1-0.5-1.1-1.1v-2.8c0-0.6,0.5-1.1,1.1-1.1h17.7
					c0.6,0,1.1,0.5,1.1,1.1V-99.7z"/>
				<path fill="#47DCE3" d="M-220.3-86.4c0,0.6-0.5,1.1-1.1,1.1h-17.7c-0.6,0-1.1-0.5-1.1-1.1v-9.4c0-0.6,0.5-1.1,1.1-1.1h17.7
					c0.6,0,1.1,0.5,1.1,1.1V-86.4z"/>
				<path fill="#979797" d="M-218.6-77.2c0,0.6-1.2,1.8-1.8,1.8h-19c-0.6,0-0.8-1.2-0.8-1.8v-5.5c0-0.6,0.2-0.9,0.8-0.9h19
					c0.6,0,1.8,0.3,1.8,0.9V-77.2z"/>
				<path fill="#979797" d="M-218.6-68.1c0,0.6-1.2,1.1-1.8,1.1h-19c-0.6,0-0.8-0.4-0.8-1.1v-5.5c0-0.6,0.2-0.1,0.8-0.1h19
					c0.6,0,1.8-0.5,1.8,0.1V-68.1z"/>
			</g>
		</g>
	</g>
	<g id="RS" display="none">
		<polygon display="inline" fill="#F1F1F3" points="-73.6,295.7 -74.2,307.8 -70.5,307.2 -66.7,303 -62.9,301.3 -30.9,301.7 
			-18.3,282 -18.9,278 -53.8,279.5 		"/>
		<polygon display="inline" fill="#F48732" stroke="#F1F1F3" stroke-width="6" stroke-miterlimit="10" points="-54.6,279.5 
			-21.5,279.5 -21.5,227.8 -104.2,227.8 -104.2,279.5 -71.2,279.5 -71.2,295.7 		"/>
		<polygon display="inline" fill="#F48732" stroke="#F1F1F3" stroke-width="4" stroke-miterlimit="10" points="-99.6,308.9 
			-116.2,308.9 -116.2,282.8 -74.6,282.8 -74.6,308.9 -91.2,308.9 -91.2,317 		"/>
		
			<line display="inline" fill="none" stroke="#F1F1F3" stroke-width="2" stroke-miterlimit="10" x1="-86.2" y1="245.6" x2="-39.6" y2="245.6"/>
		
			<line display="inline" fill="none" stroke="#F1F1F3" stroke-width="2" stroke-miterlimit="10" x1="-107.5" y1="291.8" x2="-83" y2="291.8"/>
		
			<line display="inline" fill="none" stroke="#F1F1F3" stroke-width="2" stroke-miterlimit="10" x1="-107.5" y1="299.7" x2="-93" y2="299.7"/>
		
			<line display="inline" fill="none" stroke="#F1F1F3" stroke-width="2" stroke-miterlimit="10" x1="-86.2" y1="253.6" x2="-56" y2="253.6"/>
		
			<line display="inline" fill="none" stroke="#F1F1F3" stroke-width="2" stroke-miterlimit="10" x1="-86.2" y1="261.8" x2="-79.4" y2="261.8"/>
		
			<line display="inline" fill="none" stroke="#F1F1F3" stroke-width="2" stroke-miterlimit="10" x1="-70.5" y1="261.8" x2="-47.1" y2="261.8"/>
		<g display="inline">
			<path fill="#F1F1F3" d="M38.2,313.1c2.6-3.9,3.3-9,1.5-13.3c-1.9-4.5-6.1-7.3-11.3-7.3l-20.2,0c0.7-4.1,1.6-9.9,1.5-11.2h0
				c-0.6-8.5-5.8-18.5-6.1-19c-1.6-2.9-6.3-5.1-10.9-5.1c-1,0-2.1,0.1-3,0.3c-7.6,1.6-9.4,6.9-9.4,9.8c0,0.5,0.2,8.7,0.3,12.1
				c-1.4,3-4.1,7.7-6.7,11.8c-2.8,4.6-4.8,7.2-5.9,8.4c-0.5-0.1-1-0.1-1.5-0.1h-31c-4.7,0-8.4,3.8-8.4,8.4v43l0,0.1
				c0.3,4.2,3.9,7.5,8.1,7.5h27.8c3.1,0,5.9-1.8,7.2-4.4c1.6,0.7,3.4,1.3,5.6,1.3h41.5c9.4,0,13.6-4.4,15.4-8.1
				c1.8-3.7,1.9-7.8,1.2-10.6c2.2-3.3,3.3-7.8,2.1-11.9C38,322.1,39.6,317.8,38.2,313.1z"/>
			<path fill="#F48732" d="M32.4,312.4c5.2-5.2,3.6-15.7-5.4-15.7l-23.8,0c0.9-5,2.2-13.4,2.2-14.2c-0.5-7.5-5.3-16.6-5.5-16.9
				c-0.9-1.6-5.3-3.8-9.7-2.9c-5.7,1.2-6.3,4.9-6.2,5.9c0,0,0.2,9.9,0.3,12.6c-2.7,6-12.1,21.7-15,22.9c-0.7-0.4-1.5-0.6-2.3-0.6
				h-30c-2.6,0-4.6,2.1-4.6,4.6v41.5c0.2,2.2,2.1,4,4.3,4h27c2.4,0,4.3-1.9,4.3-4.3v-1.4c0,0,1-0.1,1.5,0.2c1.7,1.1,3.9,2.5,6.7,2.5
				h40.3c15.1,0,13.4-13.4,12.1-15.2c2.5-2.8,4.1-7.7,2-11.5C32.2,322.1,35.1,317.3,32.4,312.4L32.4,312.4z"/>
			<rect x="-63.3" y="307.8" fill="#F48732" width="26.1" height="41.4"/>
			<path fill="#F1F1F3" d="M25.4,312l-0.2,1c6.9,2,3.2,10-1.7,10.5l-0.3,1c6.7,1.7,3.5,9.9-1.7,10.5l-0.3,1
				c5.4,0.9,4.1,10.2-4.1,10.2l-41,0c-2.9,0-5.5-3.3-7.6-3.3h-1.9V311c2.3-1.5,5.1-3.3,6.7-4.6c3-2.6,15.2-22.3,15.2-24.8
				s-0.3-13.2-0.3-13.2s2.4-3.1,7.7-0.8c0,0,4.5,8.5,5,15.2c0,0-2,13.8-3.1,18.2h28.4C33.3,301,32,311,25.4,312L25.4,312z"/>
			<path d="M25.4,312"/>
			<circle fill="#F1F1F3" cx="-50.2" cy="344.3" r="3.5"/>
		</g>
	</g>
	<g id="Android">
		<g>
			<path fill="#FFFFFF" stroke="#F1F1F3" stroke-width="11" stroke-miterlimit="10" d="M15.4,47.7c-4.2,0-7.5,2.6-7.5,6.7l0,0.8V68
				v6v12.8v0.6c0,4.2,3.4,6.9,7.5,6.9c4.2,0,7.5-3.4,7.5-7.5l0,0V74v-6V55.2l0,0C23,51.1,19.6,47.7,15.4,47.7z"/>
			<path fill="#FFFFFF" stroke="#F1F1F3" stroke-width="11" stroke-miterlimit="10" d="M111.5,55.2c0-4.2-3.4-7.5-7.5-7.5
				c-4.2,0-7.5,3.4-7.5,7.5h0V68v6v12.8h0c0,4.2,3.4,7.5,7.5,7.5c4.2,0,7.5-3.4,7.5-7.5l0,0V74v-6V55.2L111.5,55.2z"/>
			<path fill="#FFFFFF" stroke="#F1F1F3" stroke-width="11" stroke-miterlimit="10" d="M26,49h-0.4v49.6c0,4.1,3.4,7.5,7.5,7.5h6.3
				v4.5v12.8l0,0c0,4.2,3.4,7.5,7.5,7.5c4.2,0,7.5-3.4,7.5-7.5l0,0v-12.8v-4.5h10.3v4.5v12.8c0,4.2,3.4,7.5,7.5,7.5
				c4.2,0,7.5-3.4,7.5-7.5v-12.8v-4.5h6.3c4.1,0,7.5-3.4,7.5-7.5V49h-0.1H26z"/>
			<path fill="#FFFFFF" stroke="#F1F1F3" stroke-width="11" stroke-miterlimit="10" d="M93.7,46.4v-3.6c-0.1-1-0.3-2-0.5-3
				c-1.9-8.8-8-16.3-16.5-20.6l5.2-9.6c0.3-0.6,0.1-1.3-0.5-1.7c-0.6-0.3-1.3-0.1-1.7,0.5L74.5,18c-4.5-1.9-9.5-3-14.8-3
				c-5.3,0-10.4,1.1-14.9,3l-5.3-9.7c-0.3-0.6-1.1-0.8-1.7-0.5c-0.6,0.3-0.8,1.1-0.5,1.7l5.2,9.6c-8,4.2-14,11.2-16.1,19.5
				c-0.5,2.2-0.8,4.4-0.8,6.7c0,0.3,0,0.7,0,1H93.7z M75.2,28c1.8,0,3.2,1.4,3.2,3.2s-1.4,3.2-3.2,3.2c-1.8,0-3.2-1.4-3.2-3.2
				S73.4,28,75.2,28z M44.2,28c1.8,0,3.2,1.4,3.2,3.2s-1.4,3.2-3.2,3.2c-1.8,0-3.2-1.4-3.2-3.2S42.4,28,44.2,28z"/>
		</g>
		<path fill="#4D4D4D" stroke="#F1F1F3" stroke-width="11" stroke-miterlimit="10" d="M135.2,86.3c0.1,14.4,12.6,19.1,12.7,19.2
			c-0.1,0.3-2,6.8-6.6,13.5c-4,5.8-8.1,11.5-14.5,11.7c-6.4,0.1-8.4-3.8-15.7-3.8c-7.3,0-9.5,3.6-15.5,3.9c-6.2,0.2-11-6.3-15-12
			c-8.1-11.8-14.4-33.3-6-47.8c4.2-7.2,11.6-11.8,19.6-11.9c6.1-0.1,11.9,4.1,15.7,4.1c3.7,0,10.8-5.1,18.2-4.4
			c3.1,0.1,11.8,1.2,17.4,9.4C145,68.5,135.1,74.3,135.2,86.3 M123.3,51.1c3.3-4,5.5-9.6,4.9-15.1c-4.8,0.2-10.6,3.2-14,7.2
			c-3.1,3.5-5.8,9.2-5,14.7C114.5,58.2,120,55.1,123.3,51.1"/>
		<g>
			<path fill="#A2C839" d="M15.4,47.7c-4.2,0-7.5,3.4-7.5,7.5h0V68v6v12.8h0c0,4.2,3.4,7.5,7.5,7.5c4.2,0,7.5-3.4,7.5-7.5l0,0V74v-6
				V55.2l0,0C23,51.1,19.6,47.7,15.4,47.7z"/>
			<path fill="#A2C839" d="M111.5,55.2c0-4.2-3.4-7.5-7.5-7.5c-4.2,0-7.5,3.4-7.5,7.5h0V68v6v12.8h0c0,4.2,3.4,7.5,7.5,7.5
				c4.2,0,7.5-3.4,7.5-7.5l0,0V74v-6V55.2L111.5,55.2z"/>
			<path fill="#A2C839" d="M26,49h-0.4v49.6c0,4.1,3.4,7.5,7.5,7.5h6.3v4.5v12.8l0,0c0,4.2,3.4,7.5,7.5,7.5c4.2,0,7.5-3.4,7.5-7.5
				l0,0v-12.8v-4.5h10.3v4.5v12.8c0,4.2,3.4,7.5,7.5,7.5c4.2,0,7.5-3.4,7.5-7.5v-12.8v-4.5h6.3c4.1,0,7.5-3.4,7.5-7.5V49h-0.1H26z"
				/>
			<path fill="#A2C839" d="M93.7,46.4v-3.6c-0.1-1-0.3-2-0.5-3c-1.9-8.8-8-16.3-16.5-20.6l5.2-9.6c0.3-0.6,0.1-1.3-0.5-1.7
				c-0.6-0.3-1.3-0.1-1.7,0.5L74.5,18c-4.5-1.9-9.5-3-14.8-3c-5.3,0-10.4,1.1-14.9,3l-5.3-9.7c-0.3-0.6-1.1-0.8-1.7-0.5
				c-0.6,0.3-0.8,1.1-0.5,1.7l5.2,9.6c-8,4.2-14,11.2-16.1,19.5c-0.5,2.2-0.8,4.4-0.8,6.7c0,0.3,0,0.7,0,1H93.7z M75.2,28
				c1.8,0,3.2,1.4,3.2,3.2s-1.4,3.2-3.2,3.2c-1.8,0-3.2-1.4-3.2-3.2S73.4,28,75.2,28z M44.2,28c1.8,0,3.2,1.4,3.2,3.2
				s-1.4,3.2-3.2,3.2c-1.8,0-3.2-1.4-3.2-3.2S42.4,28,44.2,28z"/>
		</g>
		<path fill="#4D4D4D" d="M135.2,86.3c0.1,14.4,12.6,19.1,12.7,19.2c-0.1,0.3-2,6.8-6.6,13.5c-4,5.8-8.1,11.5-14.5,11.7
			c-6.4,0.1-8.4-3.8-15.7-3.8c-7.3,0-9.5,3.6-15.5,3.9c-6.2,0.2-11-6.3-15-12c-8.1-11.8-14.4-33.3-6-47.8
			c4.2-7.2,11.6-11.8,19.6-11.9c6.1-0.1,11.9,4.1,15.7,4.1c3.7,0,10.8-5.1,18.2-4.4c3.1,0.1,11.8,1.2,17.4,9.4
			C145,68.5,135.1,74.3,135.2,86.3 M123.3,51.1c3.3-4,5.5-9.6,4.9-15.1c-4.8,0.2-10.6,3.2-14,7.2c-3.1,3.5-5.8,9.2-5,14.7
			C114.5,58.2,120,55.1,123.3,51.1"/>
	</g>
	<g id="Nube" display="none">
		<path id="MobileMe_3_" display="inline" fill="#54CAD7" stroke="#F1F1F3" stroke-width="6" stroke-miterlimit="10" d="M5.1,95.8
			c0,20.9,16.8,37.9,37.6,37.9h116.4c20.8,0,37.6-17,37.6-37.9c0-18.9-13.7-34.6-31.7-37.4c0.2-1.3,0.4-2.7,0.4-4.1
			c0-13.3-10.7-24-23.8-24c-5.9,0-11.3,2.1-15.4,5.7c-7.4-16.8-16.9-32.1-43.5-32.1C50.3,3.8,35,28.9,35,55.3c0,1.1,0,2.2,0.1,3.3
			C18,62.1,5.1,77.4,5.1,95.8z"/>
		<g display="inline">
			<path fill="#4D4D4D" d="M65.2,83.1c-0.7,0-1.3,0.1-1.9,0.3c0.3,0.5,0.5,1.1,0.5,1.8c0,1.7-1.4,3.1-3.1,3.1
				c-0.4,0-0.8-0.1-1.2-0.2c0,0.1,0,0.2,0,0.2c0,2.9,2.6,5.2,5.7,5.2c3.2,0,5.7-2.3,5.7-5.2C71,85.4,68.4,83.1,65.2,83.1z"/>
			<path fill="#4D4D4D" d="M145.3,89.4c2-5.3,0.8-11.6-3.5-15.9c-4.2-4.2-9.9-5.4-15.1-3.7c-0.7,0.2-1,1.2,0,1.5
				c0.7,0.3,0.9,0.2,1.9,0.7c1.1,0.5,4.9,3.2,6.3,5.4c1.3,2.1,1.9,7.5-0.7,10.1c0,0-0.1,0.1-0.1,0.1c0,0-0.1,0.1-0.1,0.1
				c-2.6,2.6-8,2.1-10.1,0.7c-2.1-1.3-4.9-5.2-5.4-6.3c-0.5-1.1-0.4-1.2-0.7-1.9c-0.3-1-1.3-0.7-1.5,0c-1.7,5.2-0.4,11,3.7,15.1
				c4.4,4.4,10.7,5.5,16.1,3.4l22.8,22.8c2.6,2.6,6.7,2.6,9.3,0c2.6-2.6,2.6-6.7,0-9.3L145.3,89.4z M166,119.1
				c-1.2,1.2-3.1,1.2-4.3,0c-1.2-1.2-1.2-3.1,0-4.3c1.2-1.2,3.1-1.2,4.3,0C167.2,116,167.1,117.9,166,119.1z"/>
			<path fill="#4D4D4D" d="M92.2,88.3c-1.7,0-3.1-1.4-3.1-3.1c0-0.7,0.2-1.3,0.5-1.8c-0.6-0.2-1.2-0.3-1.9-0.3
				c-3.2,0-5.7,2.3-5.7,5.2c0,2.9,2.6,5.2,5.7,5.2c3.2,0,5.7-2.3,5.7-5.2c0-0.1,0-0.2,0-0.2C93,88.2,92.6,88.3,92.2,88.3z"/>
			<path fill="#4D4D4D" d="M182.9,80.3c-0.2-0.7-1.2-1-1.5,0c-0.3,0.7-0.2,0.9-0.7,1.9c-0.5,1.1-3.2,4.9-5.4,6.3
				c-2.1,1.3-7.5,1.9-10.1-0.7c0,0-0.1-0.1-0.1-0.1c0,0-0.1-0.1-0.1-0.1c-2.6-2.6-2.1-8-0.7-10.1c1.3-2.1,5.2-4.9,6.3-5.4
				c1.1-0.5,1.2-0.4,1.9-0.7c1-0.3,0.7-1.3,0-1.5c-5.2-1.7-11-0.4-15.1,3.7c-4.3,4.3-5.4,10.5-3.5,15.9L131,112.2
				c-2.6,2.6-2.6,6.7,0,9.3c2.6,2.6,6.7,2.6,9.3,0L163,98.8c5.4,2.1,11.8,1,16.1-3.4C183.3,91.2,184.6,85.5,182.9,80.3z
				 M137.5,119.1c-1.2,1.2-3.1,1.2-4.3,0c-1.2-1.2-1.2-3.1,0-4.3c1.2-1.2,3.1-1.2,4.3,0C138.7,116,138.7,117.9,137.5,119.1z"/>
			<path fill="#4D4D4D" d="M115.8,67.4c0-1.5-0.6-2.1-2.1-2.1c-0.2,0-1.3,0-3.2,0c-0.1-1.2-0.2-2.5-0.2-3.7c0-11.5-7.6-21.7-16.6-28
				c0,0.3,0,0.5,0,0.8c0,0.9-0.1,1.8-0.1,2.7c-0.1,0.9-0.2,1.8-0.3,2.6c-0.2,1.7-0.5,3.4-0.8,5.1c-0.3,1.6-0.7,3.2-1.2,4.7
				c-0.5,1.5-0.9,2.8-1.4,4.1c-0.9,2.5-2,4.5-2.8,5.8c-0.8,1.4-1.4,2.1-1.4,2.1s0-0.2,0-0.6c0-0.4,0-1,0.1-1.8
				c0.1-1.5,0.2-3.7,0.4-6.3c0.2-2.6,0.4-5.5,0.6-8.7c0.1-1.6,0.2-3.2,0.2-4.8c0-0.8,0.1-1.6,0.1-2.5c0-0.8,0-1.7,0.1-2.5
				c0.1-1.4,0.1-2.8,0.1-4.2c-3.8-1.8-7.5-2.8-10.8-2.9c-3.3,0.1-7,1.1-10.8,2.9c0,1.4,0,2.8,0.1,4.2c0,0.8,0,1.7,0.1,2.5
				c0,0.8,0.1,1.7,0.1,2.5c0.1,1.6,0.2,3.3,0.2,4.8c0.2,3.1,0.4,6.1,0.6,8.7c0.2,2.6,0.3,4.7,0.4,6.3c0.1,0.8,0.1,1.4,0.1,1.8
				c0,0.4,0,0.6,0,0.6s-0.6-0.7-1.4-2.1c-0.8-1.3-1.8-3.3-2.8-5.8c-0.5-1.2-0.9-2.6-1.4-4.1c-0.4-1.5-0.8-3-1.2-4.7
				c-0.3-1.6-0.7-3.3-0.8-5.1c-0.1-0.9-0.2-1.7-0.3-2.6c0-0.9-0.1-1.8-0.1-2.7c0-0.3,0-0.5,0-0.8C50.6,40,43,50.1,43,61.6
				c0,1.3-0.1,2.5-0.2,3.7c-1.9,0-3.1,0-3.2,0c-1.4,0-2.1,0.6-2.1,2.1c0,1.5,0,9.6,0,9.6H42c-0.1,1-0.1,1.9-0.1,2.9
				c0,22.3,15.2,39.8,34.7,39.8c0,0,0,0,0,0s0,0,0,0c19.4,0,34.7-17.5,34.7-39.8c0-1,0-1.9-0.1-2.9h4.6
				C115.8,77,115.8,68.9,115.8,67.4z M76.7,115.9C76.6,115.9,76.6,115.9,76.7,115.9C76.6,115.9,76.6,115.9,76.7,115.9
				c-17.4,0-30.9-15.8-30.9-35.9c0-1,0-1.9,0.1-2.9h30.8h30.8c0.1,1,0.1,1.9,0.1,2.9C107.5,100.1,94,115.9,76.7,115.9z"/>
		</g>
	</g>
	<g id="Cerebro_1_" display="none">
		<g display="inline">
			<g>
				<g>
					<path fill="#4D4D4D" stroke="#F1F1F3" stroke-width="10" stroke-miterlimit="10" d="M74.7,39.2v54c0,0,1.1,9.4,9.1,9.7
						c0,0,9,2.3,13.3-4.4c0,0,8.7-0.3,11.2-9.9c0,0,4.9-2.7,4-11.4c0,0,4.7-6.1,0-11.6c0,0,2.8-6.2-3-10.7c0,0,0.3-8.1-7.5-10.6
						c0,0-1.1-5.7-11.3-6.3c0,0-1.6-5.4-8-5.1C76.2,33,75.4,37.8,74.7,39.2z"/>
					<path fill="#F8F8F8" stroke="#F1F1F3" stroke-width="10" stroke-miterlimit="10" d="M76.6,39.1c0,0,3.8-7.6,11-2.8
						c0,0,4.8,5.2,0,9.8c0,0-0.9,1.2-4.4,1.8c0,0,0.2-3-1.4-2.3c0,0-0.6,0.2-0.2,1c0,0,1.1,1.7-0.2,4.2c0,0-0.3,1.7,1,0.8
						c0,0,1-1.5,0.8-1.8c0,0,3.3-0.2,5.8-2.4c0,0,3-1.9,2.6-7.4c0,0,6-0.8,9,5.7c0,0,6.7,1.3,6.5,8.9c0,0-0.3,8.4-7.6,10
						c0,0-2.7,0.3-4.4,0c0,0,0.7-3.5,0.6-4.8c0,0,1.8-1.6,1.8-2.1c0,0-0.1-1-1.4-0.3c0,0-0.3,1.8-4.2,0.8c0,0-1.8,0,0,1.1
						c0,0,1,0.3,1.6,0.3c0,0,1.7,7.6-5.8,7.9c0,0-8.3-3-11-14V39.1z"/>
					<path fill="#F8F8F8" stroke="#F1F1F3" stroke-width="10" stroke-miterlimit="10" d="M98.4,77.5c0,0,4.8,3.5,10.2,0.5
						c0,0,7.5-3.1,1.7-11.9c0,0,2.6-5.7-1.4-8.9c0,0-2.8,11.4-14.9,9.3c0,0-1.6,1.8-3.1,2.4l3.6,0.3c0,0,1.9,1.6-0.6,2.3
						c0,0-11-0.2-17.4-11.3v33c0,0,1.9,8.5,9.9,8.4c0,0,9.6-0.1,11.1-8.4c0,0,1.5-6.2-3.2-9.6c0,0,0.1-2.4,1.9-1.3
						c0,0,5.8,5.4,2.4,13.8c0,0,5.4-0.1,8.4-8.7c0,0,4.3-3.4,3.9-8.5c0,0-4.7,2.7-8.5,2c0,0-3.6-0.9-4.4-2c0,0-4.8,4.9-11.4,1.3
						c0,0-1.4,1.7-2.5,0.7c0,0,0.8-0.6,2.4-2.1l-0.1-2.7c0,0,1.4-1,1.3,0.5l0.1,2.1c0,0,5.5,3.1,9.7-2.1"/>
				</g>
				<g>
					<path fill="#4D4D4D" stroke="#F1F1F3" stroke-width="10" stroke-miterlimit="10" d="M73.6,39.2v54c0,0-1.1,9.4-9.1,9.7
						c0,0-9,2.3-13.3-4.4c0,0-8.7-0.3-11.2-9.9c0,0-4.9-2.7-4-11.4c0,0-4.7-6.1,0-11.6c0,0-2.8-6.2,3-10.7c0,0-0.3-8.1,7.5-10.6
						c0,0,1.1-5.7,11.3-6.3c0,0,1.6-5.4,8-5.1C72.1,33,72.9,37.8,73.6,39.2z"/>
					<path fill="#F8F8F8" stroke="#F1F1F3" stroke-width="10" stroke-miterlimit="10" d="M71.7,39.1c0,0-3.8-7.6-11-2.8
						c0,0-4.8,5.2,0,9.8c0,0,0.9,1.2,4.4,1.8c0,0-0.2-3,1.4-2.3c0,0,0.6,0.2,0.2,1c0,0-1.1,1.7,0.2,4.2c0,0,0.3,1.7-1,0.8
						c0,0-1-1.5-0.8-1.8c0,0-3.3-0.2-5.8-2.4c0,0-3-1.9-2.6-7.4c0,0-6-0.8-9,5.7c0,0-6.7,1.3-6.5,8.9c0,0,0.3,8.4,7.6,10
						c0,0,2.7,0.3,4.4,0c0,0-0.7-3.5-0.6-4.8c0,0-1.8-1.6-1.8-2.1c0,0,0.1-1,1.4-0.3c0,0,0.3,1.8,4.2,0.8c0,0,1.8,0,0,1.1
						c0,0-1,0.3-1.6,0.3c0,0-1.7,7.6,5.8,7.9c0,0,8.3-3,11-14V39.1z"/>
					<path fill="#F8F8F8" stroke="#F1F1F3" stroke-width="10" stroke-miterlimit="10" d="M49.9,77.5c0,0-4.8,3.5-10.2,0.5
						c0,0-7.5-3.1-1.7-11.9c0,0-2.6-5.7,1.4-8.9c0,0,2.8,11.4,14.9,9.3c0,0,1.6,1.8,3.1,2.4l-3.6,0.3c0,0-1.9,1.6,0.6,2.3
						c0,0,11-0.2,17.4-11.3v33c0,0-1.9,8.5-9.9,8.4c0,0-9.6-0.1-11.1-8.4c0,0-1.5-6.2,3.2-9.6c0,0-0.1-2.4-1.9-1.3
						c0,0-5.8,5.4-2.4,13.8c0,0-5.4-0.1-8.4-8.7c0,0-4.3-3.4-3.9-8.5c0,0,4.7,2.7,8.5,2c0,0,3.6-0.9,4.4-2c0,0,4.8,4.9,11.4,1.3
						c0,0,1.4,1.7,2.5,0.7c0,0-0.8-0.6-2.4-2.1l0.1-2.7c0,0-1.4-1-1.3,0.5l-0.1,2.1c0,0-5.5,3.1-9.7-2.1"/>
				</g>
			</g>
			<g>
				<path fill="#4D4D4D" stroke="#F1F1F3" stroke-width="10" stroke-miterlimit="10" d="M88.1,105.9H60.2c-1.2,0-2.1,0.8-2.1,1.7
					v1.2c0,1,0.9,1.7,2.1,1.7h27.9c1.2,0,2.1-0.8,2.1-1.7v-1.2C90.2,106.6,89.2,105.9,88.1,105.9z"/>
				<path fill="#4D4D4D" stroke="#F1F1F3" stroke-width="10" stroke-miterlimit="10" d="M88.1,112.8H60.2c-1.2,0-2.1,0.8-2.1,1.7
					v1.2c0,1,0.9,1.7,2.1,1.7h27.9c1.2,0,2.1-0.8,2.1-1.7v-1.2C90.2,113.5,89.2,112.8,88.1,112.8z"/>
				<path fill="#4D4D4D" stroke="#F1F1F3" stroke-width="10" stroke-miterlimit="10" d="M88.1,119.7H60.2c-1.2,0-2.1,0.8-2.1,1.7
					v1.2c0,1,0.9,1.7,2.1,1.7h27.9c1.2,0,2.1-0.8,2.1-1.7v-1.2C90.2,120.5,89.2,119.7,88.1,119.7z"/>
				<path fill="#4D4D4D" stroke="#F1F1F3" stroke-width="10" stroke-miterlimit="10" d="M63.7,126.6h20.9c0,3.5-5.6,5.8-10.4,5.8
					C69.3,132.4,63.7,130.1,63.7,126.6z"/>
			</g>
			<path fill="#4D4D4D" stroke="#F1F1F3" stroke-width="10" stroke-miterlimit="10" d="M76.8,26.9c0,1.5-1.2,2.6-2.6,2.6l0,0
				c-1.5,0-2.6-1.2-2.6-2.6V8.6c0-1.5,1.2-2.6,2.6-2.6l0,0c1.5,0,2.6,1.2,2.6,2.6V26.9z"/>
			<path fill="#4D4D4D" stroke="#F1F1F3" stroke-width="10" stroke-miterlimit="10" d="M120.6,74.5c-1.5,0-2.6-1.2-2.6-2.6l0,0
				c0-1.5,1.2-2.6,2.6-2.6h18.3c1.5,0,2.6,1.2,2.6,2.6l0,0c0,1.5-1.2,2.6-2.6,2.6H120.6z"/>
			<path fill="#4D4D4D" stroke="#F1F1F3" stroke-width="10" stroke-miterlimit="10" d="M9.2,74.5c-1.5,0-2.6-1.2-2.6-2.6l0,0
				c0-1.5,1.2-2.6,2.6-2.6h18.3c1.5,0,2.6,1.2,2.6,2.6l0,0c0,1.5-1.2,2.6-2.6,2.6H9.2z"/>
			<path fill="#4D4D4D" stroke="#F1F1F3" stroke-width="10" stroke-miterlimit="10" d="M106.6,37.8c-1,1-2.7,1-3.7,0l0,0
				c-1-1-1-2.7,0-3.7l12.9-12.9c1-1,2.7-1,3.7,0l0,0c1,1,1,2.7,0,3.7L106.6,37.8z"/>
			<path fill="#4D4D4D" stroke="#F1F1F3" stroke-width="10" stroke-miterlimit="10" d="M41.7,37.8c1,1,2.7,1,3.7,0l0,0
				c1-1,1-2.7,0-3.7L32.5,21.2c-1-1-2.7-1-3.7,0l0,0c-1,1-1,2.7,0,3.7L41.7,37.8z"/>
		</g>
		<g display="inline">
			<g>
				<g>
					<g>
						<path fill="#F1F1F3" d="M74.8,39.3v54c0,0,1.1,9.4,9.1,9.7c0,0,9,2.3,13.3-4.4c0,0,8.7-0.3,11.2-9.9c0,0,4.9-2.7,4-11.4
							c0,0,4.7-6.1,0-11.6c0,0,2.8-6.2-3-10.7c0,0,0.3-8.1-7.5-10.6c0,0-1.1-5.7-11.3-6.3c0,0-1.6-5.4-8-5.1
							C76.3,33.1,75.5,37.9,74.8,39.3z"/>
						<path fill="#BEF35B" d="M76.8,39.2c0,0,3.8-7.6,11-2.8c0,0,4.8,5.2,0,9.8c0,0-0.9,1.2-4.4,1.8c0,0,0.2-3-1.4-2.3
							c0,0-0.6,0.2-0.2,1c0,0,1.1,1.7-0.2,4.2c0,0-0.3,1.7,1,0.8c0,0,1-1.5,0.8-1.8c0,0,3.3-0.2,5.8-2.4c0,0,3-1.9,2.6-7.4
							c0,0,6-0.8,9,5.7c0,0,6.7,1.3,6.5,8.9c0,0-0.3,8.4-7.6,10c0,0-2.7,0.3-4.4,0c0,0,0.7-3.5,0.6-4.8c0,0,1.8-1.6,1.8-2.1
							c0,0-0.1-1-1.4-0.3c0,0-0.3,1.8-4.2,0.8c0,0-1.8,0,0,1.1c0,0,1,0.3,1.6,0.3c0,0,1.7,7.6-5.8,7.9c0,0-8.3-3-11-14V39.2z"/>
						<path fill="#BEF35B" d="M98.5,77.6c0,0,4.8,3.5,10.2,0.5c0,0,7.5-3.1,1.7-11.9c0,0,2.6-5.7-1.4-8.9c0,0-2.8,11.4-14.9,9.3
							c0,0-1.6,1.8-3.1,2.4l3.6,0.3c0,0,1.9,1.6-0.6,2.3c0,0-11-0.2-17.4-11.3v33c0,0,1.9,8.5,9.9,8.4c0,0,9.6-0.1,11.1-8.4
							c0,0,1.5-6.2-3.2-9.6c0,0,0.1-2.4,1.9-1.3c0,0,5.8,5.4,2.4,13.8c0,0,5.4-0.1,8.4-8.7c0,0,4.3-3.4,3.9-8.5c0,0-4.7,2.7-8.5,2
							c0,0-3.6-0.9-4.4-2c0,0-4.8,4.9-11.4,1.3c0,0-1.4,1.7-2.5,0.7c0,0,0.8-0.6,2.4-2.1l-0.1-2.7c0,0,1.4-1,1.3,0.5l0.1,2.1
							c0,0,5.5,3.1,9.7-2.1"/>
					</g>
					<g>
						<path fill="#F1F1F3" d="M73.7,39.3v54c0,0-1.1,9.4-9.1,9.7c0,0-9,2.3-13.3-4.4c0,0-8.7-0.3-11.2-9.9c0,0-4.9-2.7-4-11.4
							c0,0-4.7-6.1,0-11.6c0,0-2.8-6.2,3-10.7c0,0-0.3-8.1,7.5-10.6c0,0,1.1-5.7,11.3-6.3c0,0,1.6-5.4,8-5.1
							C72.2,33.1,73,37.9,73.7,39.3z"/>
						<path fill="#BEF35B" d="M71.8,39.2c0,0-3.8-7.6-11-2.8c0,0-4.8,5.2,0,9.8c0,0,0.9,1.2,4.4,1.8c0,0-0.2-3,1.4-2.3
							c0,0,0.6,0.2,0.2,1c0,0-1.1,1.7,0.2,4.2c0,0,0.3,1.7-1,0.8c0,0-1-1.5-0.8-1.8c0,0-3.3-0.2-5.8-2.4c0,0-3-1.9-2.6-7.4
							c0,0-6-0.8-9,5.7c0,0-6.7,1.3-6.5,8.9c0,0,0.3,8.4,7.6,10c0,0,2.7,0.3,4.4,0c0,0-0.7-3.5-0.6-4.8c0,0-1.8-1.6-1.8-2.1
							c0,0,0.1-1,1.4-0.3c0,0,0.3,1.8,4.2,0.8c0,0,1.8,0,0,1.1c0,0-1,0.3-1.6,0.3c0,0-1.7,7.6,5.8,7.9c0,0,8.3-3,11-14V39.2z"/>
						<path fill="#BEF35B" d="M50,77.6c0,0-4.8,3.5-10.2,0.5c0,0-7.5-3.1-1.7-11.9c0,0-2.6-5.7,1.4-8.9c0,0,2.8,11.4,14.9,9.3
							c0,0,1.6,1.8,3.1,2.4l-3.6,0.3c0,0-1.9,1.6,0.6,2.3c0,0,11-0.2,17.4-11.3v33c0,0-1.9,8.5-9.9,8.4c0,0-9.6-0.1-11.1-8.4
							c0,0-1.5-6.2,3.2-9.6c0,0-0.1-2.4-1.9-1.3c0,0-5.8,5.4-2.4,13.8c0,0-5.4-0.1-8.4-8.7c0,0-4.3-3.4-3.9-8.5c0,0,4.7,2.7,8.5,2
							c0,0,3.6-0.9,4.4-2c0,0,4.8,4.9,11.4,1.3c0,0,1.4,1.7,2.5,0.7c0,0-0.8-0.6-2.4-2.1l0.1-2.7c0,0-1.4-1-1.3,0.5l-0.1,2.1
							c0,0-5.5,3.1-9.7-2.1"/>
					</g>
				</g>
				<g>
					<path fill="#BEF35B" d="M88.2,105.9H60.3c-1.2,0-2.1,0.8-2.1,1.7v1.2c0,1,0.9,1.7,2.1,1.7h27.9c1.2,0,2.1-0.8,2.1-1.7v-1.2
						C90.3,106.7,89.4,105.9,88.2,105.9z"/>
					<path fill="#BEF35B" d="M88.2,112.9H60.3c-1.2,0-2.1,0.8-2.1,1.7v1.2c0,1,0.9,1.7,2.1,1.7h27.9c1.2,0,2.1-0.8,2.1-1.7v-1.2
						C90.3,113.6,89.4,112.9,88.2,112.9z"/>
					<path fill="#BEF35B" d="M88.2,119.8H60.3c-1.2,0-2.1,0.8-2.1,1.7v1.2c0,1,0.9,1.7,2.1,1.7h27.9c1.2,0,2.1-0.8,2.1-1.7v-1.2
						C90.3,120.6,89.4,119.8,88.2,119.8z"/>
					<path fill="#BEF35B" d="M63.8,126.7h20.9c0,3.5-5.6,5.8-10.4,5.8C69.4,132.5,63.8,130.2,63.8,126.7z"/>
				</g>
				<path fill="#BEF35B" d="M76.9,27c0,1.5-1.2,2.6-2.6,2.6l0,0c-1.5,0-2.6-1.2-2.6-2.6V8.7c0-1.5,1.2-2.6,2.6-2.6l0,0
					c1.5,0,2.6,1.2,2.6,2.6V27z"/>
				<path fill="#BEF35B" d="M120.7,74.6c-1.5,0-2.6-1.2-2.6-2.6l0,0c0-1.5,1.2-2.6,2.6-2.6h18.3c1.5,0,2.6,1.2,2.6,2.6l0,0
					c0,1.5-1.2,2.6-2.6,2.6H120.7z"/>
				<path fill="#BEF35B" d="M9.3,74.6c-1.5,0-2.6-1.2-2.6-2.6l0,0c0-1.5,1.2-2.6,2.6-2.6h18.3c1.5,0,2.6,1.2,2.6,2.6l0,0
					c0,1.5-1.2,2.6-2.6,2.6H9.3z"/>
				<path fill="#BEF35B" d="M106.7,37.9c-1,1-2.7,1-3.7,0l0,0c-1-1-1-2.7,0-3.7l12.9-12.9c1-1,2.7-1,3.7,0l0,0c1,1,1,2.7,0,3.7
					L106.7,37.9z"/>
				<path fill="#BEF35B" d="M41.8,37.9c1,1,2.7,1,3.7,0l0,0c1-1,1-2.7,0-3.7L32.7,21.3c-1-1-2.7-1-3.7,0l0,0c-1,1-1,2.7,0,3.7
					L41.8,37.9z"/>
			</g>
		</g>
		<polygon display="inline" fill="#F1F1F3" points="102.8,40.4 107.7,40.4 106.8,44.4 102.7,42.3 		"/>
	</g>
	<g display="none">
		<g id="Marketing" display="inline">
			<g>
				<g>
					<path fill="#4D4D4D" stroke="#F1F1F3" stroke-width="11" stroke-miterlimit="10" d="M131.2,58.8c0.2,0.7-0.2,1.4-0.9,1.6
						l-23.4,6.5c-0.7,0.2-1.4-0.2-1.6-0.9l0,0c-0.2-0.7,0.2-1.4,0.9-1.6l23.4-6.5C130.2,57.6,131,58.1,131.2,58.8L131.2,58.8z"/>
					<g>
						<path fill="#4D4D4D" stroke="#F1F1F3" stroke-width="11" stroke-miterlimit="10" d="M115.7,31.1c0.6,0.4,0.9,1.2,0.5,1.8
							l-12,21.1c-0.4,0.6-1.2,0.9-1.8,0.5l0,0c-0.6-0.4-0.9-1.2-0.5-1.8l12-21.1C114.3,31,115.1,30.7,115.7,31.1L115.7,31.1z"/>
						<path fill="#4D4D4D" stroke="#F1F1F3" stroke-width="11" stroke-miterlimit="10" d="M132.1,90.4c0.4-0.6,0.1-1.4-0.5-1.8
							l-21.1-12c-0.6-0.4-1.4-0.1-1.8,0.5l0,0c-0.4,0.6-0.1,1.4,0.5,1.8l21.1,12C131,91.3,131.8,91,132.1,90.4L132.1,90.4z"/>
					</g>
				</g>
			</g>
			<g>
				<path fill="#4D4D4D" stroke="#F1F1F3" stroke-width="11" stroke-miterlimit="10" d="M30.1,99.1c0,0,5.7,9.1,11,16.8
					c5.3,7.7,12.9,14.9,12.9,14.9s3.3-0.5,9.2-2.5c5.8-2,6.5-3.1,6.5-3.1s-0.9-6.9-5.1-7.6c-0.4-2.7-1.3-6.2-4.6-6.6
					c0-3-1.6-9.1-5.7-10.5c0.6-3.3-0.8-6.2-0.8-6.2L30.1,99.1z"/>
				<path fill="#4D4D4D" stroke="#F1F1F3" stroke-width="11" stroke-miterlimit="10" d="M60.6,94l2.9,9c0,0-1.1,1-2.6,1.2
					c-1.5,0.2-4.4-4-5.1-6c-0.7-2-1.2-4.6-1.2-4.6L60.6,94z"/>
				<path fill="#4D4D4D" stroke="#F1F1F3" stroke-width="11" stroke-miterlimit="10" d="M10.1,78.2c0,0-0.3,1.3-0.2,3.8
					c-2.7,1.9-4,5.3-3.1,8.6c0.9,3.3,3.8,5.6,7,5.8c1.2,2.2,2.1,3.2,2.1,3.2l7.4-0.2L19.9,87l-3.3-12.4L10.1,78.2z"/>
				<path fill="#8B71FB" stroke="#F1F1F3" stroke-width="6" stroke-miterlimit="10" d="M88,68.7"/>
				<g>
					<path fill="#4D4D4D" stroke="#F1F1F3" stroke-width="11" stroke-miterlimit="10" d="M98.7,108.3c1.1,0.5,2.2,0.3,3,0.1l0,0
						c3.7-1,4.8-4.3,4.5-8.8c0,0,0-6.9-7.3-33.9c-7.3-27-10.8-32.9-10.8-32.9c-2.4-4.2-4.8-5.9-8.5-4.9l0,0c-0.9,0.3-1.6,0.5-2.2,1
						l-0.6,0.9c0,0-3.9,6.1-13.4,18.4C54,60.5,37,66.3,29.1,68.7C21.2,71.2,19,71.1,17.1,73c-1.8,1.9,1.7,14.4,1.7,14.4
						s3.3,12.5,5.8,13.2c2.5,0.7,4.4-0.5,12.5-2.3c8-1.8,25.7-5.4,40,0.5C91.4,104.7,98.7,108.2,98.7,108.3L98.7,108.3z"/>
				</g>
				<g>
					<path fill="#4D4D4D" d="M30.1,99.1c0,0,5.7,9.1,11,16.8c5.3,7.7,12.9,14.9,12.9,14.9s3.3-0.5,9.2-2.5c5.8-2,6.5-3.1,6.5-3.1
						s-0.9-6.9-5.1-7.6c-0.4-2.7-1.3-6.2-4.6-6.6c0-3-1.6-9.1-5.7-10.5c0.6-3.3-0.8-6.2-0.8-6.2L30.1,99.1z"/>
					<path fill="#4D4D4D" d="M60.6,94l2.9,9c0,0-1.1,1-2.6,1.2c-1.5,0.2-4.4-4-5.1-6c-0.7-2-1.2-4.6-1.2-4.6L60.6,94z"/>
					<g>
						<path fill="#4D4D4D" d="M10.1,78.2c0,0-0.3,1.3-0.2,3.8c-2.7,1.9-4,5.3-3.1,8.6c0.9,3.3,3.8,5.6,7,5.8
							c1.2,2.2,2.1,3.2,2.1,3.2l7.4-0.2L19.9,87l-3.3-12.4L10.1,78.2z"/>
						<path fill="#8B71FB" d="M63.2,48.3c-9.4,12.2-26.4,18-34.3,20.5C21,71.3,18.8,71.2,17,73.1c-1.8,1.9,1.6,14.3,1.6,14.3
							s3.2,12.4,5.8,13.1c2.5,0.7,4.4-0.5,12.4-2.3c8-1.8,25.6-5.4,39.9,0.4c14.3,5.8,21.5,9.3,21.5,9.3L87.7,68.7L77.1,29.4
							C77.1,29.4,72.6,36.1,63.2,48.3z"/>
						<path fill="#6656C5" d="M53,77.5c-12.7,3.4-23.8,9.4-32.3,16.6c1.1,3,2.5,6,3.7,6.4c2.5,0.7,4.4-0.5,12.4-2.3
							c8-1.8,25.6-5.4,39.9,0.4c14.3,5.8,21.5,9.3,21.5,9.3l-8.7-32.3C78.5,73.5,65.8,74,53,77.5z"/>
					</g>
					<g>
						<path fill="#4D4D4D" d="M106.1,99.5c0.4,4.4-1.2,7.5-4.9,8.5l0,0c-3.7,1-6.6-0.7-8.5-4.9c0,0-2.9-3.6-10.8-32.9
							c-7.9-29.3-7.3-33.9-7.3-33.9c0.3-4.5,1.2-7.5,4.9-8.5l0,0c3.7-1,6.1,0.6,8.5,4.9c0,0,3.5,6,10.8,32.9
							C106.2,92.6,106.1,99.5,106.1,99.5z"/>
						<path fill="#F1F1F3" d="M97.6,66c5.4,19.8,6.1,36.9,6.1,36.9s-7.9-15.1-13.3-35C85.1,48.1,84.3,31,84.3,31S92.2,46.2,97.6,66z
							"/>
					</g>
				</g>
			</g>
			<g>
				<g>
					<g>
						<polygon fill="#54CAD7" stroke="#F1F1F3" stroke-width="11" stroke-miterlimit="10" points="228.9,103.4 228.9,109.8 
							125.6,109.8 125.6,6.6 132.1,6.6 132.1,103.4 						"/>
						<polygon fill="#4D4D4D" stroke="#F1F1F3" stroke-width="11" stroke-miterlimit="10" points="171.4,42.4 197.7,49 206.8,33.8 
							215.1,38.8 215.5,13 193,25.5 201.3,30.5 194.6,41.6 169.4,35.3 142.3,62.4 146.8,66.9 						"/>
						<polygon fill="#F1F1F3" stroke="#F1F1F3" stroke-width="11" stroke-miterlimit="10" points="137.1,66.6 137.1,96.9 215,96.9 
							215,41.3 173.3,42.8 						"/>
					</g>
				</g>
				<g>
					<g>
						<polygon fill="#54CAD7" points="228.9,103.4 228.9,109.8 125.6,109.8 125.6,6.6 132.1,6.6 132.1,103.4 						"/>
						<polygon fill="#4D4D4D" points="171.4,42.4 197.7,49 206.8,33.8 215.1,38.8 215.5,13 193,25.5 201.3,30.5 194.6,41.6 
							169.4,35.3 142.3,62.4 146.8,66.9 						"/>
						<polygon fill="#54CAD7" points="164.3,96.9 177.3,96.9 177.3,50.4 173.8,49.6 164.3,59 						"/>
						<polygon fill="#54CAD7" points="145,73.8 145,96.9 157.9,96.9 157.9,65.4 147.3,76.1 						"/>
						<polygon fill="#54CAD7" points="202,53.4 202,96.9 214.9,96.9 214.9,46.5 208.4,42.7 						"/>
						<polygon fill="#54CAD7" points="196.6,96.9 196.6,55.3 183.7,52 183.7,96.9 						"/>
					</g>
				</g>
			</g>
		</g>
		<g display="inline">
			<path fill="#4D4D4D" d="M131,58.9c0.2,0.7-0.2,1.4-0.9,1.6L106.6,67c-0.7,0.2-1.4-0.2-1.6-0.9l0,0c-0.2-0.7,0.2-1.4,0.9-1.6
				l23.4-6.5C130,57.7,130.8,58.2,131,58.9L131,58.9z"/>
			<g>
				<path fill="#4D4D4D" d="M115.5,31.2c0.6,0.4,0.9,1.2,0.5,1.8l-12,21.1c-0.4,0.6-1.2,0.9-1.8,0.5l0,0c-0.6-0.4-0.9-1.2-0.5-1.8
					l12-21.1C114.1,31.1,114.9,30.8,115.5,31.2L115.5,31.2z"/>
				<path fill="#4D4D4D" d="M131.9,90.5c0.4-0.6,0.1-1.4-0.5-1.8l-21.1-12c-0.6-0.4-1.4-0.1-1.8,0.5l0,0c-0.4,0.6-0.1,1.4,0.5,1.8
					l21.1,12C130.7,91.4,131.6,91.1,131.9,90.5L131.9,90.5z"/>
			</g>
		</g>
		<polygon display="inline" fill="#F1F1F3" points="107.7,56.9 120.3,36.2 120.9,56.9 107.7,59.3 		"/>
		<polygon display="inline" fill="#F1F1F3" points="110.3,70.8 121.4,66.8 120.8,77.2 		"/>
	</g>
</g>
<g id="Layer_3">
</g>
<g id="Layer_2">
	<path id="YouTube__x28_alt_x29__3_" display="none" fill-rule="evenodd" clip-rule="evenodd" fill="#54CAD7" d="M259.7-152
		c0-2.2-1.8-3.9-3.9-3.9h-18.4c-2.2,0-3.9,1.8-3.9,3.9v10.5c0,2.2,1.8,3.9,3.9,3.9h18.4c2.2,0,3.9-1.8,3.9-3.9V-152z M244-142.3
		v-9.9l7.5,4.9L244-142.3z"/>
	<g display="none">
		<path display="inline" fill="#54CAD7" d="M247.2-144.8l-1.3-1c-0.4-0.3-0.9-0.8-0.9-1.6c0-0.8,0.5-1.3,1-1.8c1.5-1.2,3-2.5,3-5.2
			c0-2.8-1.7-4.2-2.6-4.9h2.2l2.4-1.5h-7.1c-2,0-4.8,0.5-6.8,2.2c-1.6,1.3-2.3,3.2-2.3,4.9c0,2.8,2.2,5.7,6,5.7c0.4,0,0.8,0,1.2-0.1
			c-0.2,0.4-0.4,0.8-0.4,1.4c0,1.1,0.6,1.8,1.1,2.5c-1.6,0.1-4.7,0.3-6.9,1.7c-2.1,1.3-2.8,3.1-2.8,4.4c0,2.7,2.5,5.2,7.8,5.2
			c6.2,0,9.5-3.4,9.5-6.9C250.2-142.3,248.8-143.5,247.2-144.8z M242.5-149c-3.1,0-4.5-4-4.5-6.5c0-0.9,0.2-1.9,0.8-2.7
			c0.6-0.7,1.6-1.2,2.5-1.2c3,0,4.6,4.1,4.6,6.7c0,0.7-0.1,1.8-0.9,2.6C244.3-149.5,243.4-149,242.5-149z M242.5-134.4
			c-3.9,0-6.4-1.9-6.4-4.4c0-2.6,2.3-3.4,3.1-3.7c1.5-0.5,3.5-0.6,3.8-0.6c0.4,0,0.5,0,0.8,0c2.8,2,3.9,2.9,3.9,4.8
			C247.8-136.1,246-134.4,242.5-134.4z"/>
		<polygon display="inline" fill="#54CAD7" points="256.3,-149.1 256.3,-152.7 254.5,-152.7 254.5,-149.1 250.9,-149.1 
			250.9,-147.3 254.5,-147.3 254.5,-143.6 256.3,-143.6 256.3,-147.3 260,-147.3 260,-149.1 		"/>
	</g>
	<path display="none" fill="#54CAD7" d="M253.8-156.3l-2.6,0c-2,0-2.4,1-2.4,2.4v3.1h4.9l0,4.9h-4.9v12.7h-5.1v-12.7h-4.3v-4.9h4.3
		v-3.6c0-4.2,2.6-6.5,6.3-6.5l3.8,0V-156.3z"/>
	<path display="none" fill="#54CAD7" d="M260.3-155.1c0,0-0.1-0.1-0.2,0c-0.8,0.4-1.7,0.6-2.6,0.8c0.9-0.7,1.6-1.7,2-2.8
		c0-0.1,0-0.1,0-0.1c0,0-0.1,0-0.2,0c-1.1,0.6-2.2,1.1-3.4,1.3c-1.1-1.1-2.6-1.7-4.1-1.7c-3.1,0-5.7,2.6-5.7,5.7
		c0,0.4,0,0.8,0.1,1.1c-4.4-0.3-8.4-2.4-11.2-5.7c0,0-0.1-0.1-0.1,0c0,0-0.1,0-0.1,0.1c-0.5,0.9-0.8,1.9-0.8,2.9
		c0,1.7,0.8,3.4,2.1,4.5c-0.7-0.1-1.4-0.3-2-0.6c0,0-0.1,0-0.1,0c0,0-0.1,0.1-0.1,0.1l0,0.1c0,2.5,1.7,4.7,4,5.4
		c-0.6,0.1-1.3,0.1-1.9,0c0,0-0.1,0-0.1,0c0,0,0,0.1,0,0.1c0.7,2.2,2.7,3.7,4.9,3.9c-1.9,1.4-4.2,2.1-6.5,2.1c-0.4,0-0.9,0-1.3-0.1
		c-0.1,0-0.1,0-0.1,0.1c0,0.1,0,0.1,0.1,0.2c2.6,1.6,5.5,2.5,8.6,2.5c10,0,16-8.1,16-16c0-0.2,0-0.4,0-0.7c1.1-0.8,2-1.8,2.7-2.9
		C260.3-155,260.3-155.1,260.3-155.1z"/>
	<g display="none">
		<path display="inline" fill="#54CAD7" d="M236.8-159.6c-1.7,0-3,1.4-3,3c0,1.7,1.4,3,3,3c1.7,0,3-1.4,3-3
			C239.8-158.2,238.5-159.6,236.8-159.6z"/>
		<rect x="234.2" y="-151.3" display="inline" fill="#54CAD7" width="5.2" height="16.7"/>
		<path display="inline" fill="#54CAD7" d="M252.6-151.7c-2.5,0-4.2,1.4-4.9,2.7h-0.1v-2.3h-5h0v16.7h5.2v-8.3
			c0-2.2,0.4-4.3,3.1-4.3c2.7,0,2.7,2.5,2.7,4.4v8.1h5.2v-9.2C258.9-148.2,257.9-151.7,252.6-151.7z"/>
	</g>
	<g display="none">
		<rect x="441.4" y="-130" display="inline" fill="#EB5757" width="59.7" height="59.7"/>
		<rect x="508.8" y="-130" display="inline" fill="#54CAD7" width="59.7" height="59.7"/>
		<rect x="576.1" y="-130" display="inline" fill="#4D4D4D" width="59.7" height="59.7"/>
		<rect x="441.4" y="-57.1" display="inline" fill="#F48732" width="59.7" height="59.7"/>
		<rect x="508.8" y="-57.1" display="inline" fill="#BEF35B" width="59.7" height="59.7"/>
		<rect x="576.1" y="-57.1" display="inline" fill="#8B71FB" width="59.7" height="59.7"/>
		<rect x="642" y="-129.5" display="inline" fill="#F1F1F3" width="39.6" height="132.1"/>
	</g>
	<rect x="142.5" y="-215.2" display="none" fill="#4D4D4D" width="163.5" height="154.1"/>
</g>
</svg>
