<?xml version="1.0" encoding="utf-8"?>
<!-- Generator: Adobe Illustrator 17.0.0, SVG Export Plug-In . SVG Version: 6.00 Build 0)  -->
<!DOCTYPE svg PUBLIC "-//W3C//DTD SVG 1.1//EN" "http://www.w3.org/Graphics/SVG/1.1/DTD/svg11.dtd">
<svg version="1.1" id="Layer_1" xmlns="http://www.w3.org/2000/svg" xmlns:xlink="http://www.w3.org/1999/xlink" x="0px" y="0px"
	 width="1024px" height="768px" viewBox="0 0 1024 768" enable-background="new 0 0 1024 768" xml:space="preserve">
<g>
	<path fill="#54CAD7" d="M534.423,430.561l-32.749-25.451c-9.978-8.264-23.634-19.195-23.634-39.183
		c0-20.078,13.649-32.832,25.495-44.652c38.147-30.037,76.281-61.998,76.281-129.357c0-69.271-43.584-105.704-64.474-122.999h56.318
		l59.114-37.136H451.688c-49.148,0-119.973,11.622-171.815,54.432c-39.081,33.714-58.148,80.195-58.148,122.046
		c0,71.036,54.54,143.064,150.88,143.064c9.095,0,19.048-0.896,29.064-1.823c-4.503,10.937-9.05,20.065-9.05,35.524
		c0,28.214,14.494,45.522,27.273,61.909c-40.929,2.808-117.332,7.349-173.65,41.965c-53.651,31.898-69.981,78.328-69.981,111.102
		c0,67.442,63.591,130.271,195.423,130.271c156.329,0,239.096-86.496,239.096-172.134
		C610.787,495.214,574.431,464.25,534.423,430.561z M415.358,325.798c-78.213,0-113.641-101.105-113.641-162.092
		c0-23.755,4.497-48.285,19.969-67.435c14.583-18.242,39.976-30.068,63.681-30.068c75.398,0,114.505,102.007,114.505,167.606
		c0,16.413-1.816,45.496-22.719,66.527C462.53,314.924,438.058,325.798,415.358,325.798z M416.253,692.101
		c-97.254,0-159.969-46.513-159.969-111.217c0-64.665,58.148-86.54,78.149-93.781c38.166-12.85,87.263-14.628,95.457-14.628
		c9.089,0,13.637,0,20.865,0.915c69.137,49.199,99.147,73.723,99.147,120.3C549.908,650.091,503.542,692.101,416.253,692.101z"/>
	<polygon fill="#54CAD7" points="763.976,324.41 763.976,233.328 718.998,233.328 718.998,324.41 628.063,324.41 628.063,369.886 
		718.998,369.886 718.998,461.531 763.976,461.531 763.976,369.886 855.365,369.886 855.365,324.41 	"/>
</g>
</svg>
