<?xml version="1.0" encoding="utf-8"?>
<!-- Generator: Adobe Illustrator 17.0.0, SVG Export Plug-In . SVG Version: 6.00 Build 0)  -->
<!DOCTYPE svg PUBLIC "-//W3C//DTD SVG 1.1//EN" "http://www.w3.org/Graphics/SVG/1.1/DTD/svg11.dtd">
<svg version="1.1" id="Layer_1" xmlns="http://www.w3.org/2000/svg" xmlns:xlink="http://www.w3.org/1999/xlink" x="0px" y="0px"
	 width="1024px" height="768px" viewBox="0 0 1024 768" enable-background="new 0 0 1024 768" xml:space="preserve">
<g>
	<path fill="#54CAD7" d="M247.159,35.944c-46.32,0-83.81,37.546-83.82,83.764c0,46.256,37.49,83.801,83.82,83.801
		c46.2,0,83.745-37.546,83.745-83.801C330.904,73.498,293.359,35.944,247.159,35.944z"/>
	<rect x="174.866" y="267.073" fill="#54CAD7" width="144.521" height="464.983"/>
	<path fill="#54CAD7" d="M687.313,255.509c-70.304,0-117.442,38.54-136.741,75.1h-1.934v-63.536H410.03h-0.009v464.983h144.391
		V502.033c0-60.655,11.545-119.385,86.729-119.385c74.106,0,75.1,69.356,75.1,123.28v226.128h144.419V477.009
		C860.669,351.823,833.647,255.509,687.313,255.509z"/>
</g>
</svg>
