<?xml version="1.0" encoding="utf-8"?>
<!-- Generator: Adobe Illustrator 17.0.0, SVG Export Plug-In . SVG Version: 6.00 Build 0)  -->
<!DOCTYPE svg PUBLIC "-//W3C//DTD SVG 1.1//EN" "http://www.w3.org/Graphics/SVG/1.1/DTD/svg11.dtd">
<svg version="1.1" id="Layer_1" xmlns="http://www.w3.org/2000/svg" xmlns:xlink="http://www.w3.org/1999/xlink" x="0px" y="0px"
	 width="1024px" height="768px" viewBox="0 0 1024 768" enable-background="new 0 0 1024 768" xml:space="preserve">
<path fill="#54CAD7" d="M916.048,122.083c-1.15-1.37-3.071-1.831-4.701-1.09c-24.237,10.743-49.704,18.465-75.942,23.027
	c27.848-20.946,48.604-49.975,59.247-83.244c0.51-1.601-0.02-3.331-1.321-4.381c-1.31-1.03-3.141-1.17-4.561-0.31
	c-31.379,18.615-65.359,31.729-101.04,39.011C756.091,62.275,711.948,43.5,666.245,43.5c-92.947,0-168.569,75.612-168.569,168.559
	c0,11.233,1.09,22.377,3.241,33.17c-128.738-7.932-249.113-69.75-330.957-170.14c-0.83-1.03-2.111-1.611-3.431-1.47
	c-1.31,0.1-2.501,0.84-3.171,1.991c-14.924,25.607-22.817,54.916-22.817,84.735c0,51.685,23.487,99.999,63.458,131.878
	c-20.586-2.481-40.692-8.943-58.817-19.016c-1.23-0.7-2.741-0.69-3.951,0.02c-1.22,0.7-2.001,1.991-2.021,3.401l-0.01,2.161
	c0,74.202,48.904,139.381,118.475,161.017c-18.325,2.971-37.331,2.751-56.026-0.82c-1.371-0.24-2.821,0.23-3.751,1.29
	c-0.95,1.07-1.26,2.541-0.82,3.891c20.866,65.129,78.843,110.802,146.323,116.484c-56.296,41.242-122.826,62.958-193.136,62.958
	c-12.944,0-25.988-0.76-38.761-2.271c-1.831-0.21-3.631,0.88-4.261,2.641c-0.63,1.771,0.03,3.731,1.62,4.751
	c76.072,48.784,164.038,74.562,254.384,74.562c295.546,0,472.168-240.07,472.168-472.178c0-6.462-0.13-12.884-0.39-19.295
	c31.879-23.327,59.237-51.875,81.314-84.915C917.308,125.424,917.198,123.453,916.048,122.083z"/>
</svg>
