<?xml version="1.0" encoding="utf-8"?>
<!-- Generator: Adobe Illustrator 18.0.0, SVG Export Plug-In . SVG Version: 6.00 Build 0)  -->
<!DOCTYPE svg PUBLIC "-//W3C//DTD SVG 1.1//EN" "http://www.w3.org/Graphics/SVG/1.1/DTD/svg11.dtd">
<svg version="1.1" id="youtube" xmlns="http://www.w3.org/2000/svg" xmlns:xlink="http://www.w3.org/1999/xlink" x="0px" y="0px"
	 width="600.1px" height="5100.2px" viewBox="0.5 -491.9 600.1 5100.2" style="enable-background:new 0.5 -491.9 600.1 5100.2;"
	 xml:space="preserve">
<rect x="300" y="2808.1" style="fill:#F7F7F7;" width="300.1" height="300"/>
<rect x="300" y="3108.2" style="fill:#E52D27;" width="300.1" height="300"/>
<rect x="300" y="3408.2" style="fill:#FF9900;" width="300.1" height="300"/>
<rect x="300" y="3708.2" style="fill:#2AA9E0;" width="300.1" height="300"/>
<rect x="300" y="4008.2" style="fill:#1AB7EA;" width="300.1" height="300"/>
<rect x="300" y="4308.2" style="fill:#E52D27;" width="300.1" height="300"/>
<path style="opacity:0.2;" d="M600.4,3029.8l-75.8-75.8l-11.5,11.5l-31.4-31.4l-104.4,104.4l69.6,69.6h42h64.6H600v-41.1
	c0.2-1.9,0.4-3.8,0.4-5.7V3029.8z"/>
<rect x="300.5" y="-191.9" style="fill:#C4C4C4;" width="300.1" height="300"/>
<rect x="300.5" y="108" style="fill:#1B85F3;" width="300.1" height="300"/>
<rect x="300.5" y="408" style="fill:#EB5857;" width="300.1" height="300"/>
<rect x="300" y="708" style="fill:#3D5A98;" width="300.1" height="300"/>
<rect x="300" y="1008" style="fill:#DD4B39;" width="300.1" height="300"/>
<rect x="300" y="1308" style="fill:#F16529;" width="300.1" height="300"/>
<rect x="300" y="1608.1" style="fill:#527FA3;" width="300.1" height="300"/>
<rect x="300" y="1908.1" style="fill:#0274B3;" width="300.1" height="300"/>
<rect x="300" y="2208.1" style="fill:#004890;" width="300.1" height="300"/>
<rect x="300" y="2508.1" style="fill:#CB2028;" width="300.1" height="300"/>
<rect x="300.5" y="-491.9" style="fill:#A4C439;" width="300.1" height="300"/>
<rect x="0.5" y="-491.9" style="fill:#F2F2F2;" width="300" height="5098.9"/>
<g>
	<path style="fill:#4D4E4E;" d="M201.1-36.2c-0.3-23.7,19.3-35.2,20.2-35.7c-11-16.1-28.2-18.3-34.3-18.5
		c-14.6-1.5-28.5,8.6-35.9,8.6c-7.4,0-18.8-8.3-30.9-8.1c-15.9,0.3-30.6,9.3-38.8,23.5C65-37.7,77.3,4.8,93.5,28.1
		c7.9,11.4,17.3,24.2,29.6,23.7c11.9-0.5,16.4-7.7,30.7-7.7c14.3,0,18.4,7.6,31,7.4c12.8-0.2,20.9-11.6,28.7-23.1
		c9-13.2,12.7-26,12.9-26.7C226.1,1.5,201.4-7.9,201.1-36.2"/>
	<path style="fill:#4D4E4E;" d="M177.6-105.8c6.6-7.9,11-19,9.7-29.9c-9.4,0.4-20.8,6.3-27.6,14.2c-6.1,7-11.4,18.2-9.9,29
		C160.3-91.7,171-97.9,177.6-105.8"/>
</g>
<g>
	<path style="fill:#4D4E4E;" d="M106.9,247.2H65.8c-2,0-3.7,1.7-3.7,3.7v23.8c0,2,1.6,3.7,3.7,3.7h23.3L106.9,247.2L106.9,247.2z"/>
	<path style="fill:#4D4E4E;" d="M91.2,320.6l-10.6-6.1c-1.9-1.1-3.7-0.2-4,2l-1.8,15.9c-0.3,2.2,1,3,2.9,1.8l13.7-9.3
		C93.2,323.7,93.2,321.7,91.2,320.6L91.2,320.6z"/>
	<path style="fill:#4D4E4E;" d="M149.3,229c1.1-1.9,0.4-4.4-1.5-5.6l-10.6-6.1c-1.9-1.1-4.4-0.4-5.6,1.5l-16.2,28.3l-17.9,31.2
		l-14.9,26c-1.1,1.9-0.4,4.4,1.5,5.5l10.6,6.1c1.9,1.1,4.4,0.4,5.6-1.5l20.8-36.1l13.4-23.4L149.3,229L149.3,229z"/>
	<path style="fill:#4D4E4E;" d="M147.3,247.2l-17.9,31.2H178c-3.5-7-8.2-16.9-14.5-31.2H147.3L147.3,247.2z"/>
	<path style="fill:#4D4E4E;" d="M206.8,278.7c-0.1-0.1-0.1-0.2-0.2-0.4c-1-1.8-3.4-6.6-6.7-12.7c0-0.1-0.1-0.2-0.1-0.3
		c-0.3-0.5-0.5-0.9-0.8-1.4c-0.2-0.3-0.4-0.7-0.6-1.1c-0.2-0.3-0.3-0.6-0.5-0.9c-0.3-0.5-0.6-1.1-0.9-1.7c-0.1-0.2-0.2-0.3-0.3-0.5
		c-0.3-0.6-0.7-1.3-1-1.9c-0.1-0.2-0.2-0.4-0.3-0.6c-7.5-14.1-16.8-31.5-22.6-40.6c-10.1-16-23.6-42.6-27.4-40.8
		c-5.3,2.6,11.1,36.5,16.5,49.2c5.4,12.7,26.5,61.4,30.8,63.6c4.2,2.1,5.9,0.9,8.7-0.2C204.3,287.4,209.4,283.5,206.8,278.7
		L206.8,278.7z"/>
	<path style="fill:#4D4E4E;" d="M218.9,303.9l-5-9.7c-1.1-2.2-3.8-3.1-6-2l-6.1,3.1c-2.1,1.1-2.8,3.7-1.5,5.8l6.4,10.1
		c1.3,2.1,4.1,2.8,6.2,1.5l4.3-2.6C219.2,308.9,220,306,218.9,303.9L218.9,303.9z"/>
	<path style="fill:#4D4E4E;" d="M217.3,317.9c-1.6,1.5-5.4,4.8-0.8,11.2c4.6,6.4,14.7,6.7,16.1,11
		C232.6,340.1,235.8,307.4,217.3,317.9L217.3,317.9z"/>
	<path style="fill:#4D4E4E;" d="M237.9,274.7v-23.8c0-2-1.6-3.7-3.7-3.7h-35.7c4.2,7.9,8.1,15.3,10.8,20.5c1.9,3.6,3.4,6.5,3.9,7.5
		c0.6,1,0.9,2.1,1.2,3.1h19.7C236.3,278.3,237.9,276.7,237.9,274.7L237.9,274.7L237.9,274.7z"/>
</g>
<path style="fill:#4D4E4E;" d="M217.1,482.5H82.9c-13.9,0-25.2,11.3-25.2,25.2v100.6c0,13.9,11.3,25.2,25.2,25.2h134.1
	c13.9,0,25.2-11.3,25.2-25.2V507.7C242.2,493.8,231,482.6,217.1,482.5L217.1,482.5z M217.1,499.3c1,0,1.9,0.2,2.7,0.5L150,555.6
	l-69.8-55.8c0.9-0.3,1.8-0.5,2.7-0.5H217.1L217.1,499.3z M217.1,616.7H82.9c-4.6,0-8.4-3.8-8.4-8.4v-91.5l70.2,56.2
	c1.5,1.2,3.4,1.8,5.2,1.8c1.9,0,3.7-0.6,5.2-1.8l70.2-56.2v91.5C225.5,612.9,221.7,616.7,217.1,616.7L217.1,616.7z"/>
<path id="facebook-f" style="fill:#4D4E4E;" d="M196.4,1008V891.8h39l5.8-45.3h-44.8v-28.9c0-13.1,3.6-22,22.4-22l24,0v-40.5
	c-4.1-0.6-18.4-1.8-34.9-1.8c-34.6,0-58.2,21.1-58.2,59.8v33.4h-39.1v45.3h39.1V1008L196.4,1008L196.4,1008z"/>
<polygon style="fill:#07738C;" points="212.1,2065.7 212.8,2065.9 212.4,2065.5 "/>
<path style="fill:#4D4E4E;" d="M158.1,1083.7h-46c-20.6,0-40,15.6-40,33.7c0,18.5,14.1,33.4,35,33.4l4.2-0.1
	c-1.4,2.6-2.3,5.5-2.3,8.6c0,5.1,2.8,9.3,6.3,12.7l-8,0.1c-25.5,0-45.2,16.3-45.2,33.1c0,16.6,21.6,27,47.1,27
	c29.1,0,45.2-16.5,45.2-33.1c0-13.3-3.9-21.3-16.1-29.9c-4.1-3-12.1-10.1-12.1-14.3c0-4.9,1.4-7.4,8.8-13.2c7.6-5.9,13-14.3,13-24
	c0-11.6-5.1-22.9-14.8-26.6h14.6L158.1,1083.7L158.1,1083.7z M142,1196.3c0.4,1.5,0.6,3.1,0.6,4.7c0,13.4-8.6,23.9-33.5,23.9
	c-17.6,0-30.4-11.2-30.4-24.6c0-13.1,15.8-24.1,33.5-23.9c4.1,0.1,8,0.7,11.5,1.8C133.2,1184.9,140.1,1188.7,142,1196.3z
	 M113.7,1146.2c-11.9-0.3-23.1-13.3-25.2-28.8c-2-15.6,5.9-27.5,17.7-27.1s23.1,12.8,25.1,28.4
	C133.5,1134.2,125.6,1146.5,113.7,1146.2z"/>
<polygon style="fill:#4D4E4E;" points="204.9,1116.3 204.9,1083.7 193.9,1083.7 193.9,1116.3 161,1116.3 161,1127.3 193.9,1127.3 
	193.9,1160.7 204.9,1160.7 204.9,1127.3 237.9,1127.3 237.9,1116.3 "/>
<polygon style="fill:#07738C;" points="212.1,2665.7 212.8,2665.9 212.4,2665.5 "/>
<path style="fill:#4D4E4E;" d="M230,1670.1H70c-4.4,0-7.9,3.6-7.9,7.9V1838c0,4.4,3.6,7.9,7.9,7.9H230c4.4,0,7.9-3.6,7.9-7.9V1678
	C237.9,1673.7,234.3,1670.1,230,1670.1z M150,1727.3c16.9,0,30.7,13.7,30.7,30.7s-13.7,30.7-30.7,30.7s-30.7-13.7-30.7-30.7
	C119.3,1741.1,133.1,1727.3,150,1727.3z M215.9,1823.9H84.1V1747h14.5c-0.8,3.6-1.2,7.2-1.2,11c0,29,23.6,52.6,52.6,52.6
	c29,0,52.6-23.6,52.6-52.6c0-3.8-0.4-7.4-1.2-11h14.5L215.9,1823.9L215.9,1823.9z M215.9,1725h-33v-33h33V1725z"/>
<g>
	<rect x="64.3" y="2028.6" style="fill:#4D4E4E;" width="37.7" height="113.4"/>
	<path style="fill:#4D4E4E;" d="M83.2,2013.2h-0.3c-12.6,0-20.8-8.7-20.8-19.6c0-11.1,8.4-19.6,21.3-19.6c12.9,0,20.8,8.5,21.1,19.6
		C104.5,2004.4,96.3,2013.2,83.2,2013.2z M237.9,2142h-37.7v-60.7c0-15.2-5.5-25.6-19.1-25.6c-10.4,0-16.6,7-19.3,13.8
		c-1,2.4-1.2,5.8-1.2,9.2v63.3h-37.7c0,0,0.5-102.7,0-113.4h37.7v16c5-7.7,14-18.7,34-18.7c24.8,0,43.4,16.2,43.4,51L237.9,2142
		L237.9,2142L237.9,2142z"/>
</g>
<g>
	<path style="fill:#4D4E4E;" d="M157.8,2338c1.3-0.8,2.5-1.7,3.6-2.8c3.1-2.9,5.5-6.7,6.4-10.8c1.7-6.2-0.3-11.5-4.4-14.4
		c-2.2-1.6-4.9-2.5-8-2.5h-18.1l-0.6,2.5l-7.3,31.4h17.3C150.6,2341.3,154.5,2340.1,157.8,2338L157.8,2338z M147.1,2319.7h8.4
		c0.4,0,0.7,0.1,0.8,0.1c0,0.2,0,0.6-0.2,1.3l-0.1,0.2l0,0.2c-0.9,3.9-5.4,7.6-9.2,7.6h-1.9L147.1,2319.7L147.1,2319.7z"/>
	<path style="fill:#4D4E4E;" d="M227.7,2314.8c-3.5-4.4-8-8-13-10.8c-1.7-7.3-4.9-12.9-8.1-16.9c-8.6-10.7-22.6-17.1-37.6-17.1H96.4
		l-2.1,9.5l-27.8,123.7l-3.3,14.9h27.3l-2.9,12.8l-3.3,14.9h61.9l2.1-9.6l6.9-31.4h16.5c32,0,57.1-19.7,63.8-50.2
		C239.8,2335.1,233.6,2322.2,227.7,2314.8L227.7,2314.8z M93.1,2406H78.4l27.8-123.7H169c11.6,0,24.4,5.3,30.7,16.4
		c2.2,3.8,3.5,8.4,3.8,13.6c0.2,3.7-0.1,7.7-1.1,12.1c-2.2,10-6.8,18.3-13,24.8c-9.5,10-23,15.5-37.9,15.7c-0.3,0-0.6,0-0.9,0h-26.3
		l-9,41L93.1,2406L93.1,2406z M223.5,2352.1c-5.6,25.6-26.7,40.6-51.9,40.6h-26.3l-9,41H99.4l3.5-15.5H125l2.1-9.6l6.9-31.4h16.5
		c32,0,57.1-19.7,63.8-50.2c0.6-2.6,0.9-5,1.2-7.4C222.7,2326.5,226.8,2337.2,223.5,2352.1L223.5,2352.1z"/>
</g>
<path style="fill:#4D4E4E;" d="M155.5,2540.8c-64,0-96.2,45.9-96.2,84.1c0,23.2,8.8,43.8,27.6,51.4c3.1,1.3,5.8,0,6.7-3.4
	c0.6-2.4,2.1-8.3,2.8-10.8c0.9-3.4,0.6-4.6-1.9-7.5c-5.4-6.4-8.9-14.7-8.9-26.4c0-34,25.5-64.5,66.3-64.5c36.2,0,56,22.1,56,51.6
	c0,38.8-17.2,71.6-42.7,71.6c-14.1,0-24.6-11.6-21.3-25.9c4-17.1,11.9-35.5,11.9-47.8c0-11-5.9-20.2-18.2-20.2
	c-14.4,0-26,14.9-26,34.9c0,12.7,4.3,21.3,4.3,21.3s-14.7,62.4-17.3,73.4c-5.1,21.8-0.8,48.5-0.4,51.2c0.2,1.6,2.3,2,3.2,0.8
	c1.3-1.7,18.5-22.9,24.3-44.1c1.6-6,9.5-37,9.5-37c4.7,8.9,18.4,16.8,32.9,16.8c43.3,0,72.7-39.5,72.7-92.3
	C240.7,2578,206.9,2540.8,155.5,2540.8L155.5,2540.8z"/>
<polygon style="fill:none;" points="161.2,2957.9 186.8,2932.3 186.8,2932.3 161.2,2957.9 79.6,2876.3 79.6,2876.3 161.2,2957.9 
	79.5,3039.7 79.5,3039.7 161.2,2957.9 186.9,2983.6 186.9,2983.6 "/>
<linearGradient id="SVGID_1_" gradientUnits="userSpaceOnUse" x1="702.4049" y1="586.2678" x2="518.4749" y2="701.3777" gradientTransform="matrix(0.4143 0.4143 0.4143 -0.4143 -389.8887 2903.2131)">
	<stop  offset="0" style="stop-color:#FFFFFF"/>
	<stop  offset="0.3264" style="stop-color:#9D9FA2"/>
	<stop  offset="1" style="stop-color:#3E3E3F"/>
</linearGradient>
<path style="fill:url(#SVGID_1_);" d="M186.8,2932.3l-99.7-54.8c-2.8-1.5-5.4-1.9-7.5-1.2l81.6,81.6L186.8,2932.3L186.8,2932.3z"/>
<linearGradient id="SVGID_2_" gradientUnits="userSpaceOnUse" x1="595.4495" y1="684.5981" x2="833.9395" y2="622.2482" gradientTransform="matrix(0.4143 0.4143 0.4143 -0.4143 -389.8887 2903.2131)">
	<stop  offset="0" style="stop-color:#231F20"/>
	<stop  offset="0.6721" style="stop-color:#ABADB0"/>
	<stop  offset="1" style="stop-color:#FFFFFF"/>
</linearGradient>
<path style="fill:url(#SVGID_2_);" d="M186.9,2983.6l34-18.7c6.9-3.8,6.9-10,0-13.8l-34.1-18.8l-25.6,25.6L186.9,2983.6
	L186.9,2983.6z"/>
<linearGradient id="SVGID_3_" gradientUnits="userSpaceOnUse" x1="728.5798" y1="498.9397" x2="469.9799" y2="651.0797" gradientTransform="matrix(0.4143 0.4143 0.4143 -0.4143 -389.8887 2903.2131)">
	<stop  offset="0" style="stop-color:#FFFFFF"/>
	<stop  offset="0.3264" style="stop-color:#9D9FA2"/>
	<stop  offset="1" style="stop-color:#3E3E3F"/>
</linearGradient>
<path style="fill:url(#SVGID_3_);" d="M79.6,2876.3c-3,0.9-5,4-5,8.7l0,146.1c0,4.6,1.9,7.6,4.8,8.6l81.7-81.8L79.6,2876.3
	L79.6,2876.3z"/>
<linearGradient id="SVGID_4_" gradientUnits="userSpaceOnUse" x1="822.4668" y1="619.7424" x2="663.2368" y2="409.9724" gradientTransform="matrix(0.4143 0.4143 0.4143 -0.4143 -389.8887 2903.2131)">
	<stop  offset="0" style="stop-color:#FFFFFF"/>
	<stop  offset="0.3264" style="stop-color:#9D9FA2"/>
	<stop  offset="1" style="stop-color:#3E3E3F"/>
</linearGradient>
<path style="fill:url(#SVGID_4_);" d="M79.5,3039.7c2.1,0.7,4.8,0.4,7.7-1.2l99.8-54.9l-25.7-25.7L79.5,3039.7L79.5,3039.7z"/>
<g id="playtube-Lozenge">
	<path style="fill:#4D4E4E;" d="M241.9,3220.5c0,0-1.8-12.9-7.5-18.6c-7.1-7.5-15.1-7.5-18.8-7.9c-26.2-1.9-65.6-1.9-65.6-1.9H150
		c0,0-39.4,0-65.6,1.9c-3.7,0.4-11.7,0.5-18.8,7.9c-5.6,5.7-7.5,18.6-7.5,18.6s-1.9,15.2-1.9,30.3v14.2c0,15.2,1.9,30.3,1.9,30.3
		s1.8,12.9,7.5,18.6c7.1,7.5,16.5,7.2,20.7,8c15,1.4,63.8,1.9,63.8,1.9s39.4-0.1,65.6-2c3.7-0.4,11.7-0.5,18.8-7.9
		c5.6-5.7,7.5-18.6,7.5-18.6s1.9-15.2,1.9-30.3v-14.2C243.7,3235.7,241.9,3220.5,241.9,3220.5L241.9,3220.5z M130.6,3282.3l0-52.7
		l50.7,26.4L130.6,3282.3L130.6,3282.3z"/>
</g>
<g>
	<path style="fill:#4D4E4E;" d="M87.3,3596.8c-12.9,0-23.4,10.5-23.4,23.4c0,12.9,10.5,23.4,23.4,23.4c12.9,0,23.4-10.5,23.4-23.4
		C110.7,3607.3,100.2,3596.8,87.3,3596.8L87.3,3596.8z"/>
	<path style="fill:#4D4E4E;" d="M62.1,3529.7v33.8c22,0,42.6,8.6,58.1,24.2c15.5,15.6,24.1,36.4,24.1,58.5h33.8
		C178.1,3582,126.1,3529.7,62.1,3529.7L62.1,3529.7z"/>
	<path style="fill:#4D4E4E;" d="M62.2,3469.8v33.8c78.2,0,141.9,64,141.9,142.6h33.8C237.9,3548.9,159.1,3469.8,62.2,3469.8
		L62.2,3469.8z"/>
</g>
<path style="fill:#FFFFFF;" d="M173.1,4501.7L173.1,4501.7C173.1,4501.7,173.1,4501.7,173.1,4501.7L173.1,4501.7L173.1,4501.7z"/>
<path style="fill:#4D4E4E;" d="M250,3796c-7.4,3.3-15.3,5.5-23.6,6.5c8.5-5.1,15-13.1,18-22.7c-7.9,4.7-16.7,8.1-26.1,10
	c-7.5-8-18.1-13-30-13c-22.7,0-41,18.4-41,41c0,3.2,0.4,6.3,1.1,9.4c-34.1-1.7-64.3-18-84.6-42.9c-3.5,6.1-5.6,13.1-5.6,20.6
	c0,14.2,7.2,26.8,18.3,34.2c-6.7-0.2-13.1-2.1-18.6-5.1c0,0.2,0,0.3,0,0.5c0,19.9,14.1,36.5,32.9,40.2c-3.4,0.9-7.1,1.4-10.8,1.4
	c-2.6,0-5.2-0.3-7.7-0.7c5.2,16.3,20.4,28.2,38.3,28.5c-14,11-31.7,17.6-51,17.6c-3.3,0-6.6-0.2-9.8-0.6
	c18.2,11.6,39.7,18.4,62.9,18.4c75.5,0,116.7-62.5,116.7-116.7c0-1.8,0-3.5-0.1-5.3C237.6,3811.4,244.5,3804.2,250,3796L250,3796z"
	/>
<path style="fill:#4D4E4E;" d="M212.9,4087.1c17,0.4,25.5,10.1,25.6,29c0,1.2,0,2.5-0.1,3.9c-0.7,16-12.7,37.8-35.8,65.4
	c-23.9,28.9-44.1,43.4-60.7,43.5c-10.3,0-18.9-8.9-25.8-26.6l-7.2-24.3l-7.2-24.3c-5.3-17.6-10.9-26.3-16.9-26.3
	c-1.3,0-5.9,2.6-13.7,7.7l-8.3-9.9l13-10.8l12.7-10.7c11.4-9.1,20.1-14.1,26-14.8c0.8-0.1,1.6-0.1,2.4-0.1
	c12.2,0,19.9,8.8,22.8,26.3c1.7,10,3.1,18.2,4.2,24.4c1.1,6.3,2,10.6,2.7,13.1c4,16.6,8.4,25,13.1,25c3.6,0,9.1-5.4,16.6-16.2
	c7.3-11.1,11.2-19.4,11.7-24.7c0.2-1.1,0.2-2.1,0.2-3c0-7.3-4-10.9-12-10.9c-4,0-8.3,0.9-13,2.5c8.3-25.5,24.1-38.2,47.6-38.3
	L212.9,4087.1L212.9,4087.1z"/>
<g>
	<path style="fill:#4D4E4E;" d="M218.5,4457.6L218.5,4457.6c-7.3-7.3-68.5-7.4-68.5-7.4c0,0-61.2,0.1-68.5,7.3
		c-7.3,7.3-7.3,43.1-7.3,43.4c0,0.3,0,36.1,7.3,43.4c7.3,7.2,68.5,7.4,68.5,7.4s61.2-0.2,68.5-7.4c7.3-7.3,7.4-43.4,7.4-43.4
		C225.8,4500.8,225.7,4464.9,218.5,4457.6z M119.3,4478.8H109v52.1h-10v-52.1H88.8v-8.9h30.6V4478.8z M148.5,4530.9h-8.8v-4.9
		c-1.6,1.8-3.3,3.2-5.1,4.2c-1.8,1-3.5,1.4-5.1,1.4c-2.1,0-3.6-0.7-4.6-2c-1-1.3-1.5-3.3-1.5-6v-37.6h8.8v34.5
		c0,1.1,0.2,1.8,0.5,2.3c0.4,0.5,1,0.7,1.8,0.7c0.7,0,1.5-0.3,2.5-1c1-0.6,1.9-1.4,2.7-2.4v-34.2h8.8V4530.9z M180.6,4521.6
		c0,3.2-0.7,5.6-2.1,7.3c-1.4,1.7-3.4,2.5-6,2.5c-1.7,0-3.3-0.3-4.6-1c-1.4-0.7-2.6-1.7-3.8-3v3.4h-8.9v-61h8.9v19.6
		c1.2-1.4,2.5-2.4,3.8-3.1c1.4-0.7,2.7-1.1,4.1-1.1c2.8,0,4.9,1,6.4,2.9c1.5,1.9,2.2,4.7,2.2,8.4V4521.6z M211.2,4509.5h-16.9v8.5
		c0,2.4,0.3,4,0.9,4.9c0.6,0.9,1.6,1.4,3,1.4c1.5,0,2.5-0.4,3.1-1.2c0.6-0.8,0.9-2.5,0.9-5.1v-2h9.1v2.3c0,4.6-1.1,8.1-3.3,10.4
		c-2.2,2.3-5.5,3.5-9.9,3.5c-4,0-7.1-1.2-9.4-3.7c-2.3-2.5-3.4-5.9-3.4-10.2V4498c0-3.9,1.3-7.1,3.8-9.5c2.5-2.5,5.7-3.7,9.7-3.7
		c4,0,7.2,1.1,9.3,3.4c2.2,2.3,3.3,5.5,3.3,9.8V4509.5z"/>
	<path style="fill:#4D4E4E;" d="M198.3,4492.7L198.3,4492.7c-1.4,0-2.4,0.4-3,1.2c-0.6,0.8-0.9,2.1-0.9,4v4.5h7.8v-4.5
		c0-1.9-0.3-3.2-0.9-4C200.6,4493.1,199.6,4492.7,198.3,4492.7z"/>
	<path style="fill:#4D4E4E;" d="M167.8,4492.5L167.8,4492.5c-0.6,0-1.3,0.1-1.9,0.4c-0.6,0.3-1.2,0.8-1.8,1.4v28
		c0.7,0.7,1.4,1.3,2.1,1.6c0.7,0.3,1.4,0.5,2.1,0.5c1.1,0,1.9-0.3,2.4-1c0.5-0.6,0.8-1.6,0.8-3.1v-23.2c0-1.5-0.3-2.7-0.9-3.5
		C169.9,4492.9,169,4492.5,167.8,4492.5z"/>
	<path style="fill:#4D4E4E;" d="M176.8,4432.1L176.8,4432.1c1.9,0,3.8-0.5,5.8-1.6c2-1,3.9-2.6,5.7-4.6v5.5h10v-49.6h-10v37.6
		c-0.9,1.1-1.9,2-3.1,2.7c-1.1,0.7-2,1-2.8,1c-0.9,0-1.6-0.3-2-0.8c-0.4-0.5-0.6-1.4-0.6-2.5v-38h-9.9v41.4c0,3,0.6,5.2,1.7,6.6
		C172.7,4431.4,174.5,4432.1,176.8,4432.1z"/>
	<path style="fill:#4D4E4E;" d="M147.2,4432.7L147.2,4432.7c4.5,0,8.1-1.2,10.7-3.6c2.6-2.4,3.9-5.7,3.9-10v-25.6
		c0-3.8-1.3-6.9-3.9-9.3c-2.6-2.4-6-3.6-10.1-3.6c-4.5,0-8.1,1.1-10.8,3.4c-2.7,2.3-4,5.3-4,9.2v25.7c0,4.2,1.3,7.6,3.9,10.1
		C139.4,4431.4,142.9,4432.7,147.2,4432.7z M143.1,4392.8c0-1.1,0.4-2,1.1-2.6c0.8-0.7,1.7-1,3-1c1.3,0,2.4,0.3,3.2,1
		c0.8,0.7,1.2,1.5,1.2,2.6v27c0,1.3-0.4,2.4-1.2,3.1c-0.8,0.8-1.9,1.1-3.2,1.1c-1.3,0-2.3-0.4-3-1.1c-0.7-0.8-1.1-1.8-1.1-3.2
		V4392.8z"/>
	<polygon style="fill:#4D4E4E;" points="107.8,4431.4 119,4431.4 119,4403.5 132,4364.2 120.6,4364.2 113.7,4391.1 113,4391.1 
		105.7,4364.2 94.4,4364.2 107.8,4404.8 	"/>
</g>
<path id="facebook-f_1_" style="fill:#FFFFFF;" d="M496.4,1008V891.8h39l5.8-45.3h-44.8v-28.9c0-13.1,3.6-22,22.4-22l24,0v-40.5
	c-4.1-0.6-18.4-1.8-34.9-1.8c-34.6,0-58.2,21.1-58.2,59.8v33.4h-39.1v45.3h39.1V1008L496.4,1008L496.4,1008z"/>
<polygon style="fill:#07738C;" points="512.1,2065.7 512.8,2065.9 512.4,2065.5 "/>
<polygon style="fill:#07738C;" points="512.1,2665.7 512.8,2665.9 512.4,2665.5 "/>
<polygon style="fill:none;" points="461.2,2957.9 486.8,2932.3 486.8,2932.3 461.2,2957.9 379.6,2876.3 379.6,2876.3 461.2,2957.9 
	379.5,3039.7 379.5,3039.7 461.2,2957.9 486.9,2983.6 486.9,2983.6 "/>
<linearGradient id="SVGID_5_" gradientUnits="userSpaceOnUse" x1="1064.447" y1="948.3099" x2="880.517" y2="1063.4199" gradientTransform="matrix(0.4143 0.4143 0.4143 -0.4143 -389.8887 2903.2131)">
	<stop  offset="0" style="stop-color:#D6FFA1"/>
	<stop  offset="0.3264" style="stop-color:#93E2A7"/>
	<stop  offset="1" style="stop-color:#00A3B5"/>
</linearGradient>
<path style="fill:url(#SVGID_5_);" d="M486.8,2932.3l-99.7-54.8c-2.8-1.5-5.4-1.9-7.5-1.2l81.6,81.6L486.8,2932.3L486.8,2932.3z"/>
<linearGradient id="SVGID_6_" gradientUnits="userSpaceOnUse" x1="957.4917" y1="1046.6403" x2="1195.9817" y2="984.2903" gradientTransform="matrix(0.4143 0.4143 0.4143 -0.4143 -389.8887 2903.2131)">
	<stop  offset="0" style="stop-color:#FF177B"/>
	<stop  offset="0.6721" style="stop-color:#FFA976"/>
	<stop  offset="1" style="stop-color:#FFEC73"/>
</linearGradient>
<path style="fill:url(#SVGID_6_);" d="M486.9,2983.6l34-18.7c6.9-3.8,6.9-10,0-13.8l-34.1-18.8l-25.6,25.6L486.9,2983.6
	L486.9,2983.6z"/>
<linearGradient id="SVGID_7_" gradientUnits="userSpaceOnUse" x1="1090.6219" y1="860.9819" x2="832.022" y2="1013.1218" gradientTransform="matrix(0.4143 0.4143 0.4143 -0.4143 -389.8887 2903.2131)">
	<stop  offset="0" style="stop-color:#63FFD4"/>
	<stop  offset="0.4854" style="stop-color:#32A0BA"/>
	<stop  offset="0.8349" style="stop-color:#1262A9"/>
	<stop  offset="1" style="stop-color:#064AA2"/>
</linearGradient>
<path style="fill:url(#SVGID_7_);" d="M379.6,2876.3c-3,0.9-5,4-5,8.7l0,146.1c0,4.6,1.9,7.6,4.8,8.6l81.8-81.8L379.6,2876.3
	L379.6,2876.3z"/>
<linearGradient id="SVGID_8_" gradientUnits="userSpaceOnUse" x1="1184.5089" y1="981.7846" x2="1025.2789" y2="772.0146" gradientTransform="matrix(0.4143 0.4143 0.4143 -0.4143 -389.8887 2903.2131)">
	<stop  offset="0" style="stop-color:#FF4521"/>
	<stop  offset="0.3411" style="stop-color:#D43E65"/>
	<stop  offset="0.7935" style="stop-color:#9F36B9"/>
	<stop  offset="1" style="stop-color:#8A33DB"/>
</linearGradient>
<path style="fill:url(#SVGID_8_);" d="M379.5,3039.7c2.1,0.7,4.8,0.4,7.7-1.2l99.8-54.9l-25.7-25.7L379.5,3039.7L379.5,3039.7z"/>
<path style="fill:#FFFFFF;" d="M473.1,4501.7L473.1,4501.7C473.1,4501.7,473.1,4501.7,473.1,4501.7L473.1,4501.7L473.1,4501.7z"/>
<g>
	<path style="fill:#4D4E4E;" d="M198.5-370.9L198.5-370.9l-97,0l0,70.4c0,1.9,0.5,3.6,1.2,5.2c1.9,3.8,5.8,6.4,10.3,6.4l7.9,0l0,24
		c0,4.5,2.7,8.3,6.6,10c1.3,0.6,2.7,0.9,4.2,0.9c0.4,0,0.7,0,1.1-0.1c5.5-0.6,9.7-5.2,9.7-10.8l0-24l14.6,0l0,24
		c0,6,4.9,10.9,10.9,10.8c6,0,10.9-4.9,10.9-10.9l0-24l7.9,0c2.5,0,4.8-0.8,6.6-2.1c3-2.1,4.9-5.6,4.9-9.5L198.5-370.9L198.5-370.9z
		"/>
	<path style="fill:#4D4E4E;" d="M224.4-362.1c0-6-4.9-10.8-10.8-10.8c-6,0-10.8,4.9-10.8,10.9l0,45.4c0,6,4.9,10.9,10.9,10.8
		c6,0,10.8-4.8,10.8-10.9L224.4-362.1L224.4-362.1z"/>
	<path style="fill:#4D4E4E;" d="M86.4-372.9c-6,0-10.8,4.9-10.8,10.8l0,45.4c0,3.7,1.9,7,4.7,9c1.7,1.2,3.9,1.9,6.1,1.9
		c5.2,0,9.6-3.7,10.6-8.7c0.1-0.7,0.2-1.4,0.2-2.2l0-45.4C97.3-368.1,92.4-372.9,86.4-372.9L86.4-372.9z"/>
	<path style="fill:#4D4E4E;" d="M173.9-413.7l7.6-13.8c0.1-0.1,0.1-0.3,0.2-0.4c0.1-0.6-0.1-1.2-0.7-1.6c0,0-0.1,0-0.1-0.1
		c-0.1,0-0.1-0.1-0.2-0.1c-0.5-0.2-1.1-0.1-1.5,0.3c-0.1,0.1-0.2,0.2-0.3,0.4l-7.7,14c-2.2-1-4.5-1.8-6.9-2.5c-4.5-1.3-9.3-2-14.3-2
		c-1.4,0-2.8,0.1-4.2,0.2c0,0,0,0-0.1,0c-6,0.5-11.8,2-17,4.3l-7.7-13.9c-0.3-0.6-1-0.9-1.7-0.7c0,0-0.1,0-0.1,0c0,0,0,0,0,0
		c-0.1,0-0.2,0.1-0.3,0.1c-0.2,0.1-0.3,0.2-0.4,0.3c-0.2,0.2-0.4,0.5-0.4,0.9c0,0.3,0,0.6,0.2,0.9l7.6,13.8
		c-10.4,5.4-18.4,14.1-22.3,24.6c-0.3,0.8-0.6,1.5-0.8,2.3c-1.2,3.9-1.8,7.9-1.8,12.1l97.7,0C198.8-391.4,188.8-406,173.9-413.7
		L173.9-413.7z M127.7-392.4c-2.3,0-4.1-1.8-4.1-4.1c0-2.3,1.8-4.1,4.1-4.1c2.3,0,4.1,1.9,4.1,4.1
		C131.8-394.2,130-392.4,127.7-392.4L127.7-392.4z M172.2-392.4c-2.3,0-4.1-1.8-4.1-4.1c0-2.2,1.8-4.1,4.1-4.1
		c2.2,0,4.1,1.9,4.1,4.1C176.3-394.2,174.5-392.4,172.2-392.4L172.2-392.4z"/>
</g>
<path style="opacity:0.2;" d="M600-310.6L481.3-429.3l-10.7,18.2l7.7,7.8h-29.8l-9.3-9.3l-0.8,0.8l-17.4-17.4l7.5,17.3l4.7,5.2
	l-3.3,3.3h-15v15l-13.7,13.7l50.6,50.6l-6,6l-51.8-51.8l-15.7,15.7l9.8,9.8v22.3h4l-13.2,13.2l49.1,49.1l-3.2,3.2l64.8,64.8h111.1
	L600-310.6z M481.1-400.6l0.5,0.6l-0.5,0.5V-400.6z M474.2-377.6l-7-7h7.7l7,7H474.2z M492.8-365.2v-1.7l0.8,0.8L492.8-365.2
	L492.8-365.2z"/>
<g>
	<path style="fill:#FFFFFF;" d="M498.5-370.9L498.5-370.9l-97,0l0,70.4c0,1.9,0.5,3.6,1.2,5.2c1.9,3.8,5.8,6.4,10.3,6.4l7.9,0l0,24
		c0,4.5,2.7,8.3,6.6,10c1.3,0.6,2.7,0.9,4.2,0.9c0.4,0,0.7,0,1.1-0.1c5.5-0.6,9.7-5.2,9.7-10.8l0-24l14.6,0l0,24
		c0,6,4.9,10.9,10.9,10.8c6,0,10.9-4.9,10.9-10.9l0-24l7.9,0c2.5,0,4.8-0.8,6.6-2.1c3-2.1,4.9-5.6,4.9-9.5L498.5-370.9L498.5-370.9z
		"/>
	<path style="fill:#FFFFFF;" d="M524.4-362.1c0-6-4.9-10.8-10.8-10.8c-6,0-10.8,4.9-10.8,10.9l0,45.4c0,6,4.9,10.9,10.9,10.8
		c6,0,10.8-4.8,10.8-10.9L524.4-362.1L524.4-362.1z"/>
	<path style="fill:#FFFFFF;" d="M386.4-372.9c-6,0-10.8,4.9-10.8,10.8l0,45.4c0,3.7,1.9,7,4.7,9c1.7,1.2,3.9,1.9,6.1,1.9
		c5.2,0,9.6-3.7,10.6-8.7c0.1-0.7,0.2-1.4,0.2-2.2l0-45.4C397.3-368.1,392.4-372.9,386.4-372.9L386.4-372.9z"/>
	<path style="fill:#FFFFFF;" d="M473.9-413.7l7.6-13.8c0.1-0.1,0.1-0.3,0.2-0.4c0.1-0.6-0.1-1.2-0.7-1.6c0,0-0.1,0-0.1-0.1
		c-0.1,0-0.1-0.1-0.2-0.1c-0.5-0.2-1.1-0.1-1.5,0.3c-0.1,0.1-0.2,0.2-0.3,0.4l-7.7,14c-2.2-1-4.5-1.8-6.9-2.5c-4.5-1.3-9.3-2-14.3-2
		c-1.4,0-2.8,0.1-4.2,0.2c0,0,0,0-0.1,0c-6,0.5-11.8,2-17,4.3l-7.7-13.9c-0.3-0.6-1-0.9-1.7-0.7c0,0-0.1,0-0.1,0c0,0,0,0,0,0
		c-0.1,0-0.2,0.1-0.3,0.1c-0.2,0.1-0.3,0.2-0.4,0.3c-0.2,0.2-0.4,0.5-0.4,0.9c0,0.3,0,0.6,0.2,0.9l7.6,13.8
		c-10.4,5.4-18.4,14.1-22.3,24.6c-0.3,0.8-0.6,1.5-0.8,2.3c-1.2,3.9-1.8,7.9-1.8,12.1l97.7,0C498.8-391.4,488.8-406,473.9-413.7
		L473.9-413.7z M427.7-392.4c-2.3,0-4.1-1.8-4.1-4.1c0-2.3,1.8-4.1,4.1-4.1c2.3,0,4.1,1.9,4.1,4.1
		C431.8-394.2,430-392.4,427.7-392.4L427.7-392.4z M472.2-392.4c-2.3,0-4.1-1.8-4.1-4.1c0-2.2,1.8-4.1,4.1-4.1
		c2.2,0,4.1,1.9,4.1,4.1C476.3-394.2,474.5-392.4,472.2-392.4L472.2-392.4z"/>
</g>
<polygon style="opacity:0.2;" points="531.4,3198.9 531.4,3309.8 361.6,3309.8 459.8,3408 488.9,3408 553.1,3408 600,3408 
	600,3361.1 600,3289.3 600,3267.5 "/>
<path style="opacity:0.2;" d="M516.8,2563.8L516.8,2563.8c0,0,24,33.1,24,54.1c0,15.7-2.6,30.2-7.4,42.8l-12-12
	c4.4-8.3,6.9-17.6,6.9-27.3c0-35.6-32.7-64.5-72.9-64.5s-72.9,28.9-72.9,64.5c0,6.9,1.2,13.6,3.5,19.9l-13.7,24.5l56.2,54.1
	c-1.2,4.7-2.2,8.7-2.7,10.4c-5.8,21.2-27.1,44.2-27.1,44.2L432,2808h56.9l0,0H600v-46.9v-71.8v-42.4L516.8,2563.8z"/>
<polygon style="opacity:0.2;" points="600,2389.5 600,2380.2 503.2,2283.4 481.6,2278.5 446.7,2270.1 396.4,2270.1 363.1,2418.2 
	387.7,2442.8 384.4,2446.1 446.3,2508 489.1,2508 489,2508.1 600.1,2508.1 600.1,2389.4 "/>
<polygon style="opacity:0.2;" points="525.8,2038.8 498.3,2066.3 460.6,2028.6 454.9,2034.3 398.4,1977.8 368.3,2007.9 
	395.2,2034.8 376.5,2053.5 391.2,2068.2 391.2,2119.2 389.2,2117.2 364.3,2142 430.3,2208 488.9,2208 553.1,2208 600,2208 
	600,2161.1 600,2114.3 600,2112.9 "/>
<polygon style="opacity:0.2;" points="600,1789.5 600,1736.4 534.9,1671.9 517.4,1687.1 379.7,1687.1 379.7,1824.8 364.7,1843.9 
	428.8,1908 489.1,1908 489,1908.1 600.1,1908.1 600.1,1789.4 "/>
<g style="opacity:0.2;">
	<polygon points="495,1358.4 488.3,1365.1 481.5,1358.4 471.1,1368.9 460.6,1358.4 453.9,1365.1 447.3,1358.4 432.9,1372.8 
		418.5,1358.4 409.9,1367 401.3,1358.4 394.4,1365.3 403.4,1374.2 392.3,1385.3 422.1,1415.1 433.2,1404 441.6,1412.5 445.7,1408.4 
		451.3,1414 458,1407.3 464.6,1414 475.5,1403.1 495.1,1422.8 446.8,1471.1 454.7,1479 392.2,1541.6 458.6,1608 488.9,1608 
		553.1,1608 600,1608 600,1561.1 600,1489.3 600,1463.4 	"/>
	<polygon points="495,1358.4 495,1358.4 495,1358.4 	"/>
</g>
<path style="opacity:0.2;" d="M600,889.4v-77.2l-57.1-57.1v40.5l-24,0c-18.8,0-22.4,8.9-22.4,22v28.9h44.8l-5.8,45.3h-39V1008h6.6
	l0,0h97.1V889.3L600,889.4z"/>
<path style="opacity:0.2;" d="M600,61.1L600,61.1l0-71.8v-12.4L487.3-135.8l-29.9,29.9l2.8,2.8l-10.5,10.5L498-44.3l-89.9,89.9
	l62.4,62.4h18.5l0,0H600L600,61.1C600,61.2,600,61.1,600,61.1z"/>
<g style="opacity:0.2;">
	<path d="M600,311.5L537,248.4l0,0l-8.8,8.8l-79.3-79.3l-3.6,3.6l13.6,13.6l7.1,20.2l-3.4,3.4l26.9,26.9l-9.7,9.7l-30.9-30.9
		l-32.4,32.4l-9.5-9.5l-14,14l-6.9-6.9l-22.9,22.9l26,26l-6,6L482,408h6.9l0,0H600v-46.3c0-0.2,0-0.4,0-0.6V311.5z"/>
	<polygon points="386.3,327.4 384.3,325.4 375.2,334.5 448.7,408 478.8,408 392.2,321.5 	"/>
</g>
<g>
	<path style="fill:#FDFDFD;" d="M406.9,247.2h-41.1c-2,0-3.7,1.7-3.7,3.7v23.8c0,2,1.6,3.7,3.7,3.7h23.3L406.9,247.2L406.9,247.2z"
		/>
	<path style="fill:#FDFDFD;" d="M391.2,320.6l-10.6-6.1c-1.9-1.1-3.7-0.2-4,2l-1.8,15.9c-0.3,2.2,1,3,2.9,1.8l13.7-9.3
		C393.2,323.7,393.2,321.7,391.2,320.6L391.2,320.6z"/>
	<path style="fill:#FDFDFD;" d="M449.3,229c1.1-1.9,0.4-4.4-1.5-5.6l-10.6-6.1c-1.9-1.1-4.4-0.4-5.6,1.5l-16.2,28.3l-17.9,31.2
		l-14.9,26c-1.1,1.9-0.4,4.4,1.5,5.5l10.6,6.1c1.9,1.1,4.4,0.4,5.6-1.5l20.8-36.1l13.4-23.4L449.3,229L449.3,229z"/>
	<path style="fill:#FDFDFD;" d="M447.3,247.2l-17.9,31.2H478c-3.5-7-8.2-16.9-14.5-31.2H447.3L447.3,247.2z"/>
	<path style="fill:#FDFDFD;" d="M506.8,278.7c-0.1-0.1-0.1-0.2-0.2-0.4c-1-1.8-3.4-6.6-6.7-12.7c0-0.1-0.1-0.2-0.1-0.3
		c-0.3-0.5-0.5-0.9-0.8-1.4c-0.2-0.3-0.4-0.7-0.6-1.1c-0.2-0.3-0.3-0.6-0.5-0.9c-0.3-0.5-0.6-1.1-0.9-1.7c-0.1-0.2-0.2-0.3-0.3-0.5
		c-0.3-0.6-0.7-1.3-1-1.9c-0.1-0.2-0.2-0.4-0.3-0.6c-7.5-14.1-16.8-31.5-22.6-40.6c-10.1-16-23.6-42.6-27.4-40.8
		c-5.3,2.6,11.1,36.5,16.5,49.2c5.4,12.7,26.5,61.4,30.8,63.6c4.2,2.1,5.9,0.9,8.7-0.2C504.3,287.4,509.4,283.5,506.8,278.7
		L506.8,278.7z"/>
	<path style="fill:#FDFDFD;" d="M518.9,303.9l-5-9.7c-1.1-2.2-3.8-3.1-6-2l-6.1,3.1c-2.1,1.1-2.8,3.7-1.5,5.8l6.4,10.1
		c1.3,2.1,4.1,2.8,6.2,1.5l4.3-2.6C519.2,308.9,520,306,518.9,303.9L518.9,303.9z"/>
	<path style="fill:#FDFDFD;" d="M517.3,317.9c-1.6,1.5-5.4,4.8-0.8,11.2c4.6,6.4,14.7,6.7,16.1,11
		C532.6,340.1,535.8,307.4,517.3,317.9L517.3,317.9z"/>
	<path style="fill:#FDFDFD;" d="M537.9,274.7v-23.8c0-2-1.6-3.7-3.7-3.7h-35.7c4.2,7.9,8.1,15.3,10.8,20.5c1.9,3.6,3.4,6.5,3.9,7.5
		c0.6,1,0.9,2.1,1.2,3.1h19.7C536.3,278.3,537.9,276.7,537.9,274.7L537.9,274.7L537.9,274.7z"/>
</g>
<g>
	<path style="fill:#FFFFFF;" d="M501.1-36.2c-0.3-23.7,19.3-35.2,20.2-35.7c-11-16.1-28.2-18.3-34.3-18.5
		c-14.6-1.5-28.5,8.6-35.9,8.6c-7.4,0-18.8-8.3-30.9-8.1c-15.9,0.3-30.6,9.3-38.8,23.5c-16.5,28.7-4.1,71.2,12,94.4
		c7.9,11.4,17.3,24.2,29.6,23.7c11.9-0.5,16.4-7.7,30.7-7.7c14.3,0,18.4,7.6,31,7.4c12.8-0.2,20.9-11.6,28.7-23.1
		c9-13.2,12.7-26,12.9-26.7C526.1,1.5,501.4-7.9,501.1-36.2"/>
	<path style="fill:#FFFFFF;" d="M477.6-105.8c6.6-7.9,11-19,9.7-29.9c-9.4,0.4-20.8,6.3-27.6,14.2c-6.1,7-11.4,18.2-9.9,29
		C460.3-91.7,471-97.9,477.6-105.8"/>
</g>
<polygon style="opacity:0.2;" points="600,590 600,554.7 533.2,488.4 526.6,491.5 398.1,488.4 367.9,494 367.9,613.3 364.6,625.5 
	447.6,708 489.5,708 489.5,708 600.6,708 600.6,589.3 "/>
<path style="fill:#FFFFFF;" d="M517.1,482.5H382.9c-13.9,0-25.2,11.3-25.2,25.2v100.6c0,13.9,11.3,25.2,25.2,25.2h134.1
	c13.9,0,25.2-11.3,25.2-25.2V507.7C542.2,493.8,531,482.6,517.1,482.5L517.1,482.5z M517.1,499.3c1,0,1.9,0.2,2.7,0.5L450,555.6
	l-69.8-55.8c0.9-0.3,1.8-0.5,2.7-0.5H517.1L517.1,499.3z M517.1,616.7H382.9c-4.6,0-8.4-3.8-8.4-8.4v-91.5l70.2,56.2
	c1.5,1.2,3.4,1.8,5.2,1.8s3.7-0.6,5.2-1.8l70.2-56.2v91.5C525.5,612.9,521.7,616.7,517.1,616.7L517.1,616.7z"/>
<g>
	<polygon style="opacity:0.2;" points="600,1189.4 600,1178.4 537.9,1116.3 537.9,1116.3 537.7,1116.5 504.9,1083.7 499.4,1089.2 
		499.4,1125.1 458.1,1083.7 452.6,1085.1 412.5,1087.7 394,1090.6 384.7,1105.3 390.2,1136.6 415.4,1149.2 416,1152.1 420.4,1172.1 
		415.4,1173.8 396.7,1176.8 385,1180.9 371.5,1200.2 378.4,1209.8 368.6,1219.6 457,1308 489,1308 489,1308 600.1,1308 
		600.1,1189.3 	"/>
	<g>
		<path style="fill:#FFFFFF;" d="M458.1,1083.7h-46c-20.6,0-40,15.6-40,33.7c0,18.5,14.1,33.4,35,33.4l4.2-0.1
			c-1.4,2.6-2.3,5.5-2.3,8.6c0,5.1,2.8,9.3,6.3,12.7l-8,0.1c-25.5,0-45.2,16.3-45.2,33.1c0,16.6,21.6,27,47.1,27
			c29.1,0,45.2-16.5,45.2-33.1c0-13.3-3.9-21.3-16.1-29.9c-4.1-3-12.1-10.1-12.1-14.3c0-4.9,1.4-7.4,8.8-13.2c7.6-5.9,13-14.3,13-24
			c0-11.6-5.1-22.9-14.8-26.6h14.6L458.1,1083.7L458.1,1083.7z M442,1196.3c0.4,1.5,0.6,3.1,0.6,4.7c0,13.4-8.6,23.9-33.5,23.9
			c-17.6,0-30.4-11.2-30.4-24.6c0-13.1,15.8-24.1,33.5-23.9c4.1,0.1,8,0.7,11.5,1.8C433.2,1184.9,440.1,1188.7,442,1196.3z
			 M413.7,1146.2c-11.9-0.3-23.1-13.3-25.2-28.8c-2-15.6,5.9-27.5,17.7-27.1s23.1,12.8,25.1,28.4
			C433.5,1134.2,425.6,1146.5,413.7,1146.2z"/>
		<polygon style="fill:#FFFFFF;" points="504.9,1116.3 504.9,1083.7 493.9,1083.7 493.9,1116.3 461,1116.3 461,1127.3 493.9,1127.3 
			493.9,1160.7 504.9,1160.7 504.9,1127.3 537.9,1127.3 537.9,1116.3 		"/>
	</g>
</g>
<polygon style="fill:#FFFFFF;" points="379.3,1397.1 392.2,1541.6 450,1557.6 507.8,1541.6 520.7,1397.1 "/>
<polygon style="fill:#F16529;" points="492.8,1444.4 450,1444.4 425,1444.4 426.6,1462.5 450,1462.5 491.2,1462.5 486.3,1516.9 
	450,1527 450,1527 413.7,1516.9 411.2,1488.5 428.9,1488.5 430.2,1503.2 450,1508.5 450,1508.5 450,1508.5 469.8,1503.2 
	471.8,1480.2 450,1480.2 450,1480.2 410.4,1480.2 405.6,1426.7 450,1426.7 494.4,1426.7 "/>
<polygon style="fill:#FFFFFF;" points="401.3,1376.3 409.5,1376.3 409.5,1385.3 418.5,1385.3 418.5,1358.4 409.5,1358.4 
	409.5,1367.3 401.3,1367.3 401.3,1358.4 392.3,1358.4 392.3,1385.3 401.3,1385.3 "/>
<polygon style="fill:#FFFFFF;" points="430.3,1385.3 439.3,1385.3 439.3,1367.3 447.3,1367.3 447.3,1358.4 422.4,1358.4 
	422.4,1367.3 430.3,1367.3 "/>
<polygon style="fill:#FFFFFF;" points="460,1372 466.2,1381.6 466.4,1381.6 472.6,1372 472.6,1385.3 481.5,1385.3 481.5,1358.4 
	472.1,1358.4 466.4,1367.9 460.6,1358.4 451.2,1358.4 451.2,1385.3 460,1385.3 "/>
<polygon style="fill:#FFFFFF;" points="507.7,1376.4 495,1376.4 495,1358.4 486,1358.4 486,1385.3 507.7,1385.3 "/>
<path style="fill:#FFFFFF;" d="M530,1670.1H370c-4.4,0-7.9,3.6-7.9,7.9V1838c0,4.4,3.6,7.9,7.9,7.9H530c4.4,0,7.9-3.6,7.9-7.9V1678
	C537.9,1673.7,534.3,1670.1,530,1670.1z M450,1727.3c16.9,0,30.7,13.7,30.7,30.7s-13.7,30.7-30.7,30.7s-30.7-13.7-30.7-30.7
	C419.3,1741.1,433.1,1727.3,450,1727.3z M515.9,1823.9H384.1V1747h14.5c-0.8,3.6-1.2,7.2-1.2,11c0,29,23.6,52.6,52.6,52.6
	c29,0,52.6-23.6,52.6-52.6c0-3.8-0.4-7.4-1.2-11h14.5V1823.9L515.9,1823.9z M515.9,1725h-33v-33h33V1725z"/>
<g>
	<rect x="364.3" y="2028.6" style="fill:#FFFFFF;" width="37.7" height="113.4"/>
	<path style="fill:#FFFFFF;" d="M383.2,2013.2h-0.3c-12.6,0-20.8-8.7-20.8-19.6c0-11.1,8.4-19.6,21.3-19.6
		c12.9,0,20.8,8.5,21.1,19.6C404.5,2004.4,396.3,2013.2,383.2,2013.2z M537.9,2142h-37.7v-60.7c0-15.2-5.5-25.6-19.1-25.6
		c-10.4,0-16.6,7-19.3,13.8c-1,2.4-1.2,5.8-1.2,9.2v63.3h-37.7c0,0,0.5-102.7,0-113.4h37.7v16c5-7.7,14-18.7,34-18.7
		c24.8,0,43.4,16.2,43.4,51L537.9,2142L537.9,2142L537.9,2142z"/>
</g>
<g>
	<path style="fill:#FFFFFF;" d="M457.8,2338c1.3-0.8,2.5-1.7,3.6-2.8c3.1-2.9,5.5-6.7,6.4-10.8c1.7-6.2-0.3-11.5-4.4-14.4
		c-2.2-1.6-4.9-2.5-8-2.5h-18.1l-0.6,2.5l-7.3,31.4h17.3C450.6,2341.3,454.5,2340.1,457.8,2338L457.8,2338z M447.1,2319.7h8.4
		c0.4,0,0.7,0.1,0.8,0.1c0,0.2,0,0.6-0.2,1.3l-0.1,0.2l0,0.2c-0.9,3.9-5.4,7.6-9.2,7.6h-1.9L447.1,2319.7L447.1,2319.7z"/>
	<path style="fill:#FFFFFF;" d="M527.7,2314.8c-3.5-4.4-8-8-13-10.8c-1.7-7.3-4.9-12.9-8.1-16.9c-8.6-10.7-22.6-17.1-37.6-17.1
		h-72.6l-2.1,9.5l-27.8,123.7l-3.3,14.9h27.3l-2.9,12.8l-3.3,14.9h61.9l2.1-9.6l6.9-31.4h16.5c32,0,57.1-19.7,63.8-50.2
		C539.8,2335.1,533.6,2322.2,527.7,2314.8L527.7,2314.8z M393.1,2406h-14.8l27.8-123.7H469c11.6,0,24.4,5.3,30.7,16.4
		c2.2,3.8,3.5,8.4,3.8,13.6c0.2,3.7-0.1,7.7-1.1,12.1c-2.2,10-6.8,18.3-13,24.8c-9.5,10-23,15.5-37.9,15.7c-0.3,0-0.6,0-0.9,0h-26.3
		l-9,41L393.1,2406L393.1,2406z M523.5,2352.1c-5.6,25.6-26.7,40.6-51.9,40.6h-26.3l-9,41h-36.9l3.5-15.5H425l2.1-9.6l6.9-31.4h16.5
		c32,0,57.1-19.7,63.8-50.2c0.6-2.6,0.9-5,1.2-7.4C522.7,2326.5,526.8,2337.2,523.5,2352.1L523.5,2352.1z"/>
</g>
<path style="fill:#FFFFFF;" d="M455.5,2540.8c-64,0-96.2,45.9-96.2,84.1c0,23.2,8.8,43.8,27.6,51.4c3.1,1.3,5.8,0,6.7-3.4
	c0.6-2.4,2.1-8.3,2.8-10.8c0.9-3.4,0.6-4.6-1.9-7.5c-5.4-6.4-8.9-14.7-8.9-26.4c0-34,25.5-64.5,66.3-64.5c36.2,0,56,22.1,56,51.6
	c0,38.8-17.2,71.6-42.7,71.6c-14.1,0-24.6-11.6-21.3-25.9c4-17.1,11.9-35.5,11.9-47.8c0-11-5.9-20.2-18.2-20.2
	c-14.4,0-26,14.9-26,34.9c0,12.7,4.3,21.3,4.3,21.3s-14.7,62.4-17.3,73.4c-5.1,21.8-0.8,48.5-0.4,51.2c0.2,1.6,2.3,2,3.2,0.8
	c1.3-1.7,18.5-22.9,24.3-44.1c1.6-6,9.5-37,9.5-37c4.7,8.9,18.4,16.8,32.9,16.8c43.3,0,72.7-39.5,72.7-92.3
	C540.7,2578,506.9,2540.8,455.5,2540.8L455.5,2540.8z"/>
<g id="playtube-Lozenge_1_">
	<path style="fill:#FFFFFF;" d="M541.9,3220.5c0,0-1.8-12.9-7.5-18.6c-7.1-7.5-15.1-7.5-18.8-7.9c-26.2-1.9-65.6-1.9-65.6-1.9H450
		c0,0-39.4,0-65.6,1.9c-3.7,0.4-11.7,0.5-18.8,7.9c-5.6,5.7-7.5,18.6-7.5,18.6s-1.9,15.2-1.9,30.3v14.2c0,15.2,1.9,30.3,1.9,30.3
		s1.8,12.9,7.5,18.6c7.1,7.5,16.5,7.2,20.7,8c15,1.4,63.8,1.9,63.8,1.9s39.4-0.1,65.6-2c3.7-0.4,11.7-0.5,18.8-7.9
		c5.6-5.7,7.5-18.6,7.5-18.6s1.9-15.2,1.9-30.3v-14.2C543.7,3235.7,541.9,3220.5,541.9,3220.5L541.9,3220.5z M430.6,3282.3l0-52.7
		l50.7,26.4L430.6,3282.3L430.6,3282.3z"/>
</g>
<path style="opacity:0.2;" d="M600,4561.2C600,4561.2,600,4561.2,600,4561.2L600,4561.2v-71.9v-5.7l-101.8-101.8l-9.2,9.2l-9.2-9.2
	l-7.8,7.8l6.1,6.1l-4.4,4.4l-15.7-15.7l-2.9,2.9l-23-23l-13.2,13.2l-13.2-13.2l-7.8,7.8l13.2,13.2l-4.3,4.3l10.5,10.5l-7.1,7.1
	l6.9,6.9l-7.4,7.4l4.1,4.1l-5.9,5.9l35.4,35.4h-56.2v67.2h16.8l-23.6,9l65,65h108c0.2,0,0.3,0,0.5,0H600V4561.2z"/>
<polygon style="opacity:0.2;" points="600,4189.7 600,4163.4 529.7,4092.5 517.4,4124 505.4,4137.8 488.1,4107.6 463.3,4125.4 
	491.4,4153.8 456.5,4193.7 450.6,4196.7 415.8,4107.6 370.8,4134.9 443.7,4208.5 429.9,4224.3 512.7,4308 519.2,4308 519,4308.2 
	600.1,4308.2 600.1,4189.6 "/>
<path style="opacity:0.2;" d="M544.5,3779.8c-3.1,9.6-9.6,17.6-18,22.7c8.3-1,16.2-3.2,23.6-6.5c-5.5,8.2-12.5,15.5-20.5,21.2
	c0.1,1.8,0.1,3.5,0.1,5.3c0,54.2-41.3,116.7-116.7,116.7c-23.2,0-44.7-6.8-62.9-18.4l87.1,87.2h51.8h64.2H600v-46.9v-71.8v-54
	L544.5,3779.8z"/>
<path style="opacity:0.2;" d="M494.1,3529.8l-19.4,19.4l-64-64l-19.3,4.3l-29.2,14.2l38.1,38l-5.8-0.6l-8.9-1.4l-23.4,23.9l41,40.9
	l-32.4,32.4l71.2,71.2h111.2c0.1,0,0.2,0,0.3,0H600v-46.9v-21.8v-3.6L494.1,3529.8z"/>
<g>
	<path style="fill:#FFFFFF;" d="M387.3,3596.8c-12.9,0-23.4,10.5-23.4,23.4c0,12.9,10.5,23.4,23.4,23.4c12.9,0,23.4-10.5,23.4-23.4
		C410.7,3607.3,400.2,3596.8,387.3,3596.8L387.3,3596.8z"/>
	<path style="fill:#FFFFFF;" d="M362.1,3529.7v33.8c22,0,42.6,8.6,58.1,24.2c15.5,15.6,24.1,36.4,24.1,58.5h33.8
		C478.1,3582,426.1,3529.7,362.1,3529.7L362.1,3529.7z"/>
	<path style="fill:#FFFFFF;" d="M362.2,3469.8v33.8c78.2,0,141.9,64,141.9,142.6h33.8C537.9,3548.9,459.1,3469.8,362.2,3469.8
		L362.2,3469.8z"/>
</g>
<path style="fill:#FFFFFF;" d="M550,3796c-7.4,3.3-15.3,5.5-23.6,6.5c8.5-5.1,15-13.1,18-22.7c-7.9,4.7-16.7,8.1-26.1,10
	c-7.5-8-18.1-13-30-13c-22.7,0-41,18.4-41,41c0,3.2,0.4,6.3,1.1,9.4c-34.1-1.7-64.3-18-84.6-42.9c-3.5,6.1-5.6,13.1-5.6,20.6
	c0,14.2,7.2,26.8,18.3,34.2c-6.7-0.2-13.1-2.1-18.6-5.1c0,0.2,0,0.3,0,0.5c0,19.9,14.1,36.5,32.9,40.2c-3.4,0.9-7.1,1.4-10.8,1.4
	c-2.6,0-5.2-0.3-7.7-0.7c5.2,16.3,20.4,28.2,38.3,28.5c-14,11-31.7,17.6-51,17.6c-3.3,0-6.6-0.2-9.8-0.6
	c18.2,11.6,39.7,18.4,62.9,18.4c75.5,0,116.7-62.5,116.7-116.7c0-1.8,0-3.5-0.1-5.3C537.6,3811.4,544.5,3804.2,550,3796L550,3796z"
	/>
<path style="fill:#FFFFFF;" d="M512.9,4087.1c17,0.4,25.5,10.1,25.6,29c0,1.2,0,2.5-0.1,3.9c-0.7,16-12.7,37.8-35.8,65.4
	c-23.9,28.9-44.1,43.4-60.7,43.5c-10.3,0-18.9-8.9-25.8-26.6l-7.2-24.3l-7.2-24.3c-5.3-17.6-10.9-26.3-16.9-26.3
	c-1.3,0-5.9,2.6-13.7,7.7l-8.3-9.9l13-10.8l12.7-10.7c11.4-9.1,20.1-14.1,26-14.8c0.8-0.1,1.6-0.1,2.4-0.1
	c12.2,0,19.9,8.8,22.8,26.3c1.7,10,3.1,18.2,4.2,24.4c1.1,6.3,2,10.6,2.7,13.1c4,16.6,8.4,25,13.1,25c3.6,0,9.1-5.4,16.6-16.2
	c7.3-11.1,11.2-19.4,11.7-24.7c0.2-1.1,0.2-2.1,0.2-3c0-7.3-4-10.9-12-10.9c-4,0-8.3,0.9-13,2.5c8.3-25.5,24.2-38.2,47.6-38.3
	L512.9,4087.1L512.9,4087.1z"/>
<g>
	<path style="fill:#FFFFFF;" d="M518.4,4457.6c-7.3-7.3-68.5-7.4-68.5-7.4c0,0-61.2,0.1-68.5,7.3c-7.3,7.3-7.3,43.1-7.3,43.4
		c0,0.3,0,36.1,7.3,43.4c7.3,7.2,68.5,7.4,68.5,7.4s61.2-0.2,68.5-7.4c7.3-7.3,7.4-43.4,7.4-43.4
		C525.8,4500.8,525.7,4464.9,518.4,4457.6L518.4,4457.6z M419.3,4478.8H409v52.1h-10v-52.1h-10.3v-8.9h30.6L419.3,4478.8
		L419.3,4478.8z M448.5,4530.9h-8.8v-4.9c-1.6,1.8-3.3,3.2-5.1,4.2c-1.8,1-3.5,1.4-5.1,1.4c-2.1,0-3.6-0.7-4.6-2
		c-1-1.3-1.5-3.3-1.5-6v-37.6h8.8v34.5c0,1.1,0.2,1.8,0.5,2.3c0.4,0.5,1,0.7,1.8,0.7c0.7,0,1.5-0.3,2.5-1c1-0.6,1.9-1.4,2.7-2.4
		v-34.2h8.8L448.5,4530.9L448.5,4530.9z M480.6,4521.6c0,3.2-0.7,5.6-2.1,7.3c-1.4,1.7-3.4,2.5-6,2.5c-1.7,0-3.3-0.3-4.6-1
		c-1.4-0.7-2.6-1.7-3.8-3v3.4h-8.9v-61h8.9v19.6c1.2-1.4,2.5-2.4,3.8-3.1c1.4-0.7,2.7-1.1,4.1-1.1c2.8,0,4.9,1,6.4,2.9
		c1.5,1.9,2.2,4.7,2.2,8.4V4521.6L480.6,4521.6z M511.2,4509.5h-16.9v8.5c0,2.4,0.3,4,0.9,4.9c0.6,0.9,1.6,1.4,3,1.4
		c1.5,0,2.5-0.4,3.1-1.2c0.6-0.8,0.9-2.5,0.9-5.1v-2h9.1v2.3c0,4.6-1.1,8.1-3.3,10.4c-2.2,2.3-5.5,3.5-9.9,3.5c-4,0-7.1-1.2-9.4-3.7
		c-2.3-2.5-3.4-5.9-3.4-10.2V4498c0-3.9,1.3-7.1,3.8-9.5c2.5-2.5,5.7-3.7,9.7-3.7c4,0,7.2,1.1,9.3,3.4c2.2,2.3,3.3,5.5,3.3,9.8
		L511.2,4509.5L511.2,4509.5z"/>
	<path style="fill:#FFFFFF;" d="M498.3,4492.7c-1.4,0-2.4,0.4-3,1.2c-0.6,0.8-0.9,2.1-0.9,4v4.5h7.8v-4.5c0-1.9-0.3-3.2-0.9-4
		C500.6,4493.1,499.6,4492.7,498.3,4492.7L498.3,4492.7z"/>
	<path style="fill:#FFFFFF;" d="M467.8,4492.5c-0.6,0-1.3,0.1-1.9,0.4c-0.6,0.3-1.2,0.8-1.8,1.4v28c0.7,0.7,1.4,1.3,2.1,1.6
		c0.7,0.3,1.4,0.5,2.1,0.5c1.1,0,1.9-0.3,2.4-1c0.5-0.6,0.8-1.6,0.8-3.1v-23.2c0-1.5-0.3-2.7-0.9-3.5
		C469.9,4492.9,469,4492.5,467.8,4492.5L467.8,4492.5z"/>
	<path style="fill:#FFFFFF;" d="M476.8,4432.1c1.9,0,3.8-0.5,5.8-1.6c2-1,3.9-2.6,5.7-4.6v5.5h10v-49.6h-10v37.6
		c-0.9,1.1-1.9,2-3.1,2.7c-1.1,0.7-2,1-2.8,1c-0.9,0-1.6-0.3-2-0.8c-0.4-0.5-0.6-1.4-0.6-2.5v-38h-9.9v41.4c0,3,0.6,5.2,1.7,6.6
		C472.7,4431.4,474.5,4432.1,476.8,4432.1L476.8,4432.1z"/>
	<path style="fill:#FFFFFF;" d="M447.2,4432.7c4.5,0,8.1-1.2,10.7-3.6c2.6-2.4,3.9-5.7,3.9-10v-25.6c0-3.8-1.3-6.9-3.9-9.3
		c-2.6-2.4-6-3.6-10.1-3.6c-4.5,0-8.1,1.1-10.8,3.4c-2.7,2.3-4,5.3-4,9.2v25.7c0,4.2,1.3,7.6,3.9,10.1
		C439.4,4431.4,442.9,4432.7,447.2,4432.7L447.2,4432.7z M443.1,4392.8c0-1.1,0.4-2,1.1-2.6c0.8-0.7,1.7-1,3-1c1.3,0,2.4,0.3,3.2,1
		c0.8,0.7,1.2,1.5,1.2,2.6v27c0,1.3-0.4,2.4-1.2,3.1c-0.8,0.8-1.9,1.1-3.2,1.1c-1.3,0-2.3-0.4-3-1.1c-0.7-0.8-1.1-1.8-1.1-3.2
		V4392.8L443.1,4392.8z"/>
	<polygon style="fill:#FFFFFF;" points="407.8,4431.4 419,4431.4 419,4403.5 432,4364.2 420.6,4364.2 413.7,4391.1 413,4391.1 
		405.7,4364.2 394.4,4364.2 407.8,4404.8 	"/>
</g>
<polygon style="fill:#4D4E4E;" points="109.5,1367.3 101.3,1367.3 101.3,1358.4 92.3,1358.4 92.3,1385.3 101.3,1385.3 101.3,1376.3 
	109.5,1376.3 109.5,1385.3 118.5,1385.3 118.5,1358.4 109.5,1358.4 "/>
<polygon style="fill:#4D4E4E;" points="122.4,1367.3 130.3,1367.3 130.3,1385.3 139.3,1385.3 139.3,1367.3 147.3,1367.3 
	147.3,1358.4 122.4,1358.4 "/>
<polygon style="fill:#4D4E4E;" points="166.4,1367.9 160.6,1358.4 151.2,1358.4 151.2,1385.3 160,1385.3 160,1372 166.2,1381.6 
	166.4,1381.6 172.6,1372 172.6,1385.3 181.5,1385.3 181.5,1358.4 172.1,1358.4 "/>
<polygon style="fill:#4D4E4E;" points="195,1376.4 195,1358.4 186,1358.4 186,1385.3 207.7,1385.3 207.7,1376.4 "/>
<path style="fill:#4D4E4E;" d="M79.3,1397.1l12.9,144.4l57.8,16l57.8-16l12.9-144.4H79.3z M192.8,1444.4H150h-25l1.6,18.1H150h41.2
	l-4.9,54.4L150,1527l0,0l-36.3-10.1l-2.5-28.5h17.8l1.3,14.8l19.7,5.3l0,0l19.7-5.3l2.1-23H150h-39.6l-4.8-53.6H150h44.4
	L192.8,1444.4z"/>
</svg>
