<?xml version="1.0" encoding="utf-8"?>
<!-- Generator: Adobe Illustrator 18.0.0, SVG Export Plug-In . SVG Version: 6.00 Build 0)  -->
<!DOCTYPE svg PUBLIC "-//W3C//DTD SVG 1.1//EN" "http://www.w3.org/Graphics/SVG/1.1/DTD/svg11.dtd">
<svg version="1.1" id="Layer_1" xmlns="http://www.w3.org/2000/svg" xmlns:xlink="http://www.w3.org/1999/xlink" x="0px" y="0px"
	 viewBox="0 0 164.8 140" enable-background="new 0 0 164.8 140" xml:space="preserve">
<g display="none">
	<rect x="295.7" y="81.7" display="inline" fill="#EB5757" width="59.7" height="59.7"/>
	<rect x="363" y="81.7" display="inline" fill="#54CAD7" width="59.7" height="59.7"/>
	<rect x="430.4" y="81.7" display="inline" fill="#4D4D4D" width="59.7" height="59.7"/>
	<rect x="295.7" y="154.6" display="inline" fill="#F48732" width="59.7" height="59.7"/>
	<rect x="363" y="154.6" display="inline" fill="#BEF35B" width="59.7" height="59.7"/>
	<rect x="430.4" y="154.6" display="inline" fill="#8B71FB" width="59.7" height="59.7"/>
</g>
<rect x="-3.3" y="-3.6" display="none" fill="#4D4D4D" width="163.5" height="154.1"/>
<g>
	<g>
		<g>
			<path fill="#4D4D4D" d="M515.8-2c0,0,6,7.5,11.4,13.8c5.4,6.3,12.9,12,12.9,12s2.9-0.8,7.9-3.1c5-2.3,5.5-3.4,5.5-3.4
				s-1.5-6-5.3-6.2c-0.6-2.4-1.7-5.3-4.7-5.4c-0.3-2.6-2.3-7.9-6.1-8.7c0.2-2.9-1.4-5.4-1.4-5.4L515.8-2z"/>
			<path fill="#4D4D4D" d="M542.4-9.5l3.4,7.7c0,0-0.9,1-2.2,1.3c-1.3,0.3-4.3-3.1-5.1-4.9c-0.8-1.7-1.6-4-1.6-4L542.4-9.5z"/>
			<g>
				<path fill="#4D4D4D" d="M496-18.6c0,0-0.2,1.1,0.2,3.4c-2.2,1.9-3.1,5-2,7.9c1.1,2.9,3.9,4.6,6.8,4.5c1.2,1.9,2.1,2.6,2.1,2.6
					l6.6-0.9l-4.2-10.7l-4.2-10.7L496-18.6z"/>
				<path fill="#8B71FB" d="M540.2-50.2c-7.2,11.8-21.7,18.5-28.4,21.5c-6.7,3-8.7,3.1-10.1,4.9c-1.4,1.9,2.8,12.5,2.8,12.5
					s4.1,10.7,6.4,11.1c2.3,0.4,3.9-0.9,10.8-3.3c6.9-2.4,22.2-7.3,35.4-3.5c13.2,3.8,20,6.2,20,6.2l-13.2-33.8l-13.2-33.8
					C550.7-68.3,547.3-61.9,540.2-50.2z"/>
				<path fill="#6656C5" d="M534-23.4c-11,4.3-20.2,10.6-27,17.9c1.3,2.6,2.8,5.1,3.9,5.3c2.3,0.4,3.9-0.9,10.8-3.3
					c6.9-2.4,22.2-7.3,35.4-3.5c13.2,3.8,20,6.2,20,6.2l-10.9-27.8C556.2-29.3,545-27.7,534-23.4z"/>
			</g>
			<g>
				<path fill="#4D4D4D" d="M583.2-9c0.7,3.9-0.3,6.7-3.5,8l0,0c-3.2,1.2-5.9,0-8-3.5c0,0-2.9-2.9-12.8-28.2
					c-9.9-25.2-9.7-29.3-9.7-29.3c-0.2-4,0.3-6.7,3.5-8l0,0c3.2-1.2,5.5,0,8,3.5c0,0,3.7,4.9,12.8,28.2C582.6-15.1,583.2-9,583.2-9z
					"/>
				<path fill="#F1F1F3" d="M572.4-37.9c6.7,17.1,9,32.1,9,32.1s-8.5-12.6-15.2-29.7c-6.7-17.1-9-32.1-9-32.1S565.7-54.9,572.4-37.9
					z"/>
			</g>
		</g>
		<g>
			<path fill="#4D4D4D" d="M607.3-48.4c0.2,0.6-0.1,1.3-0.7,1.5l-20.5,7c-0.6,0.2-1.3-0.1-1.5-0.7l0,0c-0.2-0.6,0.1-1.3,0.7-1.5
				l20.5-7C606.4-49.4,607.1-49,607.3-48.4L607.3-48.4z"/>
			<g>
				<path fill="#4D4D4D" d="M592.1-72.2c0.6,0.3,0.8,1,0.5,1.6L583-51.2c-0.3,0.6-1,0.8-1.6,0.5l0,0c-0.6-0.3-0.8-1-0.5-1.6
					l9.6-19.5C590.8-72.3,591.5-72.5,592.1-72.2L592.1-72.2z"/>
				<path fill="#4D4D4D" d="M609.8-20.3c0.3-0.6,0-1.3-0.5-1.6l-19.5-9.6c-0.6-0.3-1.3,0-1.6,0.5l0,0c-0.3,0.6,0,1.3,0.5,1.6
					l19.5,9.6C608.8-19.5,609.5-19.7,609.8-20.3L609.8-20.3z"/>
			</g>
		</g>
	</g>
	<g>
		<g>
			<polygon fill="#54CAD7" points="709.8,-22.7 709.8,-17 617.8,-17 617.8,-109.1 623.5,-109.1 623.5,-22.7 			"/>
			<polygon fill="#4D4D4D" points="658.9,-77.1 682.4,-71.2 690.6,-84.8 697.9,-80.4 698.3,-103.3 678.3,-92.2 685.6,-87.8 
				679.7,-77.9 657.2,-83.5 633,-59.3 637.1,-55.2 			"/>
			<polygon fill="#54CAD7" points="652.3,-28.5 663.8,-28.5 663.8,-70 660.7,-70.7 652.3,-62.3 			"/>
			<polygon fill="#54CAD7" points="635,-49.1 635,-28.5 646.5,-28.5 646.5,-56.6 637.1,-47.1 			"/>
			<polygon fill="#54CAD7" points="686.8,-67.4 686.8,-28.5 698.3,-28.5 698.3,-73.4 692.5,-76.9 			"/>
			<polygon fill="#54CAD7" points="681.1,-28.5 681.1,-65.7 669.5,-68.5 669.5,-28.5 			"/>
		</g>
	</g>
</g>
<g id="Responsivo_1_" display="none">
	<g display="inline">
		<g>
			<g>
				<path fill="#4D4D4D" stroke="#F1F1F3" stroke-width="6" stroke-miterlimit="10" d="M100.9,112.6h-1.3c0,0-7.7-2.2-7.7-23.8
					c0-6.4-34.1-6.3-34.1,0.6c0,20.8-7.9,23.2-7.9,23.2h-1.1c-1,0-1.7,0.4-1.7,1.3v0.9c0,1,0.8,1.3,1.7,1.3h52.1
					c1,0,3.4-0.3,3.4-1.3v-0.9C104.3,112.9,101.8,112.6,100.9,112.6z"/>
				<path fill="#4D4D4D" stroke="#F1F1F3" stroke-width="6" stroke-miterlimit="10" d="M135.3,4.9H14.1c-2.3,0-3.6,0.6-3.6,3v73.3
					v11.2c0,2.3,1.2,4.5,3.6,4.5h121.2c2.3,0,3.7-2.2,3.7-4.5V81.2V7.8C139,5.5,137.6,4.9,135.3,4.9z"/>
			</g>
		</g>
	</g>
	<g display="inline">
		<g>
			<g>
				<path fill="#4D4D4D" stroke="#F1F1F3" stroke-width="6" stroke-miterlimit="10" d="M154.7,130.4c0,2.6-2,4.8-4.5,4.8H103
					c-2.5,0-5.7-2.1-5.7-4.8V65.5c0-2.6,3.2-3.3,5.7-3.3h47.1c2.5,0,4.5,0.7,4.5,3.3V130.4z"/>
			</g>
		</g>
	</g>
	<g display="inline">
		<g>
			<g>
				<path fill="#4D4D4D" stroke="#F1F1F3" stroke-width="6" stroke-miterlimit="10" d="M119.9,131.1c0,2.1-2.8,4-5,4H90.6
					c-2.1,0-1.9-1.9-1.9-4V78.5c0-2.1-0.2-2.4,1.9-2.4H115c2.1,0,5,0.3,5,2.4V131.1z"/>
				<g>
					<path fill="#4D4D4D" stroke="#F1F1F3" stroke-width="6" stroke-miterlimit="10" d="M123.4,131.1c0,2.1-2.8,4-5,4H94.1
						c-2.1,0-1.9-1.9-1.9-4V78.5c0-2.1-0.2-2.4,1.9-2.4h24.4c2.1,0,5,0.3,5,2.4V131.1z"/>
				</g>
			</g>
		</g>
	</g>
	<g display="inline">
		<g>
			<g>
				<path fill="#4D4D4D" d="M100.9,112.6h-1.3c0,0-7.7-2.2-7.7-23.8c0-6.4-34.1-6.3-34.1,0.6c0,20.8-7.9,23.2-7.9,23.2h-1.1
					c-1,0-1.7,0.4-1.7,1.3v0.9c0,1,0.8,1.3,1.7,1.3h52.1c1,0,3.4-0.3,3.4-1.3v-0.9C104.3,112.9,101.8,112.6,100.9,112.6z"/>
				<path fill="#4D4D4D" d="M135.3,4.9H14.1c-2.3,0-3.6,0.6-3.6,3v73.3v11.2c0,2.3,1.2,4.5,3.6,4.5h121.2c2.3,0,3.7-2.2,3.7-4.5
					V81.2V7.8C139,5.5,137.6,4.9,135.3,4.9z"/>
				<rect x="15.7" y="10.1" fill="#F0F0F0" width="116.4" height="67.7"/>
				<path fill="#B1B1B1" d="M80,88.2c0,2.9-2.3,5.2-5.2,5.2l0,0c-2.9,0-5.2-2.3-5.2-5.2l0,0c0-2.9,2.3-5.2,5.2-5.2l0,0
					C77.6,83,80,85.4,80,88.2L80,88.2z"/>
			</g>
		</g>
		<g>
			<path fill="#FF4522" d="M62.6,20.6c0,1-2.3,1.6-3.4,1.6H37.4c-1.1,0-0.8-0.7-0.8-1.6v-3.4c0-1-0.3-1.9,0.8-1.9h21.8
				c1.1,0,3.4,0.9,3.4,1.9V20.6z"/>
			<path fill="#47DCE3" d="M114.7,42.6c0,1-2.7,2.2-3.8,2.2H37.4c-1.1,0-0.8-1.3-0.8-2.2V26.4c0-1-0.3-2.4,0.8-2.4h73.5
				c1.1,0,3.8,1.4,3.8,2.4V42.6z"/>
			<path fill="#979797" d="M59.1,68.2c0,2.1-0.7,6.1-1.9,6.1H37.4c-1.1,0-0.8-4-0.8-6.1V49c0-2.1-0.3-2.5,0.8-2.5h19.9
				c1.1,0,1.9,0.4,1.9,2.5V68.2z"/>
			<path fill="#979797" d="M85.2,68.2c0,2.1-0.5,6.1-1.7,6.1H63.7c-1.1,0-1-4-1-6.1V49c0-2.1-0.1-2.5,1-2.5h19.9
				c1.1,0,1.7,0.4,1.7,2.5V68.2z"/>
			<path fill="#979797" d="M114.7,68.2c0,2.1-2.7,6.1-3.8,6.1H91.1c-1.1,0-2.4-4-2.4-6.1V49c0-2.1,1.3-2.5,2.4-2.5h19.9
				c1.1,0,3.8,0.4,3.8,2.5V68.2z"/>
		</g>
	</g>
	<g display="inline">
		<g>
			<g>
				<path fill="#4D4D4D" d="M154.7,130.4c0,2.6-2,4.8-4.5,4.8H103c-2.5,0-5.7-2.1-5.7-4.8V65.5c0-2.6,3.2-3.3,5.7-3.3h47.1
					c2.5,0,4.5,0.7,4.5,3.3V130.4z"/>
				<rect x="104.3" y="65.7" fill="#F0F0F0" width="45.2" height="57.3"/>
				<circle fill="#B1B1B1" cx="126.7" cy="129.1" r="3.8"/>
			</g>
		</g>
		<g>
			<path fill="#FF4522" d="M125.1,74.3c0,0.7,0.7,1.7,0,1.7h-15c-0.8,0-2.4-1-2.4-1.7v-2.6c0-0.7,1.6-0.8,2.4-0.8h15
				c0.8,0,0,0.1,0,0.8V74.3z"/>
			<path fill="#47DCE3" d="M144.2,93.9c0,0.9-0.6,3-1.3,3h-32.9c-0.7,0-2.3-2.2-2.3-3V80.4c0-0.9,1.6-2.5,2.3-2.5h32.9
				c0.7,0,1.3,1.7,1.3,2.5V93.9z"/>
			<path fill="#979797" d="M125.1,116.8c0,1.7-0.4,2.7-1.2,2.7h-13.7c-0.8,0-2.5-1-2.5-2.7v-16c0-1.7,1.6-2.1,2.5-2.1h13.7
				c0.8,0,1.2,0.4,1.2,2.1V116.8z"/>
			<path fill="#979797" d="M144.2,116.1c0,1.7-0.6,3.4-1.3,3.4h-14.7c-0.7,0-1.3-1.7-1.3-3.4v-14.3c0-1.7,0.6-3.1,1.3-3.1h14.7
				c0.7,0,1.3,1.4,1.3,3.1V116.1z"/>
		</g>
	</g>
	<g display="inline">
		<g>
			<g>
				<path fill="#4D4D4D" d="M119.9,131.1c0,2.1-2.8,4-5,4H90.6c-2.1,0-1.9-1.9-1.9-4V78.5c0-2.1-0.2-2.4,1.9-2.4H115
					c2.1,0,5,0.3,5,2.4V131.1z"/>
				<g>
					<path fill="#4D4D4D" d="M123.4,131.1c0,2.1-2.8,4-5,4H94.1c-2.1,0-1.9-1.9-1.9-4V78.5c0-2.1-0.2-2.4,1.9-2.4h24.4
						c2.1,0,5,0.3,5,2.4V131.1z"/>
					<rect x="92.1" y="81.3" fill="#F0F0F0" width="27.8" height="46.9"/>
					<circle fill="#B1B1B1" cx="106.3" cy="130.6" r="2.3"/>
					<path fill="#B1B1B1" d="M111.2,79c0,0.3-0.2,0.5-0.5,0.5H99.6c-0.3,0-0.5-0.2-0.5-0.5v-0.7c0-0.3,0.2-0.5,0.5-0.5h11.1
						c0.3,0,0.5,0.2,0.5,0.5V79z"/>
				</g>
			</g>
		</g>
		<g>
			<path fill="#FF4522" d="M114.7,88.8c0,0.6-0.5,1.2-1.2,1.2H95c-0.6,0-1.2-0.5-1.2-1.2v-2.9c0-0.6,0.5-1.2,1.2-1.2h18.5
				c0.6,0,1.2,0.5,1.2,1.2V88.8z"/>
			<path fill="#47DCE3" d="M114.7,102.7c0,0.6-0.5,1.2-1.2,1.2H95c-0.6,0-1.2-0.5-1.2-1.2v-9.8c0-0.6,0.5-1.2,1.2-1.2h18.5
				c0.6,0,1.2,0.5,1.2,1.2V102.7z"/>
			<path fill="#979797" d="M116.5,112.4c0,0.6-1.2,1.9-1.9,1.9H94.7c-0.7,0-0.9-1.3-0.9-1.9v-5.8c0-0.6,0.2-1,0.9-1h19.9
				c0.7,0,1.9,0.3,1.9,1V112.4z"/>
			<path fill="#979797" d="M116.5,121.9c0,0.6-1.2,1.1-1.9,1.1H94.7c-0.7,0-0.9-0.5-0.9-1.1v-5.8c0-0.6,0.2-0.1,0.9-0.1h19.9
				c0.7,0,1.9-0.6,1.9,0.1V121.9z"/>
		</g>
	</g>
</g>
<g id="RS">
	<polygon fill="#F1F1F3" points="48.1,70.9 47.5,82.7 51.1,82.1 54.8,78 58.5,76.3 89.4,76.8 101.5,57.7 100.9,53.8 67.2,55.3 	"/>
	<polygon fill="#F48732" stroke="#F1F1F3" stroke-width="6" stroke-miterlimit="10" points="66.5,55.3 98.4,55.3 98.4,5.3 18.5,5.3 
		18.5,55.3 50.4,55.3 50.4,70.9 	"/>
	<polygon fill="#F48732" stroke="#F1F1F3" stroke-width="4" stroke-miterlimit="10" points="22.9,83.7 6.8,83.7 6.8,58.5 47.1,58.5 
		47.1,83.7 31,83.7 31,91.6 	"/>
	<line fill="none" stroke="#F1F1F3" stroke-width="2" stroke-miterlimit="10" x1="35.9" y1="22.5" x2="81" y2="22.5"/>
	<line fill="none" stroke="#F1F1F3" stroke-width="2" stroke-miterlimit="10" x1="15.3" y1="67.2" x2="39" y2="67.2"/>
	<line fill="none" stroke="#F1F1F3" stroke-width="2" stroke-miterlimit="10" x1="15.3" y1="74.8" x2="29.3" y2="74.8"/>
	<line fill="none" stroke="#F1F1F3" stroke-width="2" stroke-miterlimit="10" x1="35.9" y1="30.2" x2="65.1" y2="30.2"/>
	<line fill="none" stroke="#F1F1F3" stroke-width="2" stroke-miterlimit="10" x1="35.9" y1="38.1" x2="42.5" y2="38.1"/>
	<line fill="none" stroke="#F1F1F3" stroke-width="2" stroke-miterlimit="10" x1="51.1" y1="38.1" x2="73.7" y2="38.1"/>
	<g>
		<path fill="#F1F1F3" d="M156.2,87.8c2.5-3.7,3.2-8.7,1.5-12.8c-1.8-4.4-5.9-7-11-7l-19.5,0c0.7-4,1.6-9.6,1.5-10.8h0
			c-0.6-8.2-5.6-17.9-5.9-18.3c-1.5-2.8-6.1-5-10.6-5c-1,0-2,0.1-2.9,0.3c-7.3,1.6-9.1,6.7-9,9.4c0,0.5,0.2,8.4,0.3,11.7
			c-1.4,2.9-3.9,7.4-6.5,11.4c-2.7,4.4-4.6,6.9-5.7,8.1c-0.5-0.1-1-0.1-1.5-0.1h-30c-4.5,0-8.2,3.7-8.2,8.2v41.5l0,0.1
			c0.3,4.1,3.8,7.3,7.9,7.3h26.9c3,0,5.7-1.7,7-4.3c1.5,0.7,3.3,1.3,5.4,1.3h40.2c9.1,0,13.1-4.2,14.9-7.8c1.8-3.6,1.8-7.5,1.2-10.3
			c2.1-3.2,3.2-7.6,2-11.5C156,96.5,157.6,92.3,156.2,87.8z"/>
		<path fill="#F48732" d="M150.6,87.1c5.1-5,3.5-15.2-5.2-15.2l-23,0c0.9-4.9,2.2-12.9,2.1-13.7c-0.5-7.2-5.1-16-5.3-16.4
			c-0.8-1.6-5.1-3.7-9.4-2.8c-5.5,1.2-6.1,4.7-6,5.7c0,0,0.2,9.6,0.3,12.2c-2.6,5.8-11.7,21-14.5,22.2c-0.7-0.4-1.4-0.6-2.2-0.6
			H58.3c-2.5,0-4.5,2-4.5,4.5v40.1c0.2,2.2,2,3.9,4.2,3.9h26.1c2.3,0,4.2-1.9,4.2-4.2v-1.3c0,0,1-0.1,1.4,0.2
			c1.7,1.1,3.8,2.4,6.5,2.4h39c14.6,0,13-12.9,11.7-14.7c2.5-2.7,4-7.4,1.9-11.1C150.4,96.5,153.2,91.9,150.6,87.1L150.6,87.1z"/>
		<rect x="58.1" y="82.7" fill="#F48732" width="25.2" height="40.1"/>
		<path fill="#F1F1F3" d="M143.8,86.7l-0.2,1c6.7,1.9,3.1,9.6-1.7,10.1l-0.2,1c6.4,1.6,3.4,9.6-1.7,10.1l-0.2,1c5.3,0.9,4,9.8-4,9.8
			l-39.6,0c-2.8,0-5.3-3.2-7.4-3.2H87V85.8c2.2-1.4,5-3.2,6.5-4.5c2.9-2.5,14.7-21.6,14.7-24c0-2.4-0.2-12.7-0.2-12.7s2.3-3,7.5-0.8
			c0,0,4.4,8.2,4.8,14.7c0,0-2,13.4-3,17.6h27.4C151.5,76.1,150.2,85.7,143.8,86.7L143.8,86.7z"/>
		<path d="M143.8,86.7"/>
		<circle fill="#F1F1F3" cx="70.7" cy="118" r="3.4"/>
	</g>
</g>
<g id="Marketing" display="none">
	<g display="inline">
		<path fill="#4D4D4D" stroke="#F1F1F3" stroke-width="6" stroke-miterlimit="10" d="M31.3,104.8c0,0,6.1,7.7,11.6,14.2
			c5.5,6.4,13.2,12.3,13.2,12.3s3-0.8,8.1-3.2c5.1-2.4,5.6-3.5,5.6-3.5s-1.5-6.1-5.4-6.4c-0.6-2.4-1.8-5.5-4.8-5.6
			c-0.3-2.7-2.3-8.1-6.2-9c0.2-3-1.4-5.6-1.4-5.6L31.3,104.8z"/>
		<path fill="#4D4D4D" stroke="#F1F1F3" stroke-width="6" stroke-miterlimit="10" d="M58.5,97.1L62,105c0,0-0.9,1-2.3,1.3
			c-1.4,0.3-4.4-3.2-5.2-5c-0.8-1.8-1.6-4.1-1.6-4.1L58.5,97.1z"/>
		<path fill="#4D4D4D" stroke="#F1F1F3" stroke-width="6" stroke-miterlimit="10" d="M11,87.9c0,0-0.2,1.2,0.2,3.4
			c-2.2,1.9-3.1,5.2-2,8.1c1.1,2.9,4,4.7,7,4.6c1.3,1.9,2.2,2.7,2.2,2.7l6.7-0.9l-4.3-10.9L16.5,84L11,87.9z"/>
		<path fill="#8B71FB" stroke="#F1F1F3" stroke-width="6" stroke-miterlimit="10" d="M80.8,71.5"/>
		<g>
			<path fill="#4D4D4D" stroke="#F1F1F3" stroke-width="6" stroke-miterlimit="10" d="M94.4,106.3c1,0.4,2,0.1,2.7-0.2l0,0
				c3.2-1.3,4-4.4,3.2-8.4c0,0-0.7-6.3-10-30C81,43.9,77.3,38.8,77.3,38.8c-2.6-3.6-4.9-4.8-8.2-3.6l0,0c-0.8,0.3-1.4,0.6-1.9,1.2
				l-0.5,0.8c0,0-3,6-10.3,18.1c-7.3,12.1-22.2,19-29.1,22.1c-6.9,3-8.9,3.2-10.4,5.1c-1.5,1.9,2.9,12.9,2.9,12.9s4.2,11,6.6,11.4
				c2.4,0.4,4-0.9,11.1-3.3c7.1-2.5,22.8-7.5,36.4-3.6C87.5,103.8,94.4,106.3,94.4,106.3L94.4,106.3z"/>
		</g>
		<g>
			<path fill="#4D4D4D" d="M31.3,104.8c0,0,6.1,7.7,11.6,14.2c5.5,6.4,13.2,12.3,13.2,12.3s3-0.8,8.1-3.2c5.1-2.4,5.6-3.5,5.6-3.5
				s-1.5-6.1-5.4-6.4c-0.6-2.4-1.8-5.5-4.8-5.6c-0.3-2.7-2.3-8.1-6.2-9c0.2-3-1.4-5.6-1.4-5.6L31.3,104.8z"/>
			<path fill="#4D4D4D" d="M58.5,97.1L62,105c0,0-0.9,1-2.3,1.3c-1.4,0.3-4.4-3.2-5.2-5c-0.8-1.8-1.6-4.1-1.6-4.1L58.5,97.1z"/>
			<g>
				<path fill="#4D4D4D" d="M11,87.9c0,0-0.2,1.2,0.2,3.4c-2.2,1.9-3.1,5.2-2,8.1c1.1,2.9,4,4.7,7,4.6c1.3,1.9,2.2,2.7,2.2,2.7
					l6.7-0.9l-4.3-10.9L16.5,84L11,87.9z"/>
				<path fill="#8B71FB" d="M56.2,55.5c-7.3,12-22.2,19-29.1,22c-6.9,3-8.9,3.2-10.4,5.1c-1.5,1.9,2.9,12.8,2.9,12.8
					s4.2,11,6.5,11.4c2.4,0.4,4-0.9,11.1-3.3c7.1-2.4,22.7-7.5,36.3-3.6c13.5,3.9,20.5,6.3,20.5,6.3L80.5,71.5L66.9,36.9
					C66.9,36.9,63.5,43.5,56.2,55.5z"/>
				<path fill="#6656C5" d="M49.9,82.9c-11.2,4.4-20.7,10.9-27.6,18.3c1.3,2.7,2.8,5.2,4,5.4c2.4,0.4,4-0.9,11.1-3.3
					c7.1-2.4,22.7-7.5,36.3-3.6c13.5,3.9,20.5,6.3,20.5,6.3L82.9,77.6C72.6,76.8,61.2,78.5,49.9,82.9z"/>
			</g>
			<g>
				<path fill="#4D4D4D" d="M100.3,97.7c0.8,4-0.3,6.9-3.6,8.2l0,0c-3.2,1.3-6.1,0-8.2-3.6c0,0-3-3-13.1-28.8
					c-10.1-25.8-10-30-10-30c-0.2-4.1,0.3-6.9,3.6-8.2l0,0c3.2-1.3,5.6-0.1,8.2,3.6c0,0,3.8,5.1,13.1,28.8
					C99.6,91.4,100.3,97.7,100.3,97.7z"/>
				<path fill="#F1F1F3" d="M89.2,68.1C96,85.6,98.4,101,98.4,101S89.8,88,82.9,70.6c-6.8-17.5-9.2-32.9-9.2-32.9
					S82.4,50.6,89.2,68.1z"/>
			</g>
		</g>
	</g>
	<g display="inline">
		<g>
			<path fill="#4D4D4D" stroke="#F1F1F3" stroke-width="6" stroke-miterlimit="10" d="M117.1,58.1c0.2,0.6-0.1,1.3-0.7,1.5l-21,7.2
				C94.7,67,94,66.7,93.8,66l0,0c-0.2-0.6,0.1-1.3,0.7-1.5l21-7.2C116.2,57.1,116.9,57.5,117.1,58.1L117.1,58.1z"/>
			<g>
				<path fill="#4D4D4D" stroke="#F1F1F3" stroke-width="6" stroke-miterlimit="10" d="M101.6,33.7c0.6,0.3,0.8,1,0.5,1.6l-9.8,19.9
					c-0.3,0.6-1,0.8-1.6,0.5l0,0c-0.6-0.3-0.8-1-0.5-1.6l9.8-19.9C100.2,33.7,101,33.4,101.6,33.7L101.6,33.7z"/>
				<path fill="#4D4D4D" stroke="#F1F1F3" stroke-width="6" stroke-miterlimit="10" d="M119.7,86.9c0.3-0.6,0-1.3-0.5-1.6l-19.9-9.8
					c-0.6-0.3-1.3,0-1.6,0.5l0,0c-0.3,0.6,0,1.3,0.5,1.6l19.9,9.8C118.7,87.7,119.4,87.5,119.7,86.9L119.7,86.9z"/>
			</g>
		</g>
		<g>
			<path fill="#4D4D4D" d="M117.1,58.1c0.2,0.6-0.1,1.3-0.7,1.5l-21,7.2C94.7,67,94,66.7,93.8,66l0,0c-0.2-0.6,0.1-1.3,0.7-1.5
				l21-7.2C116.2,57.1,116.9,57.5,117.1,58.1L117.1,58.1z"/>
			<g>
				<path fill="#4D4D4D" d="M101.6,33.7c0.6,0.3,0.8,1,0.5,1.6l-9.8,19.9c-0.3,0.6-1,0.8-1.6,0.5l0,0c-0.6-0.3-0.8-1-0.5-1.6
					l9.8-19.9C100.2,33.7,101,33.4,101.6,33.7L101.6,33.7z"/>
				<path fill="#4D4D4D" d="M119.7,86.9c0.3-0.6,0-1.3-0.5-1.6l-19.9-9.8c-0.6-0.3-1.3,0-1.6,0.5l0,0c-0.3,0.6,0,1.3,0.5,1.6
					l19.9,9.8C118.7,87.7,119.4,87.5,119.7,86.9L119.7,86.9z"/>
			</g>
		</g>
	</g>
	<g display="inline">
		<g>
			<g>
				<polygon fill="#54CAD7" stroke="#F1F1F3" stroke-width="6" stroke-miterlimit="10" points="225.1,98.5 225.1,104.4 130.8,104.4 
					130.8,10.2 136.7,10.2 136.7,98.5 				"/>
				<polygon fill="#4D4D4D" stroke="#F1F1F3" stroke-width="6" stroke-miterlimit="10" points="172.6,42.9 196.6,48.9 205,35 
					212.5,39.5 212.9,16.1 192.4,27.5 199.9,32 193.8,42.1 170.8,36.4 146,61.1 150.2,65.3 				"/>
				<polygon fill="#F1F1F3" stroke="#F1F1F3" stroke-width="6" stroke-miterlimit="10" points="141.3,65 141.3,92.6 212.5,92.6 
					212.5,41.8 174.3,43.2 				"/>
			</g>
		</g>
		<g>
			<g>
				<polygon fill="#54CAD7" points="225.1,98.5 225.1,104.4 130.8,104.4 130.8,10.2 136.7,10.2 136.7,98.5 				"/>
				<polygon fill="#4D4D4D" points="173,42.9 197.1,48.9 205.4,35 212.9,39.5 213.3,16.1 192.8,27.5 200.3,32 194.2,42.1 
					171.2,36.4 146.4,61.1 150.6,65.3 				"/>
				<polygon fill="#54CAD7" points="166.2,92.6 178,92.6 178,50.2 174.8,49.4 166.2,58 				"/>
				<polygon fill="#54CAD7" points="148.5,71.5 148.5,92.6 160.3,92.6 160.3,63.9 150.6,73.6 				"/>
				<polygon fill="#54CAD7" points="200.5,52.9 200.5,92.6 212.3,92.6 212.3,46.7 206.4,43.1 				"/>
				<polygon fill="#54CAD7" points="195.6,92.6 195.6,54.6 183.9,51.7 183.9,92.6 				"/>
			</g>
		</g>
	</g>
</g>
<g id="Android" display="none">
	<g display="inline">
		<path fill="#FFFFFF" stroke="#F1F1F3" stroke-width="6" stroke-miterlimit="10" d="M17,47.3c-4.3,0-7.7,3.5-7.7,7.7h0v13.2v6.2
			v13.2h0c0,4.3,3.5,7.7,7.7,7.7c4.3,0,7.7-3.5,7.7-7.7l0,0V74.4v-6.2V55l0,0C24.8,50.7,21.3,47.3,17,47.3z"/>
		<path fill="#FFFFFF" stroke="#F1F1F3" stroke-width="6" stroke-miterlimit="10" d="M116,55c0-4.3-3.5-7.7-7.7-7.7
			c-4.3,0-7.7,3.5-7.7,7.7h0v13.2v6.2v13.2h0c0,4.3,3.5,7.7,7.7,7.7c4.3,0,7.7-3.5,7.7-7.7l0,0V74.4v-6.2V55L116,55z"/>
		<path fill="#FFFFFF" stroke="#F1F1F3" stroke-width="6" stroke-miterlimit="10" d="M27.9,48.6h-0.4v51.1c0,4.3,3.5,7.8,7.7,7.8
			h6.5v4.6v13.2l0,0c0,4.3,3.5,7.7,7.7,7.7c4.3,0,7.7-3.5,7.7-7.7l0,0v-13.2v-4.6h10.6v4.6v13.2c0,4.3,3.5,7.7,7.8,7.7
			c4.3,0,7.7-3.5,7.7-7.7v-13.2v-4.6h6.5c4.3,0,7.7-3.5,7.7-7.8V48.6h-0.1H27.9z"/>
		<path fill="#FFFFFF" stroke="#F1F1F3" stroke-width="6" stroke-miterlimit="10" d="M97.6,45.9v-3.7c-0.1-1.1-0.3-2.1-0.5-3.1
			c-1.9-9.1-8.3-16.8-17-21.3l5.4-9.9c0.3-0.6,0.1-1.4-0.5-1.7c-0.6-0.3-1.4-0.1-1.7,0.5l-5.4,10c-4.6-2-9.8-3.1-15.2-3.1
			c-5.5,0-10.7,1.1-15.3,3.1l-5.4-10c-0.3-0.6-1.1-0.8-1.7-0.5c-0.6,0.3-0.8,1.1-0.5,1.7l5.4,9.9c-8.3,4.3-14.4,11.5-16.6,20.1
			c-0.6,2.2-0.9,4.5-0.9,6.9c0,0.4,0,0.7,0,1.1H97.6z M78.6,26.9c1.8,0,3.3,1.5,3.3,3.3s-1.5,3.3-3.3,3.3c-1.8,0-3.3-1.5-3.3-3.3
			S76.7,26.9,78.6,26.9z M46.7,26.9c1.8,0,3.3,1.5,3.3,3.3s-1.5,3.3-3.3,3.3c-1.8,0-3.3-1.5-3.3-3.3S44.8,26.9,46.7,26.9z"/>
	</g>
	<path display="inline" fill="#4D4D4D" stroke="#F1F1F3" stroke-width="6" stroke-miterlimit="10" d="M140.4,90.1
		c0.1,14.8,13,19.7,13.1,19.8c-0.1,0.3-2.1,7-6.8,13.9c-4.1,6-8.3,11.9-15,12c-6.5,0.1-8.7-3.9-16.1-3.9c-7.5,0-9.8,3.8-16,4
		c-6.4,0.2-11.3-6.4-15.4-12.4c-8.4-12.1-14.8-34.3-6.2-49.3c4.3-7.4,11.9-12.1,20.2-12.3c6.3-0.1,12.3,4.2,16.1,4.2
		c3.9,0,11.1-5.3,18.7-4.5c3.2,0.1,12.1,1.3,17.9,9.7C150.5,71.8,140.3,77.8,140.4,90.1 M128.1,53.8c3.4-4.1,5.7-9.9,5.1-15.6
		c-4.9,0.2-10.9,3.3-14.4,7.4c-3.2,3.7-5.9,9.5-5.2,15.1C119.1,61.2,124.7,58,128.1,53.8"/>
	<g display="inline">
		<path fill="#A2C839" d="M17,47.3c-4.3,0-7.7,3.5-7.7,7.7h0v13.2v6.2v13.2h0c0,4.3,3.5,7.7,7.7,7.7c4.3,0,7.7-3.5,7.7-7.7l0,0V74.4
			v-6.2V55l0,0C24.8,50.7,21.3,47.3,17,47.3z"/>
		<path fill="#A2C839" d="M116,55c0-4.3-3.5-7.7-7.7-7.7c-4.3,0-7.7,3.5-7.7,7.7h0v13.2v6.2v13.2h0c0,4.3,3.5,7.7,7.7,7.7
			c4.3,0,7.7-3.5,7.7-7.7l0,0V74.4v-6.2V55L116,55z"/>
		<path fill="#A2C839" d="M27.9,48.6h-0.4v51.1c0,4.3,3.5,7.8,7.7,7.8h6.5v4.6v13.2l0,0c0,4.3,3.5,7.7,7.7,7.7
			c4.3,0,7.7-3.5,7.7-7.7l0,0v-13.2v-4.6h10.6v4.6v13.2c0,4.3,3.5,7.7,7.8,7.7c4.3,0,7.7-3.5,7.7-7.7v-13.2v-4.6h6.5
			c4.3,0,7.7-3.5,7.7-7.8V48.6h-0.1H27.9z"/>
		<path fill="#A2C839" d="M97.6,45.9v-3.7c-0.1-1.1-0.3-2.1-0.5-3.1c-1.9-9.1-8.3-16.8-17-21.3l5.4-9.9c0.3-0.6,0.1-1.4-0.5-1.7
			c-0.6-0.3-1.4-0.1-1.7,0.5l-5.4,10c-4.6-2-9.8-3.1-15.2-3.1c-5.5,0-10.7,1.1-15.3,3.1l-5.4-10c-0.3-0.6-1.1-0.8-1.7-0.5
			c-0.6,0.3-0.8,1.1-0.5,1.7l5.4,9.9c-8.3,4.3-14.4,11.5-16.6,20.1c-0.6,2.2-0.9,4.5-0.9,6.9c0,0.4,0,0.7,0,1.1H97.6z M78.6,26.9
			c1.8,0,3.3,1.5,3.3,3.3s-1.5,3.3-3.3,3.3c-1.8,0-3.3-1.5-3.3-3.3S76.7,26.9,78.6,26.9z M46.7,26.9c1.8,0,3.3,1.5,3.3,3.3
			s-1.5,3.3-3.3,3.3c-1.8,0-3.3-1.5-3.3-3.3S44.8,26.9,46.7,26.9z"/>
	</g>
	<path display="inline" fill="#4D4D4D" d="M140.4,90.1c0.1,14.8,13,19.7,13.1,19.8c-0.1,0.3-2.1,7-6.8,13.9c-4.1,6-8.3,11.9-15,12
		c-6.5,0.1-8.7-3.9-16.1-3.9c-7.5,0-9.8,3.8-16,4c-6.4,0.2-11.3-6.4-15.4-12.4c-8.4-12.1-14.8-34.3-6.2-49.3
		c4.3-7.4,11.9-12.1,20.2-12.3c6.3-0.1,12.3,4.2,16.1,4.2c3.9,0,11.1-5.3,18.7-4.5c3.2,0.1,12.1,1.3,17.9,9.7
		C150.5,71.8,140.3,77.8,140.4,90.1 M128.1,53.8c3.4-4.1,5.7-9.9,5.1-15.6c-4.9,0.2-10.9,3.3-14.4,7.4c-3.2,3.7-5.9,9.5-5.2,15.1
		C119.1,61.2,124.7,58,128.1,53.8"/>
</g>
<g id="Nube" display="none">
	<path id="MobileMe_1_" display="inline" fill="#54CAD7" stroke="#F1F1F3" stroke-width="7" stroke-miterlimit="10" d="M10.4,96.3
		c0,20.8,16.8,37.7,37.4,37.7h115.8c20.7,0,37.4-16.9,37.4-37.7c0-18.8-13.7-34.4-31.5-37.2c0.2-1.3,0.4-2.7,0.4-4.1
		c0-13.2-10.6-23.9-23.7-23.9c-5.8,0-11.2,2.1-15.3,5.7c-7.4-16.7-16.8-32-43.3-32c-32.1,0-47.4,25-47.4,51.3c0,1.1,0,2.2,0.1,3.3
		C23.3,62.8,10.4,78,10.4,96.3z"/>
	<path id="MobileMe_3_" display="inline" fill="#54CAD7" d="M10.4,96.3c0,20.8,16.8,37.7,37.4,37.7h115.8
		c20.7,0,37.4-16.9,37.4-37.7c0-18.8-13.7-34.4-31.5-37.2c0.2-1.3,0.4-2.7,0.4-4.1c0-13.2-10.6-23.9-23.7-23.9
		c-5.8,0-11.2,2.1-15.3,5.7c-7.4-16.7-16.8-32-43.3-32c-32.1,0-47.4,25-47.4,51.3c0,1.1,0,2.2,0.1,3.3C23.3,62.8,10.4,78,10.4,96.3z
		"/>
	<g display="inline">
		<path fill="#4D4D4D" d="M71.1,73.2c-0.6,0-1.1,0.1-1.6,0.3c0.3,0.4,0.5,0.9,0.5,1.5c0,1.5-1.2,2.6-2.6,2.6c-0.4,0-0.7-0.1-1-0.2
			c0,0.1,0,0.1,0,0.2c0,2.4,2.2,4.4,4.8,4.4c2.7,0,4.8-2,4.8-4.4C75.9,75.2,73.8,73.2,71.1,73.2z"/>
		<path fill="#4D4D4D" d="M143,89.9c1.9-5.3,0.8-11.5-3.5-15.8c-4.1-4.1-9.8-5.4-15-3.7c-0.7,0.2-1,1.2,0,1.5
			c0.7,0.3,0.9,0.2,1.9,0.7c1.1,0.5,4.9,3.2,6.3,5.3c1.3,2.1,1.9,7.5-0.7,10.1c0,0-0.1,0.1-0.1,0.1c0,0-0.1,0.1-0.1,0.1
			c-2.6,2.6-8,2-10.1,0.7c-2.1-1.3-4.9-5.2-5.3-6.3c-0.5-1.1-0.4-1.2-0.7-1.9c-0.3-1-1.3-0.7-1.5,0c-1.7,5.2-0.4,10.9,3.7,15
			c4.3,4.3,10.7,5.5,16.1,3.4l22.7,22.7c2.6,2.6,6.7,2.6,9.2,0c2.6-2.6,2.6-6.7,0-9.2L143,89.9z M163.5,119.5
			c-1.2,1.2-3.1,1.2-4.2,0c-1.2-1.2-1.2-3.1,0-4.3c1.2-1.2,3.1-1.2,4.3,0C164.7,116.4,164.7,118.3,163.5,119.5z"/>
		<path fill="#4D4D4D" d="M93.8,77.6c-1.5,0-2.6-1.2-2.6-2.6c0-0.6,0.2-1.1,0.5-1.5c-0.5-0.2-1.1-0.3-1.6-0.3c-2.7,0-4.8,2-4.8,4.4
			c0,2.4,2.2,4.4,4.8,4.4c2.7,0,4.8-2,4.8-4.4c0-0.1,0-0.1,0-0.2C94.5,77.5,94.2,77.6,93.8,77.6z"/>
		<path fill="#4D4D4D" d="M180.4,80.9c-0.2-0.7-1.2-1-1.5,0c-0.3,0.7-0.2,0.9-0.7,1.9c-0.5,1.1-3.2,4.9-5.3,6.3
			c-2.1,1.3-7.5,1.9-10.1-0.7c0,0-0.1-0.1-0.1-0.1c0,0-0.1-0.1-0.1-0.1c-2.6-2.6-2-8-0.7-10.1c1.3-2.1,5.2-4.9,6.3-5.3
			c1.1-0.5,1.2-0.4,1.9-0.7c1-0.3,0.7-1.3,0-1.5c-5.2-1.7-10.9-0.4-15,3.7c-4.3,4.3-5.4,10.5-3.5,15.8l-22.8,22.8
			c-2.6,2.6-2.6,6.7,0,9.2c2.6,2.6,6.7,2.6,9.2,0l22.7-22.7c5.4,2.1,11.7,1,16.1-3.4C180.8,91.8,182.1,86.1,180.4,80.9z
			 M135.2,119.5c-1.2,1.2-3.1,1.2-4.2,0c-1.2-1.2-1.2-3.1,0-4.2c1.2-1.2,3.1-1.2,4.3,0C136.3,116.4,136.3,118.3,135.2,119.5z"/>
		<path fill="#4D4D4D" d="M113.7,60c0-1.3-0.5-1.8-1.7-1.8c-0.1,0-1.1,0-2.7,0c-0.1-1-0.2-2.1-0.2-3.1c0-9.7-6.4-18.3-14-23.6
			c0,0.2,0,0.4,0,0.6c0,0.7-0.1,1.5-0.1,2.2c-0.1,0.7-0.2,1.5-0.2,2.2c-0.1,1.5-0.4,2.9-0.7,4.3c-0.3,1.4-0.6,2.7-1,3.9
			c-0.4,1.2-0.8,2.4-1.2,3.4c-0.8,2.1-1.7,3.8-2.3,4.9c-0.7,1.1-1.1,1.7-1.1,1.7s0-0.2,0-0.5c0-0.3,0-0.9,0.1-1.5
			c0.1-1.3,0.2-3.1,0.3-5.3c0.2-2.2,0.3-4.7,0.5-7.3c0.1-1.3,0.1-2.7,0.2-4.1c0-0.7,0.1-1.4,0.1-2.1c0-0.7,0-1.4,0.1-2.1
			c0.1-1.2,0.1-2.4,0.1-3.6c-3.2-1.5-6.3-2.4-9.1-2.5c-2.8,0.1-5.9,1-9.1,2.5c0,1.2,0,2.4,0.1,3.6c0,0.7,0,1.4,0.1,2.1
			c0,0.7,0.1,1.4,0.1,2.1c0.1,1.4,0.1,2.8,0.2,4.1c0.2,2.6,0.3,5.1,0.5,7.3c0.1,2.2,0.2,4,0.3,5.3c0.1,0.6,0.1,1.2,0.1,1.5
			c0,0.4,0,0.5,0,0.5s-0.5-0.6-1.1-1.7c-0.7-1.1-1.5-2.8-2.3-4.9c-0.4-1-0.8-2.2-1.2-3.4c-0.3-1.2-0.7-2.5-1-3.9
			c-0.3-1.4-0.6-2.8-0.7-4.3c-0.1-0.7-0.2-1.5-0.2-2.2c0-0.7-0.1-1.5-0.1-2.2c0-0.2,0-0.4,0-0.6c-7.6,5.3-14,13.9-14,23.6
			c0,1.1-0.1,2.1-0.2,3.1c-1.6,0-2.6,0-2.7,0c-1.2,0-1.7,0.5-1.7,1.8c0,1.3,0,8.1,0,8.1h3.9c0,0.8-0.1,1.6-0.1,2.4
			c0,18.8,12.8,33.5,29.3,33.5c0,0,0,0,0,0s0,0,0,0c16.4,0,29.3-14.7,29.3-33.5c0-0.8,0-1.6-0.1-2.4h3.9
			C113.7,68.1,113.7,61.2,113.7,60z M80.7,100.9C80.7,100.9,80.7,100.9,80.7,100.9C80.7,100.9,80.7,100.9,80.7,100.9
			c-14.7,0-26.1-13.3-26.1-30.3c0-0.8,0-1.6,0.1-2.4h26h26c0.1,0.8,0.1,1.6,0.1,2.4C106.7,87.5,95.3,100.9,80.7,100.9z"/>
	</g>
</g>
<g id="Cerebro_1_" display="none">
	<g display="inline">
		<g>
			<g>
				<path fill="#4D4D4D" stroke="#F1F1F3" stroke-width="6" stroke-miterlimit="10" d="M76.7,37.1v56.2c0,0,1.2,9.8,9.5,10.1
					c0,0,9.4,2.4,13.9-4.6c0,0,9-0.4,11.6-10.3c0,0,5.1-2.8,4.2-11.9c0,0,4.9-6.4,0-12.1c0,0,2.9-6.4-3.1-11.1c0,0,0.4-8.4-7.8-11
					c0,0-1.2-5.9-11.7-6.5c0,0-1.7-5.6-8.3-5.3C78.3,30.7,77.4,35.7,76.7,37.1z"/>
				<path fill="#F8F8F8" stroke="#F1F1F3" stroke-width="6" stroke-miterlimit="10" d="M78.7,37.1c0,0,4-8,11.5-3c0,0,5,5.4,0,10.2
					c0,0-0.9,1.3-4.6,1.9c0,0,0.2-3.1-1.5-2.4c0,0-0.6,0.2-0.2,1.1c0,0,1.2,1.8-0.2,4.4c0,0-0.4,1.8,1.1,0.8c0,0,1-1.5,0.9-1.9
					c0,0,3.4-0.2,6-2.5c0,0,3.1-2,2.7-7.7c0,0,6.3-0.8,9.4,5.9c0,0,7,1.3,6.8,9.2c0,0-0.4,8.8-7.9,10.4c0,0-2.8,0.4-4.6,0
					c0,0,0.7-3.7,0.6-5c0,0,1.9-1.7,1.9-2.1c0,0-0.1-1.1-1.4-0.4c0,0-0.3,1.9-4.4,0.8c0,0-1.9,0,0,1.2c0,0,1,0.4,1.6,0.4
					c0,0,1.8,7.9-6,8.2c0,0-8.6-3.1-11.4-14.6V37.1z"/>
				<path fill="#F8F8F8" stroke="#F1F1F3" stroke-width="6" stroke-miterlimit="10" d="M101.4,77c0,0,5,3.7,10.6,0.5
					c0,0,7.8-3.2,1.8-12.3c0,0,2.7-5.9-1.4-9.2c0,0-3,11.9-15.5,9.7c0,0-1.7,1.9-3.2,2.5l3.8,0.4c0,0,2,1.7-0.6,2.4
					c0,0-11.5-0.2-18.1-11.7v34.3c0,0,2,8.9,10.3,8.8c0,0,10-0.1,11.5-8.8c0,0,1.5-6.4-3.3-10c0,0,0.1-2.5,2-1.3c0,0,6,5.6,2.5,14.3
					c0,0,5.6-0.1,8.8-9c0,0,4.5-3.6,4-8.9c0,0-4.9,2.8-8.9,2.1c0,0-3.8-0.9-4.6-2.1c0,0-5,5.1-11.9,1.3c0,0-1.4,1.8-2.6,0.8
					c0,0,0.8-0.7,2.5-2.2l-0.1-2.8c0,0,1.4-1.1,1.3,0.5l0.1,2.2c0,0,5.7,3.2,10.1-2.2"/>
			</g>
			<g>
				<path fill="#4D4D4D" stroke="#F1F1F3" stroke-width="6" stroke-miterlimit="10" d="M75.6,37.1v56.2c0,0-1.2,9.8-9.5,10.1
					c0,0-9.4,2.4-13.9-4.6c0,0-9-0.4-11.6-10.3c0,0-5.1-2.8-4.2-11.9c0,0-4.9-6.4,0-12.1c0,0-2.9-6.4,3.1-11.1c0,0-0.4-8.4,7.8-11
					c0,0,1.2-5.9,11.7-6.5c0,0,1.7-5.6,8.3-5.3C74,30.7,74.9,35.7,75.6,37.1z"/>
				<path fill="#F8F8F8" stroke="#F1F1F3" stroke-width="6" stroke-miterlimit="10" d="M73.6,37.1c0,0-4-8-11.5-3c0,0-5,5.4,0,10.2
					c0,0,0.9,1.3,4.6,1.9c0,0-0.2-3.1,1.5-2.4c0,0,0.6,0.2,0.2,1.1c0,0-1.2,1.8,0.2,4.4c0,0,0.4,1.8-1.1,0.8c0,0-1-1.5-0.9-1.9
					c0,0-3.4-0.2-6-2.5c0,0-3.1-2-2.7-7.7c0,0-6.3-0.8-9.4,5.9c0,0-7,1.3-6.8,9.2c0,0,0.4,8.8,7.9,10.4c0,0,2.8,0.4,4.6,0
					c0,0-0.7-3.7-0.6-5c0,0-1.9-1.7-1.9-2.1c0,0,0.1-1.1,1.4-0.4c0,0,0.3,1.9,4.4,0.8c0,0,1.9,0,0,1.2c0,0-1,0.4-1.6,0.4
					c0,0-1.8,7.9,6,8.2c0,0,8.6-3.1,11.4-14.6V37.1z"/>
				<path fill="#F8F8F8" stroke="#F1F1F3" stroke-width="6" stroke-miterlimit="10" d="M50.9,77c0,0-5,3.7-10.6,0.5
					c0,0-7.8-3.2-1.8-12.3c0,0-2.7-5.9,1.4-9.2c0,0,3,11.9,15.5,9.7c0,0,1.7,1.9,3.2,2.5l-3.8,0.4c0,0-2,1.7,0.6,2.4
					c0,0,11.5-0.2,18.1-11.7v34.3c0,0-2,8.9-10.3,8.8c0,0-10-0.1-11.5-8.8c0,0-1.5-6.4,3.3-10c0,0-0.1-2.5-2-1.3c0,0-6,5.6-2.5,14.3
					c0,0-5.6-0.1-8.8-9c0,0-4.5-3.6-4-8.9c0,0,4.9,2.8,8.9,2.1c0,0,3.8-0.9,4.6-2.1c0,0,5,5.1,11.9,1.3c0,0,1.4,1.8,2.6,0.8
					c0,0-0.8-0.7-2.5-2.2l0.1-2.8c0,0-1.4-1.1-1.3,0.5L62,78.3c0,0-5.7,3.2-10.1-2.2"/>
			</g>
		</g>
		<g>
			<path fill="#4D4D4D" stroke="#F1F1F3" stroke-width="6" stroke-miterlimit="10" d="M90.6,106.5h-29c-1.2,0-2.2,0.8-2.2,1.8v1.2
				c0,1,1,1.8,2.2,1.8h29c1.2,0,2.2-0.8,2.2-1.8v-1.2C92.8,107.3,91.8,106.5,90.6,106.5z"/>
			<path fill="#4D4D4D" stroke="#F1F1F3" stroke-width="6" stroke-miterlimit="10" d="M90.6,113.7h-29c-1.2,0-2.2,0.8-2.2,1.8v1.2
				c0,1,1,1.8,2.2,1.8h29c1.2,0,2.2-0.8,2.2-1.8v-1.2C92.8,114.5,91.8,113.7,90.6,113.7z"/>
			<path fill="#4D4D4D" stroke="#F1F1F3" stroke-width="6" stroke-miterlimit="10" d="M90.6,120.9h-29c-1.2,0-2.2,0.8-2.2,1.8v1.2
				c0,1,1,1.8,2.2,1.8h29c1.2,0,2.2-0.8,2.2-1.8v-1.2C92.8,121.7,91.8,120.9,90.6,120.9z"/>
			<path fill="#4D4D4D" stroke="#F1F1F3" stroke-width="6" stroke-miterlimit="10" d="M65.3,128.1H87c0,3.6-5.8,6-10.9,6
				C71.1,134.1,65.3,131.7,65.3,128.1z"/>
		</g>
		<path fill="#4D4D4D" stroke="#F1F1F3" stroke-width="6" stroke-miterlimit="10" d="M78.9,24.3c0,1.5-1.2,2.7-2.7,2.7l0,0
			c-1.5,0-2.7-1.2-2.7-2.7v-19c0-1.5,1.2-2.7,2.7-2.7l0,0c1.5,0,2.7,1.2,2.7,2.7V24.3z"/>
		<path fill="#4D4D4D" stroke="#F1F1F3" stroke-width="6" stroke-miterlimit="10" d="M124.4,73.9c-1.5,0-2.7-1.2-2.7-2.7l0,0
			c0-1.5,1.2-2.7,2.7-2.7h19c1.5,0,2.7,1.2,2.7,2.7l0,0c0,1.5-1.2,2.7-2.7,2.7H124.4z"/>
		<path fill="#4D4D4D" stroke="#F1F1F3" stroke-width="6" stroke-miterlimit="10" d="M8.6,73.9c-1.5,0-2.7-1.2-2.7-2.7l0,0
			c0-1.5,1.2-2.7,2.7-2.7h19c1.5,0,2.7,1.2,2.7,2.7l0,0c0,1.5-1.2,2.7-2.7,2.7H8.6z"/>
		<path fill="#4D4D4D" stroke="#F1F1F3" stroke-width="6" stroke-miterlimit="10" d="M109.9,35.7c-1.1,1.1-2.8,1.1-3.9,0l0,0
			c-1.1-1.1-1.1-2.8,0-3.9l13.4-13.4c1.1-1.1,2.8-1.1,3.9,0l0,0c1.1,1.1,1.1,2.8,0,3.9L109.9,35.7z"/>
		<path fill="#4D4D4D" stroke="#F1F1F3" stroke-width="6" stroke-miterlimit="10" d="M42.4,35.7c1.1,1.1,2.8,1.1,3.9,0l0,0
			c1.1-1.1,1.1-2.8,0-3.9L32.9,18.4c-1.1-1.1-2.8-1.1-3.9,0l0,0c-1.1,1.1-1.1,2.8,0,3.9L42.4,35.7z"/>
	</g>
	<g display="inline">
		<g>
			<g>
				<g>
					<path fill="#F1F1F3" d="M76.8,37.3v56.2c0,0,1.2,9.8,9.5,10.1c0,0,9.4,2.4,13.9-4.6c0,0,9-0.4,11.6-10.3c0,0,5.1-2.8,4.2-11.9
						c0,0,4.9-6.4,0-12.1c0,0,2.9-6.4-3.1-11.1c0,0,0.4-8.4-7.8-11c0,0-1.2-5.9-11.7-6.5c0,0-1.7-5.6-8.3-5.3
						C78.4,30.8,77.6,35.8,76.8,37.3z"/>
					<path fill="#BEF35B" d="M78.9,37.2c0,0,4-8,11.5-3c0,0,5,5.4,0,10.2c0,0-0.9,1.3-4.6,1.9c0,0,0.2-3.1-1.5-2.4
						c0,0-0.6,0.2-0.2,1.1c0,0,1.2,1.8-0.2,4.4c0,0-0.4,1.8,1.1,0.8c0,0,1-1.5,0.9-1.9c0,0,3.4-0.2,6-2.5c0,0,3.1-2,2.7-7.7
						c0,0,6.3-0.8,9.4,5.9c0,0,7,1.3,6.8,9.2c0,0-0.4,8.8-7.9,10.4c0,0-2.8,0.4-4.6,0c0,0,0.7-3.7,0.6-5c0,0,1.9-1.7,1.9-2.1
						c0,0-0.1-1.1-1.4-0.4c0,0-0.3,1.9-4.4,0.8c0,0-1.9,0,0,1.2c0,0,1,0.4,1.6,0.4c0,0,1.8,7.9-6,8.2c0,0-8.6-3.1-11.4-14.6V37.2z"
						/>
					<path fill="#BEF35B" d="M101.5,77.1c0,0,5,3.7,10.6,0.5c0,0,7.8-3.2,1.8-12.3c0,0,2.7-5.9-1.4-9.2c0,0-3,11.9-15.5,9.7
						c0,0-1.7,1.9-3.2,2.5l3.8,0.4c0,0,2,1.7-0.6,2.4c0,0-11.5-0.2-18.1-11.7v34.3c0,0,2,8.9,10.3,8.8c0,0,10-0.1,11.5-8.8
						c0,0,1.5-6.4-3.3-10c0,0,0.1-2.5,2-1.3c0,0,6,5.6,2.5,14.3c0,0,5.6-0.1,8.8-9c0,0,4.5-3.6,4-8.9c0,0-4.9,2.8-8.9,2.1
						c0,0-3.8-0.9-4.6-2.1c0,0-5,5.1-11.9,1.3c0,0-1.4,1.8-2.6,0.8c0,0,0.8-0.7,2.5-2.2L89,75.7c0,0,1.4-1.1,1.3,0.5l0.1,2.2
						c0,0,5.7,3.2,10.1-2.2"/>
				</g>
				<g>
					<path fill="#F1F1F3" d="M75.7,37.3v56.2c0,0-1.2,9.8-9.5,10.1c0,0-9.4,2.4-13.9-4.6c0,0-9-0.4-11.6-10.3c0,0-5.1-2.8-4.2-11.9
						c0,0-4.9-6.4,0-12.1c0,0-2.9-6.4,3.1-11.1c0,0-0.4-8.4,7.8-11c0,0,1.2-5.9,11.7-6.5c0,0,1.7-5.6,8.3-5.3
						C74.2,30.8,75,35.8,75.7,37.3z"/>
					<path fill="#BEF35B" d="M73.7,37.2c0,0-4-8-11.5-3c0,0-5,5.4,0,10.2c0,0,0.9,1.3,4.6,1.9c0,0-0.2-3.1,1.5-2.4
						c0,0,0.6,0.2,0.2,1.1c0,0-1.2,1.8,0.2,4.4c0,0,0.4,1.8-1.1,0.8c0,0-1-1.5-0.9-1.9c0,0-3.4-0.2-6-2.5c0,0-3.1-2-2.7-7.7
						c0,0-6.3-0.8-9.4,5.9c0,0-7,1.3-6.8,9.2c0,0,0.4,8.8,7.9,10.4c0,0,2.8,0.4,4.6,0c0,0-0.7-3.7-0.6-5c0,0-1.9-1.7-1.9-2.1
						c0,0,0.1-1.1,1.4-0.4c0,0,0.3,1.9,4.4,0.8c0,0,1.9,0,0,1.2c0,0-1,0.4-1.6,0.4c0,0-1.8,7.9,6,8.2c0,0,8.6-3.1,11.4-14.6V37.2z"
						/>
					<path fill="#BEF35B" d="M51,77.1c0,0-5,3.7-10.6,0.5c0,0-7.8-3.2-1.8-12.3c0,0-2.7-5.9,1.4-9.2c0,0,3,11.9,15.5,9.7
						c0,0,1.7,1.9,3.2,2.5L55,68.6c0,0-2,1.7,0.6,2.4c0,0,11.5-0.2,18.1-11.7v34.3c0,0-2,8.9-10.3,8.8c0,0-10-0.1-11.5-8.8
						c0,0-1.5-6.4,3.3-10c0,0-0.1-2.5-2-1.3c0,0-6,5.6-2.5,14.3c0,0-5.6-0.1-8.8-9c0,0-4.5-3.6-4-8.9c0,0,4.9,2.8,8.9,2.1
						c0,0,3.8-0.9,4.6-2.1c0,0,5,5.1,11.9,1.3c0,0,1.4,1.8,2.6,0.8c0,0-0.8-0.7-2.5-2.2l0.1-2.8c0,0-1.4-1.1-1.3,0.5l-0.1,2.2
						c0,0-5.7,3.2-10.1-2.2"/>
				</g>
			</g>
			<g>
				<path fill="#BEF35B" d="M90.8,106.6h-29c-1.2,0-2.2,0.8-2.2,1.8v1.2c0,1,1,1.8,2.2,1.8h29c1.2,0,2.2-0.8,2.2-1.8v-1.2
					C92.9,107.4,92,106.6,90.8,106.6z"/>
				<path fill="#BEF35B" d="M90.8,113.8h-29c-1.2,0-2.2,0.8-2.2,1.8v1.2c0,1,1,1.8,2.2,1.8h29c1.2,0,2.2-0.8,2.2-1.8v-1.2
					C92.9,114.6,92,113.8,90.8,113.8z"/>
				<path fill="#BEF35B" d="M90.8,121h-29c-1.2,0-2.2,0.8-2.2,1.8v1.2c0,1,1,1.8,2.2,1.8h29c1.2,0,2.2-0.8,2.2-1.8v-1.2
					C92.9,121.8,92,121,90.8,121z"/>
				<path fill="#BEF35B" d="M65.4,128.2h21.7c0,3.6-5.8,6-10.9,6C71.2,134.2,65.4,131.8,65.4,128.2z"/>
			</g>
			<path fill="#BEF35B" d="M79,24.4c0,1.5-1.2,2.7-2.7,2.7l0,0c-1.5,0-2.7-1.2-2.7-2.7v-19c0-1.5,1.2-2.7,2.7-2.7l0,0
				c1.5,0,2.7,1.2,2.7,2.7V24.4z"/>
			<path fill="#BEF35B" d="M124.5,74c-1.5,0-2.7-1.2-2.7-2.7l0,0c0-1.5,1.2-2.7,2.7-2.7h19c1.5,0,2.7,1.2,2.7,2.7l0,0
				c0,1.5-1.2,2.7-2.7,2.7H124.5z"/>
			<path fill="#BEF35B" d="M8.7,74C7.2,74,6,72.8,6,71.3l0,0c0-1.5,1.2-2.7,2.7-2.7h19c1.5,0,2.7,1.2,2.7,2.7l0,0
				c0,1.5-1.2,2.7-2.7,2.7H8.7z"/>
			<path fill="#BEF35B" d="M110,35.8c-1.1,1.1-2.8,1.1-3.9,0l0,0c-1.1-1.1-1.1-2.8,0-3.9l13.4-13.4c1.1-1.1,2.8-1.1,3.9,0l0,0
				c1.1,1.1,1.1,2.8,0,3.9L110,35.8z"/>
			<path fill="#BEF35B" d="M42.6,35.8c1.1,1.1,2.8,1.1,3.9,0l0,0c1.1-1.1,1.1-2.8,0-3.9L33,18.5c-1.1-1.1-2.8-1.1-3.9,0l0,0
				c-1.1,1.1-1.1,2.8,0,3.9L42.6,35.8z"/>
		</g>
	</g>
	<polygon display="inline" fill="#F1F1F3" points="75.7,99.3 71.8,103.9 78.3,104.6 80,103 	"/>
	<polygon display="inline" fill="#F1F1F3" points="106,38 111,38 110.1,42.4 105.9,40.1 	"/>
	<polygon display="inline" fill="#F1F1F3" points="73.6,28.9 79.5,29 76.5,33.5 	"/>
</g>
</svg>
