<?xml version="1.0" encoding="utf-8"?>
<!-- Generator: Adobe Illustrator 18.0.0, SVG Export Plug-In . SVG Version: 6.00 Build 0)  -->
<!DOCTYPE svg PUBLIC "-//W3C//DTD SVG 1.1//EN" "http://www.w3.org/Graphics/SVG/1.1/DTD/svg11.dtd">
<svg version="1.1" id="Layer_1" xmlns="http://www.w3.org/2000/svg" xmlns:xlink="http://www.w3.org/1999/xlink" x="0px" y="0px"
	 viewBox="0 0 29.3 29.7" enable-background="new 0 0 29.3 29.7" xml:space="preserve">
<g display="none">
	<rect x="209.4" y="31.7" display="inline" fill="#EB5757" width="59.7" height="59.7"/>
	<rect x="276.8" y="31.7" display="inline" fill="#54CAD7" width="59.7" height="59.7"/>
	<rect x="344.2" y="31.7" display="inline" fill="#4D4D4D" width="59.7" height="59.7"/>
	<rect x="209.4" y="104.6" display="inline" fill="#F48732" width="59.7" height="59.7"/>
	<rect x="276.8" y="104.6" display="inline" fill="#BEF35B" width="59.7" height="59.7"/>
	<rect x="344.2" y="104.6" display="inline" fill="#8B71FB" width="59.7" height="59.7"/>
	<rect x="410.1" y="32.2" display="inline" fill="#F1F1F3" width="39.6" height="132.1"/>
</g>
<rect x="-89.5" y="-53.6" display="none" fill="#4D4D4D" width="163.5" height="154.1"/>
<g display="none">
	<g display="inline">
		<g>
			<path fill="#4D4D4D" d="M429.6-52c0,0,6,7.5,11.4,13.8c5.4,6.3,12.9,12,12.9,12s2.9-0.8,7.9-3.1c5-2.3,5.5-3.4,5.5-3.4
				s-1.5-6-5.3-6.2c-0.6-2.4-1.7-5.3-4.7-5.4c-0.3-2.6-2.3-7.9-6.1-8.7c0.2-2.9-1.4-5.4-1.4-5.4L429.6-52z"/>
			<path fill="#4D4D4D" d="M456.1-59.5l3.4,7.7c0,0-0.9,1-2.2,1.3c-1.3,0.3-4.3-3.1-5.1-4.9c-0.8-1.7-1.6-4-1.6-4L456.1-59.5z"/>
			<g>
				<path fill="#4D4D4D" d="M409.8-68.5c0,0-0.2,1.1,0.2,3.4c-2.2,1.9-3.1,5-2,7.9c1.1,2.9,3.9,4.6,6.8,4.5c1.2,1.9,2.1,2.6,2.1,2.6
					l6.6-0.9l-4.2-10.7l-4.2-10.7L409.8-68.5z"/>
				<path fill="#8B71FB" d="M453.9-100.1c-7.2,11.8-21.7,18.5-28.4,21.5c-6.7,3-8.7,3.1-10.1,4.9c-1.4,1.9,2.8,12.5,2.8,12.5
					s4.1,10.7,6.4,11.1c2.3,0.4,3.9-0.9,10.8-3.3c6.9-2.4,22.2-7.3,35.4-3.5c13.2,3.8,20,6.2,20,6.2l-13.2-33.8l-13.2-33.8
					C464.4-118.3,461.1-111.9,453.9-100.1z"/>
				<path fill="#6656C5" d="M447.8-73.3c-11,4.3-20.2,10.6-27,17.9c1.3,2.6,2.8,5.1,3.9,5.3c2.3,0.4,3.9-0.9,10.8-3.3
					c6.9-2.4,22.2-7.3,35.4-3.5c13.2,3.8,20,6.2,20,6.2L480-78.5C470-79.3,458.8-77.7,447.8-73.3z"/>
			</g>
			<g>
				<path fill="#4D4D4D" d="M497-58.9c0.7,3.9-0.3,6.7-3.5,8l0,0c-3.2,1.2-5.9,0-8-3.5c0,0-2.9-2.9-12.8-28.2
					c-9.9-25.2-9.7-29.3-9.7-29.3c-0.2-4,0.3-6.7,3.5-8l0,0c3.2-1.2,5.5,0,8,3.5c0,0,3.7,4.9,12.8,28.2
					C496.4-65.1,497-58.9,497-58.9z"/>
				<path fill="#F1F1F3" d="M486.2-87.8c6.7,17.1,9,32.1,9,32.1s-8.5-12.6-15.2-29.7c-6.7-17.1-9-32.1-9-32.1
					S479.5-104.9,486.2-87.8z"/>
			</g>
		</g>
		<g>
			<path fill="#4D4D4D" d="M521-98.4c0.2,0.6-0.1,1.3-0.7,1.5l-20.5,7c-0.6,0.2-1.3-0.1-1.5-0.7l0,0c-0.2-0.6,0.1-1.3,0.7-1.5
				l20.5-7C520.2-99.3,520.8-99,521-98.4L521-98.4z"/>
			<g>
				<path fill="#4D4D4D" d="M505.9-122.2c0.6,0.3,0.8,1,0.5,1.6l-9.6,19.5c-0.3,0.6-1,0.8-1.6,0.5l0,0c-0.6-0.3-0.8-1-0.5-1.6
					l9.6-19.5C504.6-122.2,505.3-122.5,505.9-122.2L505.9-122.2z"/>
				<path fill="#4D4D4D" d="M523.6-70.3c0.3-0.6,0-1.3-0.5-1.6l-19.5-9.6c-0.6-0.3-1.3,0-1.6,0.5l0,0c-0.3,0.6,0,1.3,0.5,1.6
					l19.5,9.6C522.6-69.4,523.3-69.7,523.6-70.3L523.6-70.3z"/>
			</g>
		</g>
	</g>
	<g display="inline">
		<g>
			<polygon fill="#54CAD7" points="623.6,-72.7 623.6,-67 531.5,-67 531.5,-159 537.3,-159 537.3,-72.7 			"/>
			<polygon fill="#4D4D4D" points="572.7,-127.1 596.2,-121.2 604.3,-134.8 611.7,-130.3 612.1,-153.3 592,-142.2 599.4,-137.7 
				593.5,-127.8 570.9,-133.5 546.8,-109.3 550.8,-105.2 			"/>
			<polygon fill="#54CAD7" points="566.1,-78.5 577.6,-78.5 577.6,-119.9 574.5,-120.7 566.1,-112.3 			"/>
			<polygon fill="#54CAD7" points="548.8,-99.1 548.8,-78.5 560.3,-78.5 560.3,-106.6 550.8,-97.1 			"/>
			<polygon fill="#54CAD7" points="600.6,-117.3 600.6,-78.5 612.1,-78.5 612.1,-123.4 606.3,-126.9 			"/>
			<polygon fill="#54CAD7" points="594.8,-78.5 594.8,-115.6 583.3,-118.5 583.3,-78.5 			"/>
		</g>
	</g>
</g>
<g id="Responsivo_1_" display="none">
	<g display="inline">
		<g>
			<g>
				<path fill="#4D4D4D" stroke="#F1F1F3" stroke-width="6" stroke-miterlimit="10" d="M-463.4-110.7h-1.3c0,0-7.7-2.2-7.7-23.8
					c0-6.4-34.1-6.3-34.1,0.6c0,20.8-7.9,23.2-7.9,23.2h-1.1c-1,0-1.7,0.4-1.7,1.3v0.9c0,1,0.8,1.3,1.7,1.3h52.1
					c1,0,3.4-0.3,3.4-1.3v-0.9C-460-110.4-462.5-110.7-463.4-110.7z"/>
				<path fill="#4D4D4D" stroke="#F1F1F3" stroke-width="6" stroke-miterlimit="10" d="M-429-218.4h-121.2c-2.3,0-3.6,0.6-3.6,3
					v73.3v11.2c0,2.3,1.2,4.5,3.6,4.5H-429c2.3,0,3.7-2.2,3.7-4.5v-11.2v-73.3C-425.3-217.8-426.7-218.4-429-218.4z"/>
			</g>
		</g>
	</g>
	<g display="inline">
		<g>
			<g>
				<path fill="#4D4D4D" stroke="#F1F1F3" stroke-width="6" stroke-miterlimit="10" d="M-409.6-92.9c0,2.6-2,4.8-4.5,4.8h-47.1
					c-2.5,0-5.7-2.1-5.7-4.8v-64.9c0-2.6,3.2-3.3,5.7-3.3h47.1c2.5,0,4.5,0.7,4.5,3.3V-92.9z"/>
			</g>
		</g>
	</g>
	<g display="inline">
		<g>
			<g>
				<path fill="#4D4D4D" stroke="#F1F1F3" stroke-width="6" stroke-miterlimit="10" d="M-444.4-92.2c0,2.1-2.8,4-5,4h-24.4
					c-2.1,0-1.9-1.9-1.9-4v-52.6c0-2.1-0.2-2.4,1.9-2.4h24.4c2.1,0,5,0.3,5,2.4V-92.2z"/>
				<g>
					<path fill="#4D4D4D" stroke="#F1F1F3" stroke-width="6" stroke-miterlimit="10" d="M-440.9-92.2c0,2.1-2.8,4-5,4h-24.4
						c-2.1,0-1.9-1.9-1.9-4v-52.6c0-2.1-0.2-2.4,1.9-2.4h24.4c2.1,0,5,0.3,5,2.4V-92.2z"/>
				</g>
			</g>
		</g>
	</g>
	<g display="inline">
		<g>
			<g>
				<path fill="#4D4D4D" d="M-463.4-110.7h-1.3c0,0-7.7-2.2-7.7-23.8c0-6.4-34.1-6.3-34.1,0.6c0,20.8-7.9,23.2-7.9,23.2h-1.1
					c-1,0-1.7,0.4-1.7,1.3v0.9c0,1,0.8,1.3,1.7,1.3h52.1c1,0,3.4-0.3,3.4-1.3v-0.9C-460-110.4-462.5-110.7-463.4-110.7z"/>
				<path fill="#4D4D4D" d="M-429-218.4h-121.2c-2.3,0-3.6,0.6-3.6,3v73.3v11.2c0,2.3,1.2,4.5,3.6,4.5H-429c2.3,0,3.7-2.2,3.7-4.5
					v-11.2v-73.3C-425.3-217.8-426.7-218.4-429-218.4z"/>
				<rect x="-548.6" y="-213.2" fill="#F0F0F0" width="116.4" height="67.7"/>
				<path fill="#B1B1B1" d="M-484.3-135.1c0,2.9-2.3,5.2-5.2,5.2l0,0c-2.9,0-5.2-2.3-5.2-5.2l0,0c0-2.9,2.3-5.2,5.2-5.2l0,0
					C-486.6-140.3-484.3-137.9-484.3-135.1L-484.3-135.1z"/>
			</g>
		</g>
		<g>
			<path fill="#FF4522" d="M-501.7-202.7c0,1-2.3,1.6-3.4,1.6h-21.8c-1.1,0-0.8-0.7-0.8-1.6v-3.4c0-1-0.3-1.9,0.8-1.9h21.8
				c1.1,0,3.4,0.9,3.4,1.9V-202.7z"/>
			<path fill="#47DCE3" d="M-449.6-180.7c0,1-2.7,2.2-3.8,2.2h-73.5c-1.1,0-0.8-1.3-0.8-2.2v-16.2c0-1-0.3-2.4,0.8-2.4h73.5
				c1.1,0,3.8,1.4,3.8,2.4V-180.7z"/>
			<path fill="#979797" d="M-505.2-155.1c0,2.1-0.7,6.1-1.9,6.1h-19.9c-1.1,0-0.8-4-0.8-6.1v-19.2c0-2.1-0.3-2.5,0.8-2.5h19.9
				c1.1,0,1.9,0.4,1.9,2.5V-155.1z"/>
			<path fill="#979797" d="M-479.1-155.1c0,2.1-0.5,6.1-1.7,6.1h-19.9c-1.1,0-1-4-1-6.1v-19.2c0-2.1-0.1-2.5,1-2.5h19.9
				c1.1,0,1.7,0.4,1.7,2.5V-155.1z"/>
			<path fill="#979797" d="M-449.6-155.1c0,2.1-2.7,6.1-3.8,6.1h-19.9c-1.1,0-2.4-4-2.4-6.1v-19.2c0-2.1,1.3-2.5,2.4-2.5h19.9
				c1.1,0,3.8,0.4,3.8,2.5V-155.1z"/>
		</g>
	</g>
	<g display="inline">
		<g>
			<g>
				<path fill="#4D4D4D" d="M-409.6-92.9c0,2.6-2,4.8-4.5,4.8h-47.1c-2.5,0-5.7-2.1-5.7-4.8v-64.9c0-2.6,3.2-3.3,5.7-3.3h47.1
					c2.5,0,4.5,0.7,4.5,3.3V-92.9z"/>
				<rect x="-460" y="-157.6" fill="#F0F0F0" width="45.2" height="57.3"/>
				<circle fill="#B1B1B1" cx="-437.6" cy="-94.2" r="3.8"/>
			</g>
		</g>
		<g>
			<path fill="#FF4522" d="M-439.2-149c0,0.7,0.7,1.7,0,1.7h-15c-0.8,0-2.4-1-2.4-1.7v-2.6c0-0.7,1.6-0.8,2.4-0.8h15
				c0.8,0,0,0.1,0,0.8V-149z"/>
			<path fill="#47DCE3" d="M-420-129.4c0,0.9-0.6,3-1.3,3h-32.9c-0.7,0-2.3-2.2-2.3-3v-13.5c0-0.9,1.6-2.5,2.3-2.5h32.9
				c0.7,0,1.3,1.7,1.3,2.5V-129.4z"/>
			<path fill="#979797" d="M-439.2-106.5c0,1.7-0.4,2.7-1.2,2.7h-13.7c-0.8,0-2.5-1-2.5-2.7v-16c0-1.7,1.6-2.1,2.5-2.1h13.7
				c0.8,0,1.2,0.4,1.2,2.1V-106.5z"/>
			<path fill="#979797" d="M-420-107.2c0,1.7-0.6,3.4-1.3,3.4h-14.7c-0.7,0-1.3-1.7-1.3-3.4v-14.3c0-1.7,0.6-3.1,1.3-3.1h14.7
				c0.7,0,1.3,1.4,1.3,3.1V-107.2z"/>
		</g>
	</g>
	<g display="inline">
		<g>
			<g>
				<path fill="#4D4D4D" d="M-444.4-92.2c0,2.1-2.8,4-5,4h-24.4c-2.1,0-1.9-1.9-1.9-4v-52.6c0-2.1-0.2-2.4,1.9-2.4h24.4
					c2.1,0,5,0.3,5,2.4V-92.2z"/>
				<g>
					<path fill="#4D4D4D" d="M-440.9-92.2c0,2.1-2.8,4-5,4h-24.4c-2.1,0-1.9-1.9-1.9-4v-52.6c0-2.1-0.2-2.4,1.9-2.4h24.4
						c2.1,0,5,0.3,5,2.4V-92.2z"/>
					<rect x="-472.2" y="-142" fill="#F0F0F0" width="27.8" height="46.9"/>
					<circle fill="#B1B1B1" cx="-458" cy="-92.7" r="2.3"/>
					<path fill="#B1B1B1" d="M-453.1-144.3c0,0.3-0.2,0.5-0.5,0.5h-11.1c-0.3,0-0.5-0.2-0.5-0.5v-0.7c0-0.3,0.2-0.5,0.5-0.5h11.1
						c0.3,0,0.5,0.2,0.5,0.5V-144.3z"/>
				</g>
			</g>
		</g>
		<g>
			<path fill="#FF4522" d="M-449.6-134.5c0,0.6-0.5,1.2-1.2,1.2h-18.5c-0.6,0-1.2-0.5-1.2-1.2v-2.9c0-0.6,0.5-1.2,1.2-1.2h18.5
				c0.6,0,1.2,0.5,1.2,1.2V-134.5z"/>
			<path fill="#47DCE3" d="M-449.6-120.6c0,0.6-0.5,1.2-1.2,1.2h-18.5c-0.6,0-1.2-0.5-1.2-1.2v-9.8c0-0.6,0.5-1.2,1.2-1.2h18.5
				c0.6,0,1.2,0.5,1.2,1.2V-120.6z"/>
			<path fill="#979797" d="M-447.8-110.9c0,0.6-1.2,1.9-1.9,1.9h-19.9c-0.7,0-0.9-1.3-0.9-1.9v-5.8c0-0.6,0.2-1,0.9-1h19.9
				c0.7,0,1.9,0.3,1.9,1V-110.9z"/>
			<path fill="#979797" d="M-447.8-101.4c0,0.6-1.2,1.1-1.9,1.1h-19.9c-0.7,0-0.9-0.5-0.9-1.1v-5.8c0-0.6,0.2-0.1,0.9-0.1h19.9
				c0.7,0,1.9-0.6,1.9,0.1V-101.4z"/>
		</g>
	</g>
</g>
<g id="RS" display="none">
	<polygon display="inline" fill="#F1F1F3" points="-570.7,-8.8 -571.3,2.9 -567.8,2.4 -564.1,-1.7 -560.4,-3.4 -529.5,-2.9 
		-517.3,-22 -517.9,-25.9 -551.6,-24.4 	"/>
	<polygon display="inline" fill="#F48732" stroke="#F1F1F3" stroke-width="6" stroke-miterlimit="10" points="-552.4,-24.4 
		-520.4,-24.4 -520.4,-74.4 -600.4,-74.4 -600.4,-24.4 -568.5,-24.4 -568.5,-8.8 	"/>
	<polygon display="inline" fill="#F48732" stroke="#F1F1F3" stroke-width="4" stroke-miterlimit="10" points="-595.9,4 -612,4 
		-612,-21.2 -571.7,-21.2 -571.7,4 -587.8,4 -587.8,11.9 	"/>
	
		<line display="inline" fill="none" stroke="#F1F1F3" stroke-width="2" stroke-miterlimit="10" x1="-583" y1="-57.2" x2="-537.9" y2="-57.2"/>
	
		<line display="inline" fill="none" stroke="#F1F1F3" stroke-width="2" stroke-miterlimit="10" x1="-603.5" y1="-12.5" x2="-579.8" y2="-12.5"/>
	
		<line display="inline" fill="none" stroke="#F1F1F3" stroke-width="2" stroke-miterlimit="10" x1="-603.5" y1="-4.9" x2="-589.5" y2="-4.9"/>
	
		<line display="inline" fill="none" stroke="#F1F1F3" stroke-width="2" stroke-miterlimit="10" x1="-583" y1="-49.5" x2="-553.8" y2="-49.5"/>
	
		<line display="inline" fill="none" stroke="#F1F1F3" stroke-width="2" stroke-miterlimit="10" x1="-583" y1="-41.6" x2="-576.3" y2="-41.6"/>
	
		<line display="inline" fill="none" stroke="#F1F1F3" stroke-width="2" stroke-miterlimit="10" x1="-567.8" y1="-41.6" x2="-545.1" y2="-41.6"/>
	<g display="inline">
		<path fill="#F1F1F3" d="M-462.7,8.1c2.5-3.7,3.2-8.7,1.5-12.8c-1.8-4.4-5.9-7-11-7l-19.5,0c0.7-4,1.6-9.6,1.5-10.8h0
			c-0.6-8.2-5.6-17.9-5.9-18.3c-1.5-2.8-6.1-5-10.6-5c-1,0-2,0.1-2.9,0.3c-7.3,1.6-9.1,6.7-9,9.4c0,0.5,0.2,8.4,0.3,11.7
			c-1.4,2.9-3.9,7.4-6.5,11.4c-2.7,4.4-4.6,6.9-5.7,8.1c-0.5-0.1-1-0.1-1.5-0.1h-30c-4.5,0-8.2,3.7-8.2,8.2v41.5l0,0.1
			c0.3,4.1,3.8,7.3,7.9,7.3h26.9c3,0,5.7-1.7,7-4.3c1.5,0.7,3.3,1.3,5.4,1.3h40.2c9.1,0,13.1-4.2,14.9-7.8c1.8-3.6,1.8-7.5,1.2-10.3
			c2.1-3.2,3.2-7.6,2-11.5C-462.8,16.8-461.3,12.6-462.7,8.1z"/>
		<path fill="#F48732" d="M-468.2,7.3c5.1-5,3.5-15.2-5.2-15.2l-23,0c0.9-4.9,2.2-12.9,2.1-13.7c-0.5-7.2-5.1-16-5.3-16.4
			c-0.8-1.6-5.1-3.7-9.4-2.8c-5.5,1.2-6.1,4.7-6,5.7c0,0,0.2,9.6,0.3,12.2c-2.6,5.8-11.7,21-14.5,22.2c-0.7-0.4-1.4-0.6-2.2-0.6
			h-29.1c-2.5,0-4.5,2-4.5,4.5v40.1c0.2,2.2,2,3.9,4.2,3.9h26.1c2.3,0,4.2-1.9,4.2-4.2v-1.3c0,0,1-0.1,1.4,0.2
			c1.7,1.1,3.8,2.4,6.5,2.4h39c14.6,0,13-12.9,11.7-14.7c2.5-2.7,4-7.4,1.9-11.1C-468.5,16.8-465.7,12.1-468.2,7.3L-468.2,7.3z"/>
		<rect x="-560.8" y="2.9" fill="#F48732" width="25.2" height="40.1"/>
		<path fill="#F1F1F3" d="M-475,7l-0.2,1c6.7,1.9,3.1,9.6-1.7,10.1l-0.2,1c6.4,1.6,3.4,9.6-1.7,10.1l-0.2,1c5.3,0.9,4,9.8-4,9.8
			l-39.6,0c-2.8,0-5.3-3.2-7.4-3.2h-1.8V6.1c2.2-1.4,5-3.2,6.5-4.5c2.9-2.5,14.7-21.6,14.7-24s-0.2-12.7-0.2-12.7s2.3-3,7.5-0.8
			c0,0,4.4,8.2,4.8,14.7c0,0-2,13.4-3,17.6h27.4C-467.4-3.6-468.7,6-475,7L-475,7z"/>
		<path d="M-475,7"/>
		<circle fill="#F1F1F3" cx="-548.2" cy="38.2" r="3.4"/>
	</g>
</g>
<g id="Marketing" display="none">
	<g display="inline">
		<path fill="#4D4D4D" stroke="#F1F1F3" stroke-width="6" stroke-miterlimit="10" d="M-221.6,266.6c0,0,6.1,7.7,11.6,14.2
			c5.5,6.4,13.2,12.3,13.2,12.3s3-0.8,8.1-3.2c5.1-2.4,5.6-3.5,5.6-3.5s-1.5-6.1-5.4-6.4c-0.6-2.4-1.8-5.5-4.8-5.6
			c-0.3-2.7-2.3-8.1-6.2-9c0.2-3-1.4-5.6-1.4-5.6L-221.6,266.6z"/>
		<path fill="#4D4D4D" stroke="#F1F1F3" stroke-width="6" stroke-miterlimit="10" d="M-194.4,258.9l3.5,7.9c0,0-0.9,1-2.3,1.3
			c-1.4,0.3-4.4-3.2-5.2-5c-0.8-1.8-1.6-4.1-1.6-4.1L-194.4,258.9z"/>
		<path fill="#4D4D4D" stroke="#F1F1F3" stroke-width="6" stroke-miterlimit="10" d="M-241.9,249.7c0,0-0.2,1.2,0.2,3.4
			c-2.2,1.9-3.1,5.2-2,8.1c1.1,2.9,4,4.7,7,4.6c1.3,1.9,2.2,2.7,2.2,2.7l6.7-0.9l-4.3-10.9l-4.3-10.9L-241.9,249.7z"/>
		<path fill="#8B71FB" stroke="#F1F1F3" stroke-width="6" stroke-miterlimit="10" d="M-172.1,233.3"/>
		<g>
			<path fill="#4D4D4D" stroke="#F1F1F3" stroke-width="6" stroke-miterlimit="10" d="M-158.5,268.1c1,0.4,2,0.1,2.7-0.2l0,0
				c3.2-1.3,4-4.4,3.2-8.4c0,0-0.7-6.3-10-30c-9.3-23.8-13.1-28.8-13.1-28.8c-2.6-3.6-4.9-4.8-8.2-3.6l0,0c-0.8,0.3-1.4,0.6-1.9,1.2
				l-0.5,0.8c0,0-3,6-10.3,18.1c-7.3,12.1-22.2,19-29.1,22.1c-6.9,3-8.9,3.2-10.4,5.1c-1.5,1.9,2.9,12.9,2.9,12.9s4.2,11,6.6,11.4
				c2.4,0.4,4-0.9,11.1-3.3c7.1-2.5,22.8-7.5,36.4-3.6C-165.4,265.6-158.5,268.1-158.5,268.1L-158.5,268.1z"/>
		</g>
		<g>
			<path fill="#4D4D4D" d="M-221.6,266.6c0,0,6.1,7.7,11.6,14.2c5.5,6.4,13.2,12.3,13.2,12.3s3-0.8,8.1-3.2c5.1-2.4,5.6-3.5,5.6-3.5
				s-1.5-6.1-5.4-6.4c-0.6-2.4-1.8-5.5-4.8-5.6c-0.3-2.7-2.3-8.1-6.2-9c0.2-3-1.4-5.6-1.4-5.6L-221.6,266.6z"/>
			<path fill="#4D4D4D" d="M-194.4,258.9l3.5,7.9c0,0-0.9,1-2.3,1.3c-1.4,0.3-4.4-3.2-5.2-5c-0.8-1.8-1.6-4.1-1.6-4.1L-194.4,258.9z
				"/>
			<g>
				<path fill="#4D4D4D" d="M-241.9,249.7c0,0-0.2,1.2,0.2,3.4c-2.2,1.9-3.1,5.2-2,8.1c1.1,2.9,4,4.7,7,4.6c1.3,1.9,2.2,2.7,2.2,2.7
					l6.7-0.9l-4.3-10.9l-4.3-10.9L-241.9,249.7z"/>
				<path fill="#8B71FB" d="M-196.7,217.3c-7.3,12-22.2,19-29.1,22c-6.9,3-8.9,3.2-10.4,5.1c-1.5,1.9,2.9,12.8,2.9,12.8
					s4.2,11,6.5,11.4c2.4,0.4,4-0.9,11.1-3.3c7.1-2.4,22.7-7.5,36.3-3.6c13.5,3.9,20.5,6.3,20.5,6.3l-13.5-34.6l-13.5-34.6
					C-185.9,198.7-189.3,205.3-196.7,217.3z"/>
				<path fill="#6656C5" d="M-203,244.7c-11.2,4.4-20.7,10.9-27.6,18.3c1.3,2.7,2.8,5.2,4,5.4c2.4,0.4,4-0.9,11.1-3.3
					c7.1-2.4,22.7-7.5,36.3-3.6c13.5,3.9,20.5,6.3,20.5,6.3l-11.1-28.5C-180.3,238.6-191.7,240.3-203,244.7z"/>
			</g>
			<g>
				<path fill="#4D4D4D" d="M-152.6,259.5c0.8,4-0.3,6.9-3.6,8.2l0,0c-3.2,1.3-6.1,0-8.2-3.6c0,0-3-3-13.1-28.8
					c-10.1-25.8-10-30-10-30c-0.2-4.1,0.3-6.9,3.6-8.2l0,0c3.2-1.3,5.6-0.1,8.2,3.6c0,0,3.8,5.1,13.1,28.8
					C-153.3,253.2-152.6,259.5-152.6,259.5z"/>
				<path fill="#F1F1F3" d="M-163.7,229.9c6.8,17.5,9.2,32.9,9.2,32.9s-8.7-12.9-15.5-30.4c-6.8-17.5-9.2-32.9-9.2-32.9
					S-170.5,212.4-163.7,229.9z"/>
			</g>
		</g>
	</g>
	<g display="inline">
		<g>
			<path fill="#4D4D4D" stroke="#F1F1F3" stroke-width="6" stroke-miterlimit="10" d="M-135.8,219.9c0.2,0.6-0.1,1.3-0.7,1.5
				l-21,7.2c-0.6,0.2-1.3-0.1-1.5-0.7l0,0c-0.2-0.6,0.1-1.3,0.7-1.5l21-7.2C-136.7,219-136,219.3-135.8,219.9L-135.8,219.9z"/>
			<g>
				<path fill="#4D4D4D" stroke="#F1F1F3" stroke-width="6" stroke-miterlimit="10" d="M-151.3,195.5c0.6,0.3,0.8,1,0.5,1.6
					l-9.8,19.9c-0.3,0.6-1,0.8-1.6,0.5l0,0c-0.6-0.3-0.8-1-0.5-1.6l9.8-19.9C-152.6,195.5-151.9,195.3-151.3,195.5L-151.3,195.5z"/>
				<path fill="#4D4D4D" stroke="#F1F1F3" stroke-width="6" stroke-miterlimit="10" d="M-133.2,248.7c0.3-0.6,0-1.3-0.5-1.6
					l-19.9-9.8c-0.6-0.3-1.3,0-1.6,0.5l0,0c-0.3,0.6,0,1.3,0.5,1.6l19.9,9.8C-134.2,249.5-133.5,249.3-133.2,248.7L-133.2,248.7z"/>
			</g>
		</g>
		<g>
			<path fill="#4D4D4D" d="M-135.8,219.9c0.2,0.6-0.1,1.3-0.7,1.5l-21,7.2c-0.6,0.2-1.3-0.1-1.5-0.7l0,0c-0.2-0.6,0.1-1.3,0.7-1.5
				l21-7.2C-136.7,219-136,219.3-135.8,219.9L-135.8,219.9z"/>
			<g>
				<path fill="#4D4D4D" d="M-151.3,195.5c0.6,0.3,0.8,1,0.5,1.6l-9.8,19.9c-0.3,0.6-1,0.8-1.6,0.5l0,0c-0.6-0.3-0.8-1-0.5-1.6
					l9.8-19.9C-152.6,195.5-151.9,195.3-151.3,195.5L-151.3,195.5z"/>
				<path fill="#4D4D4D" d="M-133.2,248.7c0.3-0.6,0-1.3-0.5-1.6l-19.9-9.8c-0.6-0.3-1.3,0-1.6,0.5l0,0c-0.3,0.6,0,1.3,0.5,1.6
					l19.9,9.8C-134.2,249.5-133.5,249.3-133.2,248.7L-133.2,248.7z"/>
			</g>
		</g>
	</g>
	<g display="inline">
		<g>
			<g>
				<polygon fill="#54CAD7" stroke="#F1F1F3" stroke-width="6" stroke-miterlimit="10" points="-27.8,260.3 -27.8,266.2 -122,266.2 
					-122,172 -116.2,172 -116.2,260.3 				"/>
				<polygon fill="#4D4D4D" stroke="#F1F1F3" stroke-width="6" stroke-miterlimit="10" points="-80.3,204.7 -56.2,210.7 
					-47.9,196.8 -40.4,201.4 -40,177.9 -60.5,189.3 -53,193.8 -59,203.9 -82.1,198.2 -106.9,222.9 -102.7,227.1 				"/>
				<polygon fill="#F1F1F3" stroke="#F1F1F3" stroke-width="6" stroke-miterlimit="10" points="-111.5,226.8 -111.5,254.5 
					-40.4,254.5 -40.4,203.6 -78.6,205 				"/>
			</g>
		</g>
		<g>
			<g>
				<polygon fill="#54CAD7" points="-27.8,260.3 -27.8,266.2 -122,266.2 -122,172 -116.2,172 -116.2,260.3 				"/>
				<polygon fill="#4D4D4D" points="-79.9,204.7 -55.8,210.7 -47.5,196.8 -40,201.4 -39.6,177.9 -60.1,189.3 -52.6,193.8 
					-58.6,203.9 -81.7,198.2 -106.5,222.9 -102.3,227.1 				"/>
				<polygon fill="#54CAD7" points="-86.7,254.5 -74.9,254.5 -74.9,212 -78.1,211.2 -86.7,219.8 				"/>
				<polygon fill="#54CAD7" points="-104.4,233.3 -104.4,254.5 -92.6,254.5 -92.6,225.7 -102.3,235.4 				"/>
				<polygon fill="#54CAD7" points="-52.3,214.7 -52.3,254.5 -40.6,254.5 -40.6,208.5 -46.5,204.9 				"/>
				<polygon fill="#54CAD7" points="-57.2,254.5 -57.2,216.4 -69,213.5 -69,254.5 				"/>
			</g>
		</g>
	</g>
</g>
<g id="Android" display="none">
	<g display="inline">
		<path fill="#FFFFFF" stroke="#F1F1F3" stroke-width="6" stroke-miterlimit="10" d="M-477,181c-4.3,0-7.7,3.5-7.7,7.7h0v13.2v6.2
			v13.2h0c0,4.3,3.5,7.7,7.7,7.7c4.3,0,7.7-3.5,7.7-7.7l0,0v-13.2v-6.2v-13.2l0,0C-469.2,184.5-472.7,181-477,181z"/>
		<path fill="#FFFFFF" stroke="#F1F1F3" stroke-width="6" stroke-miterlimit="10" d="M-378,188.8c0-4.3-3.5-7.7-7.7-7.7
			c-4.3,0-7.7,3.5-7.7,7.7h0v13.2v6.2v13.2h0c0,4.3,3.5,7.7,7.7,7.7c4.3,0,7.7-3.5,7.7-7.7l0,0v-13.2v-6.2V188.8L-378,188.8z"/>
		<path fill="#FFFFFF" stroke="#F1F1F3" stroke-width="6" stroke-miterlimit="10" d="M-466.1,182.4h-0.4v51.1c0,4.3,3.5,7.8,7.7,7.8
			h6.5v4.6V259l0,0c0,4.3,3.5,7.7,7.7,7.7c4.3,0,7.7-3.5,7.7-7.7l0,0v-13.2v-4.6h10.6v4.6V259c0,4.3,3.5,7.7,7.8,7.7
			c4.3,0,7.7-3.5,7.7-7.7v-13.2v-4.6h6.5c4.3,0,7.7-3.5,7.7-7.8v-51.1h-0.1H-466.1z"/>
		<path fill="#FFFFFF" stroke="#F1F1F3" stroke-width="6" stroke-miterlimit="10" d="M-396.4,179.7v-3.7c-0.1-1.1-0.3-2.1-0.5-3.1
			c-1.9-9.1-8.3-16.8-17-21.3l5.4-9.9c0.3-0.6,0.1-1.4-0.5-1.7c-0.6-0.3-1.4-0.1-1.7,0.5l-5.4,10c-4.6-2-9.8-3.1-15.2-3.1
			c-5.5,0-10.7,1.1-15.3,3.1l-5.4-10c-0.3-0.6-1.1-0.8-1.7-0.5c-0.6,0.3-0.8,1.1-0.5,1.7l5.4,9.9c-8.3,4.3-14.4,11.5-16.6,20.1
			c-0.6,2.2-0.9,4.5-0.9,6.9c0,0.4,0,0.7,0,1.1H-396.4z M-415.4,160.7c1.8,0,3.3,1.5,3.3,3.3s-1.5,3.3-3.3,3.3
			c-1.8,0-3.3-1.5-3.3-3.3S-417.2,160.7-415.4,160.7z M-447.3,160.7c1.8,0,3.3,1.5,3.3,3.3s-1.5,3.3-3.3,3.3c-1.8,0-3.3-1.5-3.3-3.3
			S-449.1,160.7-447.3,160.7z"/>
	</g>
	<path display="inline" fill="#4D4D4D" stroke="#F1F1F3" stroke-width="6" stroke-miterlimit="10" d="M-353.6,223.9
		c0.1,14.8,13,19.7,13.1,19.8c-0.1,0.3-2.1,7-6.8,13.9c-4.1,6-8.3,11.9-15,12c-6.5,0.1-8.7-3.9-16.1-3.9c-7.5,0-9.8,3.8-16,4
		c-6.4,0.2-11.3-6.4-15.4-12.4c-8.4-12.1-14.8-34.3-6.2-49.3c4.3-7.4,11.9-12.1,20.2-12.3c6.3-0.1,12.3,4.2,16.1,4.2
		c3.9,0,11.1-5.3,18.7-4.5c3.2,0.1,12.1,1.3,17.9,9.7C-343.5,205.6-353.7,211.5-353.6,223.9 M-365.9,187.6c3.4-4.1,5.7-9.9,5.1-15.6
		c-4.9,0.2-10.9,3.3-14.4,7.4c-3.2,3.7-5.9,9.5-5.2,15.1C-374.9,194.9-369.3,191.7-365.9,187.6"/>
	<g display="inline">
		<path fill="#A2C839" d="M-477,181c-4.3,0-7.7,3.5-7.7,7.7h0v13.2v6.2v13.2h0c0,4.3,3.5,7.7,7.7,7.7c4.3,0,7.7-3.5,7.7-7.7l0,0
			v-13.2v-6.2v-13.2l0,0C-469.2,184.5-472.7,181-477,181z"/>
		<path fill="#A2C839" d="M-378,188.8c0-4.3-3.5-7.7-7.7-7.7c-4.3,0-7.7,3.5-7.7,7.7h0v13.2v6.2v13.2h0c0,4.3,3.5,7.7,7.7,7.7
			c4.3,0,7.7-3.5,7.7-7.7l0,0v-13.2v-6.2V188.8L-378,188.8z"/>
		<path fill="#A2C839" d="M-466.1,182.4h-0.4v51.1c0,4.3,3.5,7.8,7.7,7.8h6.5v4.6V259l0,0c0,4.3,3.5,7.7,7.7,7.7
			c4.3,0,7.7-3.5,7.7-7.7l0,0v-13.2v-4.6h10.6v4.6V259c0,4.3,3.5,7.7,7.8,7.7c4.3,0,7.7-3.5,7.7-7.7v-13.2v-4.6h6.5
			c4.3,0,7.7-3.5,7.7-7.8v-51.1h-0.1H-466.1z"/>
		<path fill="#A2C839" d="M-396.4,179.7v-3.7c-0.1-1.1-0.3-2.1-0.5-3.1c-1.9-9.1-8.3-16.8-17-21.3l5.4-9.9c0.3-0.6,0.1-1.4-0.5-1.7
			c-0.6-0.3-1.4-0.1-1.7,0.5l-5.4,10c-4.6-2-9.8-3.1-15.2-3.1c-5.5,0-10.7,1.1-15.3,3.1l-5.4-10c-0.3-0.6-1.1-0.8-1.7-0.5
			c-0.6,0.3-0.8,1.1-0.5,1.7l5.4,9.9c-8.3,4.3-14.4,11.5-16.6,20.1c-0.6,2.2-0.9,4.5-0.9,6.9c0,0.4,0,0.7,0,1.1H-396.4z
			 M-415.4,160.7c1.8,0,3.3,1.5,3.3,3.3s-1.5,3.3-3.3,3.3c-1.8,0-3.3-1.5-3.3-3.3S-417.2,160.7-415.4,160.7z M-447.3,160.7
			c1.8,0,3.3,1.5,3.3,3.3s-1.5,3.3-3.3,3.3c-1.8,0-3.3-1.5-3.3-3.3S-449.1,160.7-447.3,160.7z"/>
	</g>
	<path display="inline" fill="#4D4D4D" d="M-353.6,223.9c0.1,14.8,13,19.7,13.1,19.8c-0.1,0.3-2.1,7-6.8,13.9c-4.1,6-8.3,11.9-15,12
		c-6.5,0.1-8.7-3.9-16.1-3.9c-7.5,0-9.8,3.8-16,4c-6.4,0.2-11.3-6.4-15.4-12.4c-8.4-12.1-14.8-34.3-6.2-49.3
		c4.3-7.4,11.9-12.1,20.2-12.3c6.3-0.1,12.3,4.2,16.1,4.2c3.9,0,11.1-5.3,18.7-4.5c3.2,0.1,12.1,1.3,17.9,9.7
		C-343.5,205.6-353.7,211.5-353.6,223.9 M-365.9,187.6c3.4-4.1,5.7-9.9,5.1-15.6c-4.9,0.2-10.9,3.3-14.4,7.4
		c-3.2,3.7-5.9,9.5-5.2,15.1C-374.9,194.9-369.3,191.7-365.9,187.6"/>
</g>
<g id="Nube" display="none">
	<path id="MobileMe_1_" display="inline" fill="#54CAD7" stroke="#F1F1F3" stroke-width="7" stroke-miterlimit="10" d="M-355.5-100
		c0,20.8,16.8,37.7,37.4,37.7h115.8c20.7,0,37.4-16.9,37.4-37.7c0-18.8-13.7-34.4-31.5-37.2c0.2-1.3,0.4-2.7,0.4-4.1
		c0-13.2-10.6-23.9-23.7-23.9c-5.8,0-11.2,2.1-15.3,5.7c-7.4-16.7-16.8-32-43.3-32c-32.1,0-47.4,25-47.4,51.3c0,1.1,0,2.2,0.1,3.3
		C-342.7-133.4-355.5-118.2-355.5-100z"/>
	<path id="MobileMe_3_" display="inline" fill="#54CAD7" d="M-355.5-100c0,20.8,16.8,37.7,37.4,37.7h115.8
		c20.7,0,37.4-16.9,37.4-37.7c0-18.8-13.7-34.4-31.5-37.2c0.2-1.3,0.4-2.7,0.4-4.1c0-13.2-10.6-23.9-23.7-23.9
		c-5.8,0-11.2,2.1-15.3,5.7c-7.4-16.7-16.8-32-43.3-32c-32.1,0-47.4,25-47.4,51.3c0,1.1,0,2.2,0.1,3.3
		C-342.7-133.4-355.5-118.2-355.5-100z"/>
	<g display="inline">
		<path fill="#4D4D4D" d="M-294.8-123c-0.6,0-1.1,0.1-1.6,0.3c0.3,0.4,0.5,0.9,0.5,1.5c0,1.5-1.2,2.6-2.6,2.6c-0.4,0-0.7-0.1-1-0.2
			c0,0.1,0,0.1,0,0.2c0,2.4,2.2,4.4,4.8,4.4c2.7,0,4.8-2,4.8-4.4C-290-121.1-292.2-123-294.8-123z"/>
		<path fill="#4D4D4D" d="M-222.9-106.3c1.9-5.3,0.8-11.5-3.5-15.8c-4.1-4.1-9.8-5.4-15-3.7c-0.7,0.2-1,1.2,0,1.5
			c0.7,0.3,0.9,0.2,1.9,0.7c1.1,0.5,4.9,3.2,6.3,5.3c1.3,2.1,1.9,7.5-0.7,10.1c0,0-0.1,0.1-0.1,0.1c0,0-0.1,0.1-0.1,0.1
			c-2.6,2.6-8,2-10.1,0.7c-2.1-1.3-4.9-5.2-5.3-6.3c-0.5-1.1-0.4-1.2-0.7-1.9c-0.3-1-1.3-0.7-1.5,0c-1.7,5.2-0.4,10.9,3.7,15
			c4.3,4.3,10.7,5.5,16.1,3.4l22.7,22.7c2.6,2.6,6.7,2.6,9.2,0c2.6-2.6,2.6-6.7,0-9.2L-222.9-106.3z M-202.4-76.7
			c-1.2,1.2-3.1,1.2-4.2,0c-1.2-1.2-1.2-3.1,0-4.3c1.2-1.2,3.1-1.2,4.3,0C-201.2-79.8-201.2-77.9-202.4-76.7z"/>
		<path fill="#4D4D4D" d="M-272.1-118.6c-1.5,0-2.6-1.2-2.6-2.6c0-0.6,0.2-1.1,0.5-1.5c-0.5-0.2-1.1-0.3-1.6-0.3
			c-2.7,0-4.8,2-4.8,4.4c0,2.4,2.2,4.4,4.8,4.4c2.7,0,4.8-2,4.8-4.4c0-0.1,0-0.1,0-0.2C-271.4-118.7-271.7-118.6-272.1-118.6z"/>
		<path fill="#4D4D4D" d="M-185.5-115.4c-0.2-0.7-1.2-1-1.5,0c-0.3,0.7-0.2,0.9-0.7,1.9c-0.5,1.1-3.2,4.9-5.3,6.3
			c-2.1,1.3-7.5,1.9-10.1-0.7c0,0-0.1-0.1-0.1-0.1c0,0-0.1-0.1-0.1-0.1c-2.6-2.6-2-8-0.7-10.1c1.3-2.1,5.2-4.9,6.3-5.3
			c1.1-0.5,1.2-0.4,1.9-0.7c1-0.3,0.7-1.3,0-1.5c-5.2-1.7-10.9-0.4-15,3.7c-4.3,4.3-5.4,10.5-3.5,15.8l-22.8,22.8
			c-2.6,2.6-2.6,6.7,0,9.2c2.6,2.6,6.7,2.6,9.2,0l22.7-22.7c5.4,2.1,11.7,1,16.1-3.4C-185.1-104.5-183.8-110.2-185.5-115.4z
			 M-230.7-76.7c-1.2,1.2-3.1,1.2-4.2,0c-1.2-1.2-1.2-3.1,0-4.2c1.2-1.2,3.1-1.2,4.3,0C-229.6-79.8-229.6-77.9-230.7-76.7z"/>
		<path fill="#4D4D4D" d="M-252.2-136.3c0-1.3-0.5-1.8-1.7-1.8c-0.1,0-1.1,0-2.7,0c-0.1-1-0.2-2.1-0.2-3.1c0-9.7-6.4-18.3-14-23.6
			c0,0.2,0,0.4,0,0.6c0,0.7-0.1,1.5-0.1,2.2c-0.1,0.7-0.2,1.5-0.2,2.2c-0.1,1.5-0.4,2.9-0.7,4.3c-0.3,1.4-0.6,2.7-1,3.9
			c-0.4,1.2-0.8,2.4-1.2,3.4c-0.8,2.1-1.7,3.8-2.3,4.9c-0.7,1.1-1.1,1.7-1.1,1.7s0-0.2,0-0.5c0-0.3,0-0.9,0.1-1.5
			c0.1-1.3,0.2-3.1,0.3-5.3c0.2-2.2,0.3-4.7,0.5-7.3c0.1-1.3,0.1-2.7,0.2-4.1c0-0.7,0.1-1.4,0.1-2.1c0-0.7,0-1.4,0.1-2.1
			c0.1-1.2,0.1-2.4,0.1-3.6c-3.2-1.5-6.3-2.4-9.1-2.5c-2.8,0.1-5.9,1-9.1,2.5c0,1.2,0,2.4,0.1,3.6c0,0.7,0,1.4,0.1,2.1
			c0,0.7,0.1,1.4,0.1,2.1c0.1,1.4,0.1,2.8,0.2,4.1c0.2,2.6,0.3,5.1,0.5,7.3c0.1,2.2,0.2,4,0.3,5.3c0.1,0.6,0.1,1.2,0.1,1.5
			c0,0.4,0,0.5,0,0.5s-0.5-0.6-1.1-1.7c-0.7-1.1-1.5-2.8-2.3-4.9c-0.4-1-0.8-2.2-1.2-3.4c-0.3-1.2-0.7-2.5-1-3.9
			c-0.3-1.4-0.6-2.8-0.7-4.3c-0.1-0.7-0.2-1.5-0.2-2.2c0-0.7-0.1-1.5-0.1-2.2c0-0.2,0-0.4,0-0.6c-7.6,5.3-14,13.9-14,23.6
			c0,1.1-0.1,2.1-0.2,3.1c-1.6,0-2.6,0-2.7,0c-1.2,0-1.7,0.5-1.7,1.8c0,1.3,0,8.1,0,8.1h3.9c0,0.8-0.1,1.6-0.1,2.4
			c0,18.8,12.8,33.5,29.3,33.5c0,0,0,0,0,0s0,0,0,0c16.4,0,29.3-14.7,29.3-33.5c0-0.8,0-1.6-0.1-2.4h3.9
			C-252.2-128.1-252.2-135-252.2-136.3z M-285.2-95.4C-285.2-95.4-285.2-95.4-285.2-95.4C-285.2-95.4-285.3-95.4-285.2-95.4
			c-14.7,0-26.1-13.3-26.1-30.3c0-0.8,0-1.6,0.1-2.4h26h26c0.1,0.8,0.1,1.6,0.1,2.4C-259.2-108.7-270.6-95.4-285.2-95.4z"/>
	</g>
</g>
<g id="Cerebro_1_" display="none">
	<g display="inline">
		<g>
			<g>
				<path fill="#4D4D4D" stroke="#F1F1F3" stroke-width="6" stroke-miterlimit="10" d="M-301.5,51.2v56.2c0,0,1.2,9.8,9.5,10.1
					c0,0,9.4,2.4,13.9-4.6c0,0,9-0.4,11.6-10.3c0,0,5.1-2.8,4.2-11.9c0,0,4.9-6.4,0-12.1c0,0,2.9-6.4-3.1-11.1c0,0,0.4-8.4-7.8-11
					c0,0-1.2-5.9-11.7-6.5c0,0-1.7-5.6-8.3-5.3C-300,44.8-300.8,49.8-301.5,51.2z"/>
				<path fill="#F8F8F8" stroke="#F1F1F3" stroke-width="6" stroke-miterlimit="10" d="M-299.5,51.1c0,0,4-8,11.5-3
					c0,0,5,5.4,0,10.2c0,0-0.9,1.3-4.6,1.9c0,0,0.2-3.1-1.5-2.4c0,0-0.6,0.2-0.2,1.1c0,0,1.2,1.8-0.2,4.4c0,0-0.4,1.8,1.1,0.8
					c0,0,1-1.5,0.9-1.9c0,0,3.4-0.2,6-2.5c0,0,3.1-2,2.7-7.7c0,0,6.3-0.8,9.4,5.9c0,0,7,1.3,6.8,9.2c0,0-0.4,8.8-7.9,10.4
					c0,0-2.8,0.4-4.6,0c0,0,0.7-3.7,0.6-5c0,0,1.9-1.7,1.9-2.1c0,0-0.1-1.1-1.4-0.4c0,0-0.3,1.9-4.4,0.8c0,0-1.9,0,0,1.2
					c0,0,1,0.4,1.6,0.4c0,0,1.8,7.9-6,8.2c0,0-8.6-3.1-11.4-14.6V51.1z"/>
				<path fill="#F8F8F8" stroke="#F1F1F3" stroke-width="6" stroke-miterlimit="10" d="M-276.8,91c0,0,5,3.7,10.6,0.5
					c0,0,7.8-3.2,1.8-12.3c0,0,2.7-5.9-1.4-9.2c0,0-3,11.9-15.5,9.7c0,0-1.7,1.9-3.2,2.5l3.8,0.4c0,0,2,1.7-0.6,2.4
					c0,0-11.5-0.2-18.1-11.7v34.3c0,0,2,8.9,10.3,8.8c0,0,10-0.1,11.5-8.8c0,0,1.5-6.4-3.3-10c0,0,0.1-2.5,2-1.3c0,0,6,5.6,2.5,14.3
					c0,0,5.6-0.1,8.8-9c0,0,4.5-3.6,4-8.9c0,0-4.9,2.8-8.9,2.1c0,0-3.8-0.9-4.6-2.1c0,0-5,5.1-11.9,1.3c0,0-1.4,1.8-2.6,0.8
					c0,0,0.8-0.7,2.5-2.2l-0.1-2.8c0,0,1.4-1.1,1.3,0.5l0.1,2.2c0,0,5.7,3.2,10.1-2.2"/>
			</g>
			<g>
				<path fill="#4D4D4D" stroke="#F1F1F3" stroke-width="6" stroke-miterlimit="10" d="M-302.6,51.2v56.2c0,0-1.2,9.8-9.5,10.1
					c0,0-9.4,2.4-13.9-4.6c0,0-9-0.4-11.6-10.3c0,0-5.1-2.8-4.2-11.9c0,0-4.9-6.4,0-12.1c0,0-2.9-6.4,3.1-11.1c0,0-0.4-8.4,7.8-11
					c0,0,1.2-5.9,11.7-6.5c0,0,1.7-5.6,8.3-5.3C-304.2,44.8-303.4,49.8-302.6,51.2z"/>
				<path fill="#F8F8F8" stroke="#F1F1F3" stroke-width="6" stroke-miterlimit="10" d="M-304.7,51.1c0,0-4-8-11.5-3
					c0,0-5,5.4,0,10.2c0,0,0.9,1.3,4.6,1.9c0,0-0.2-3.1,1.5-2.4c0,0,0.6,0.2,0.2,1.1c0,0-1.2,1.8,0.2,4.4c0,0,0.4,1.8-1.1,0.8
					c0,0-1-1.5-0.9-1.9c0,0-3.4-0.2-6-2.5c0,0-3.1-2-2.7-7.7c0,0-6.3-0.8-9.4,5.9c0,0-7,1.3-6.8,9.2c0,0,0.4,8.8,7.9,10.4
					c0,0,2.8,0.4,4.6,0c0,0-0.7-3.7-0.6-5c0,0-1.9-1.7-1.9-2.1c0,0,0.1-1.1,1.4-0.4c0,0,0.3,1.9,4.4,0.8c0,0,1.9,0,0,1.2
					c0,0-1,0.4-1.6,0.4c0,0-1.8,7.9,6,8.2c0,0,8.6-3.1,11.4-14.6V51.1z"/>
				<path fill="#F8F8F8" stroke="#F1F1F3" stroke-width="6" stroke-miterlimit="10" d="M-327.3,91c0,0-5,3.7-10.6,0.5
					c0,0-7.8-3.2-1.8-12.3c0,0-2.7-5.9,1.4-9.2c0,0,3,11.9,15.5,9.7c0,0,1.7,1.9,3.2,2.5l-3.8,0.4c0,0-2,1.7,0.6,2.4
					c0,0,11.5-0.2,18.1-11.7v34.3c0,0-2,8.9-10.3,8.8c0,0-10-0.1-11.5-8.8c0,0-1.5-6.4,3.3-10c0,0-0.1-2.5-2-1.3c0,0-6,5.6-2.5,14.3
					c0,0-5.6-0.1-8.8-9c0,0-4.5-3.6-4-8.9c0,0,4.9,2.8,8.9,2.1c0,0,3.8-0.9,4.6-2.1c0,0,5,5.1,11.9,1.3c0,0,1.4,1.8,2.6,0.8
					c0,0-0.8-0.7-2.5-2.2l0.1-2.8c0,0-1.4-1.1-1.3,0.5l-0.1,2.2c0,0-5.7,3.2-10.1-2.2"/>
			</g>
		</g>
		<g>
			<path fill="#4D4D4D" stroke="#F1F1F3" stroke-width="6" stroke-miterlimit="10" d="M-287.6,120.5h-29c-1.2,0-2.2,0.8-2.2,1.8v1.2
				c0,1,1,1.8,2.2,1.8h29c1.2,0,2.2-0.8,2.2-1.8v-1.2C-285.4,121.3-286.4,120.5-287.6,120.5z"/>
			<path fill="#4D4D4D" stroke="#F1F1F3" stroke-width="6" stroke-miterlimit="10" d="M-287.6,127.7h-29c-1.2,0-2.2,0.8-2.2,1.8v1.2
				c0,1,1,1.8,2.2,1.8h29c1.2,0,2.2-0.8,2.2-1.8v-1.2C-285.4,128.5-286.4,127.7-287.6,127.7z"/>
			<path fill="#4D4D4D" stroke="#F1F1F3" stroke-width="6" stroke-miterlimit="10" d="M-287.6,134.9h-29c-1.2,0-2.2,0.8-2.2,1.8v1.2
				c0,1,1,1.8,2.2,1.8h29c1.2,0,2.2-0.8,2.2-1.8v-1.2C-285.4,135.7-286.4,134.9-287.6,134.9z"/>
			<path fill="#4D4D4D" stroke="#F1F1F3" stroke-width="6" stroke-miterlimit="10" d="M-312.9,142.1h21.7c0,3.6-5.8,6-10.9,6
				C-307.2,148.1-312.9,145.7-312.9,142.1z"/>
		</g>
		<path fill="#4D4D4D" stroke="#F1F1F3" stroke-width="6" stroke-miterlimit="10" d="M-299.3,38.4c0,1.5-1.2,2.7-2.7,2.7l0,0
			c-1.5,0-2.7-1.2-2.7-2.7v-19c0-1.5,1.2-2.7,2.7-2.7l0,0c1.5,0,2.7,1.2,2.7,2.7V38.4z"/>
		<path fill="#4D4D4D" stroke="#F1F1F3" stroke-width="6" stroke-miterlimit="10" d="M-253.8,88c-1.5,0-2.7-1.2-2.7-2.7l0,0
			c0-1.5,1.2-2.7,2.7-2.7h19c1.5,0,2.7,1.2,2.7,2.7l0,0c0,1.5-1.2,2.7-2.7,2.7H-253.8z"/>
		<path fill="#4D4D4D" stroke="#F1F1F3" stroke-width="6" stroke-miterlimit="10" d="M-369.6,88c-1.5,0-2.7-1.2-2.7-2.7l0,0
			c0-1.5,1.2-2.7,2.7-2.7h19c1.5,0,2.7,1.2,2.7,2.7l0,0c0,1.5-1.2,2.7-2.7,2.7H-369.6z"/>
		<path fill="#4D4D4D" stroke="#F1F1F3" stroke-width="6" stroke-miterlimit="10" d="M-268.4,49.8c-1.1,1.1-2.8,1.1-3.9,0l0,0
			c-1.1-1.1-1.1-2.8,0-3.9l13.4-13.4c1.1-1.1,2.8-1.1,3.9,0l0,0c1.1,1.1,1.1,2.8,0,3.9L-268.4,49.8z"/>
		<path fill="#4D4D4D" stroke="#F1F1F3" stroke-width="6" stroke-miterlimit="10" d="M-335.8,49.8c1.1,1.1,2.8,1.1,3.9,0l0,0
			c1.1-1.1,1.1-2.8,0-3.9l-13.4-13.4c-1.1-1.1-2.8-1.1-3.9,0l0,0c-1.1,1.1-1.1,2.8,0,3.9L-335.8,49.8z"/>
	</g>
	<g display="inline">
		<g>
			<g>
				<g>
					<path fill="#F1F1F3" d="M-301.4,51.3v56.2c0,0,1.2,9.8,9.5,10.1c0,0,9.4,2.4,13.9-4.6c0,0,9-0.4,11.6-10.3
						c0,0,5.1-2.8,4.2-11.9c0,0,4.9-6.4,0-12.1c0,0,2.9-6.4-3.1-11.1c0,0,0.4-8.4-7.8-11c0,0-1.2-5.9-11.7-6.5c0,0-1.7-5.6-8.3-5.3
						C-299.8,44.9-300.7,49.9-301.4,51.3z"/>
					<path fill="#BEF35B" d="M-299.4,51.2c0,0,4-8,11.5-3c0,0,5,5.4,0,10.2c0,0-0.9,1.3-4.6,1.9c0,0,0.2-3.1-1.5-2.4
						c0,0-0.6,0.2-0.2,1.1c0,0,1.2,1.8-0.2,4.4c0,0-0.4,1.8,1.1,0.8c0,0,1-1.5,0.9-1.9c0,0,3.4-0.2,6-2.5c0,0,3.1-2,2.7-7.7
						c0,0,6.3-0.8,9.4,5.9c0,0,7,1.3,6.8,9.2c0,0-0.4,8.8-7.9,10.4c0,0-2.8,0.4-4.6,0c0,0,0.7-3.7,0.6-5c0,0,1.9-1.7,1.9-2.1
						c0,0-0.1-1.1-1.4-0.4c0,0-0.3,1.9-4.4,0.8c0,0-1.9,0,0,1.2c0,0,1,0.4,1.6,0.4c0,0,1.8,7.9-6,8.2c0,0-8.6-3.1-11.4-14.6V51.2z"
						/>
					<path fill="#BEF35B" d="M-276.7,91.1c0,0,5,3.7,10.6,0.5c0,0,7.8-3.2,1.8-12.3c0,0,2.7-5.9-1.4-9.2c0,0-3,11.9-15.5,9.7
						c0,0-1.7,1.9-3.2,2.5l3.8,0.4c0,0,2,1.7-0.6,2.4c0,0-11.5-0.2-18.1-11.7v34.3c0,0,2,8.9,10.3,8.8c0,0,10-0.1,11.5-8.8
						c0,0,1.5-6.4-3.3-10c0,0,0.1-2.5,2-1.3c0,0,6,5.6,2.5,14.3c0,0,5.6-0.1,8.8-9c0,0,4.5-3.6,4-8.9c0,0-4.9,2.8-8.9,2.1
						c0,0-3.8-0.9-4.6-2.1c0,0-5,5.1-11.9,1.3c0,0-1.4,1.8-2.6,0.8c0,0,0.8-0.7,2.5-2.2l-0.1-2.8c0,0,1.4-1.1,1.3,0.5l0.1,2.2
						c0,0,5.7,3.2,10.1-2.2"/>
				</g>
				<g>
					<path fill="#F1F1F3" d="M-302.5,51.3v56.2c0,0-1.2,9.8-9.5,10.1c0,0-9.4,2.4-13.9-4.6c0,0-9-0.4-11.6-10.3
						c0,0-5.1-2.8-4.2-11.9c0,0-4.9-6.4,0-12.1c0,0-2.9-6.4,3.1-11.1c0,0-0.4-8.4,7.8-11c0,0,1.2-5.9,11.7-6.5c0,0,1.7-5.6,8.3-5.3
						C-304.1,44.9-303.2,49.9-302.5,51.3z"/>
					<path fill="#BEF35B" d="M-304.5,51.2c0,0-4-8-11.5-3c0,0-5,5.4,0,10.2c0,0,0.9,1.3,4.6,1.9c0,0-0.2-3.1,1.5-2.4
						c0,0,0.6,0.2,0.2,1.1c0,0-1.2,1.8,0.2,4.4c0,0,0.4,1.8-1.1,0.8c0,0-1-1.5-0.9-1.9c0,0-3.4-0.2-6-2.5c0,0-3.1-2-2.7-7.7
						c0,0-6.3-0.8-9.4,5.9c0,0-7,1.3-6.8,9.2c0,0,0.4,8.8,7.9,10.4c0,0,2.8,0.4,4.6,0c0,0-0.7-3.7-0.6-5c0,0-1.9-1.7-1.9-2.1
						c0,0,0.1-1.1,1.4-0.4c0,0,0.3,1.9,4.4,0.8c0,0,1.9,0,0,1.2c0,0-1,0.4-1.6,0.4c0,0-1.8,7.9,6,8.2c0,0,8.6-3.1,11.4-14.6V51.2z"
						/>
					<path fill="#BEF35B" d="M-327.2,91.1c0,0-5,3.7-10.6,0.5c0,0-7.8-3.2-1.8-12.3c0,0-2.7-5.9,1.4-9.2c0,0,3,11.9,15.5,9.7
						c0,0,1.7,1.9,3.2,2.5l-3.8,0.4c0,0-2,1.7,0.6,2.4c0,0,11.5-0.2,18.1-11.7v34.3c0,0-2,8.9-10.3,8.8c0,0-10-0.1-11.5-8.8
						c0,0-1.5-6.4,3.3-10c0,0-0.1-2.5-2-1.3c0,0-6,5.6-2.5,14.3c0,0-5.6-0.1-8.8-9c0,0-4.5-3.6-4-8.9c0,0,4.9,2.8,8.9,2.1
						c0,0,3.8-0.9,4.6-2.1c0,0,5,5.1,11.9,1.3c0,0,1.4,1.8,2.6,0.8c0,0-0.8-0.7-2.5-2.2l0.1-2.8c0,0-1.4-1.1-1.3,0.5l-0.1,2.2
						c0,0-5.7,3.2-10.1-2.2"/>
				</g>
			</g>
			<g>
				<path fill="#BEF35B" d="M-287.5,120.6h-29c-1.2,0-2.2,0.8-2.2,1.8v1.2c0,1,1,1.8,2.2,1.8h29c1.2,0,2.2-0.8,2.2-1.8v-1.2
					C-285.3,121.4-286.3,120.6-287.5,120.6z"/>
				<path fill="#BEF35B" d="M-287.5,127.8h-29c-1.2,0-2.2,0.8-2.2,1.8v1.2c0,1,1,1.8,2.2,1.8h29c1.2,0,2.2-0.8,2.2-1.8v-1.2
					C-285.3,128.6-286.3,127.8-287.5,127.8z"/>
				<path fill="#BEF35B" d="M-287.5,135h-29c-1.2,0-2.2,0.8-2.2,1.8v1.2c0,1,1,1.8,2.2,1.8h29c1.2,0,2.2-0.8,2.2-1.8v-1.2
					C-285.3,135.8-286.3,135-287.5,135z"/>
				<path fill="#BEF35B" d="M-312.8,142.2h21.7c0,3.6-5.8,6-10.9,6C-307,148.2-312.8,145.8-312.8,142.2z"/>
			</g>
			<path fill="#BEF35B" d="M-299.2,38.5c0,1.5-1.2,2.7-2.7,2.7l0,0c-1.5,0-2.7-1.2-2.7-2.7v-19c0-1.5,1.2-2.7,2.7-2.7l0,0
				c1.5,0,2.7,1.2,2.7,2.7V38.5z"/>
			<path fill="#BEF35B" d="M-253.7,88.1c-1.5,0-2.7-1.2-2.7-2.7l0,0c0-1.5,1.2-2.7,2.7-2.7h19c1.5,0,2.7,1.2,2.7,2.7l0,0
				c0,1.5-1.2,2.7-2.7,2.7H-253.7z"/>
			<path fill="#BEF35B" d="M-369.5,88.1c-1.5,0-2.7-1.2-2.7-2.7l0,0c0-1.5,1.2-2.7,2.7-2.7h19c1.5,0,2.7,1.2,2.7,2.7l0,0
				c0,1.5-1.2,2.7-2.7,2.7H-369.5z"/>
			<path fill="#BEF35B" d="M-268.2,49.9c-1.1,1.1-2.8,1.1-3.9,0l0,0c-1.1-1.1-1.1-2.8,0-3.9l13.4-13.4c1.1-1.1,2.8-1.1,3.9,0l0,0
				c1.1,1.1,1.1,2.8,0,3.9L-268.2,49.9z"/>
			<path fill="#BEF35B" d="M-335.7,49.9c1.1,1.1,2.8,1.1,3.9,0l0,0c1.1-1.1,1.1-2.8,0-3.9l-13.4-13.4c-1.1-1.1-2.8-1.1-3.9,0l0,0
				c-1.1,1.1-1.1,2.8,0,3.9L-335.7,49.9z"/>
		</g>
	</g>
	<polygon display="inline" fill="#F1F1F3" points="-302.5,113.3 -306.4,117.9 -299.9,118.6 -298.2,117 	"/>
	<polygon display="inline" fill="#F1F1F3" points="-272.2,52 -267.2,52 -268.1,56.4 -272.3,54.1 	"/>
	<polygon display="inline" fill="#F1F1F3" points="-304.7,43 -298.7,43.1 -301.7,47.5 	"/>
</g>
<path id="YouTube__x28_alt_x29__3_" display="none" fill-rule="evenodd" clip-rule="evenodd" fill="#54CAD7" d="M-67,9.7
	c0-2.2-1.8-3.9-3.9-3.9h-18.4c-2.2,0-3.9,1.8-3.9,3.9v10.5c0,2.2,1.8,3.9,3.9,3.9h18.4c2.2,0,3.9-1.8,3.9-3.9V9.7z M-82.7,19.4V9.5
	l7.5,4.9L-82.7,19.4z"/>
<g display="none">
	<path display="inline" fill="#54CAD7" d="M51.6,20.8l-1.3-1c-0.4-0.3-0.9-0.8-0.9-1.6c0-0.8,0.5-1.3,1-1.8c1.5-1.2,3-2.5,3-5.2
		c0-2.8-1.7-4.2-2.6-4.9H53l2.4-1.5h-7.1c-2,0-4.8,0.5-6.8,2.2c-1.6,1.3-2.3,3.2-2.3,4.9c0,2.8,2.2,5.7,6,5.7c0.4,0,0.8,0,1.2-0.1
		c-0.2,0.4-0.4,0.8-0.4,1.4c0,1.1,0.6,1.8,1.1,2.5c-1.6,0.1-4.7,0.3-6.9,1.7c-2.1,1.3-2.8,3.1-2.8,4.4c0,2.7,2.5,5.2,7.8,5.2
		c6.2,0,9.5-3.4,9.5-6.9C54.6,23.3,53.2,22.1,51.6,20.8z M46.8,16.6c-3.1,0-4.5-4-4.5-6.5c0-0.9,0.2-1.9,0.8-2.7
		c0.6-0.7,1.6-1.2,2.5-1.2c3,0,4.6,4.1,4.6,6.7c0,0.7-0.1,1.8-0.9,2.6C48.7,16.1,47.7,16.6,46.8,16.6z M46.9,31.2
		c-3.9,0-6.4-1.9-6.4-4.4c0-2.6,2.3-3.4,3.1-3.7c1.5-0.5,3.5-0.6,3.8-0.6c0.4,0,0.5,0,0.8,0c2.8,2,3.9,2.9,3.9,4.8
		C52.2,29.5,50.3,31.2,46.9,31.2z"/>
	<polygon display="inline" fill="#54CAD7" points="60.7,16.5 60.7,12.9 58.9,12.9 58.9,16.5 55.3,16.5 55.3,18.3 58.9,18.3 58.9,22 
		60.7,22 60.7,18.3 64.3,18.3 64.3,16.5 	"/>
</g>
<path display="none" fill="#54CAD7" d="M-44.3,5.3l-2.6,0c-2,0-2.4,1-2.4,2.4v3.1h4.9l0,4.9h-4.9v12.7h-5.1V15.8h-4.3v-4.9h4.3V7.3
	c0-4.2,2.6-6.5,6.3-6.5l3.8,0V5.3z"/>
<path fill="#54CAD7" d="M28.3,6.5c0,0-0.1-0.1-0.2,0c-0.8,0.4-1.7,0.6-2.6,0.8c0.9-0.7,1.6-1.7,2-2.8c0-0.1,0-0.1,0-0.1
	c0,0-0.1,0-0.2,0c-1.1,0.6-2.2,1.1-3.4,1.3c-1.1-1.1-2.6-1.7-4.1-1.7c-3.1,0-5.7,2.6-5.7,5.7c0,0.4,0,0.8,0.1,1.1
	C9.9,10.4,5.9,8.3,3.1,4.9c0,0-0.1-0.1-0.1,0c0,0-0.1,0-0.1,0.1C2.4,5.8,2.1,6.8,2.1,7.8c0,1.7,0.8,3.4,2.1,4.5
	c-0.7-0.1-1.4-0.3-2-0.6c0,0-0.1,0-0.1,0c0,0-0.1,0.1-0.1,0.1l0,0.1c0,2.5,1.7,4.7,4,5.4c-0.6,0.1-1.3,0.1-1.9,0c0,0-0.1,0-0.1,0
	c0,0,0,0.1,0,0.1c0.7,2.2,2.7,3.7,4.9,3.9c-1.9,1.4-4.2,2.1-6.5,2.1c-0.4,0-0.9,0-1.3-0.1c-0.1,0-0.1,0-0.1,0.1c0,0.1,0,0.1,0.1,0.2
	c2.6,1.6,5.5,2.5,8.6,2.5c10,0,16-8.1,16-16c0-0.2,0-0.4,0-0.7c1.1-0.8,2-1.8,2.7-2.9C28.4,6.6,28.4,6.6,28.3,6.5z"/>
<g display="none">
	<path display="inline" fill="#54CAD7" d="M4.9,2.1c-1.7,0-3,1.4-3,3c0,1.7,1.4,3,3,3c1.7,0,3-1.4,3-3C7.9,3.4,6.5,2.1,4.9,2.1z"/>
	<rect x="2.3" y="10.4" display="inline" fill="#54CAD7" width="5.2" height="16.7"/>
	<path display="inline" fill="#54CAD7" d="M20.7,10c-2.5,0-4.2,1.4-4.9,2.7h-0.1v-2.3h-5h0v16.7h5.2v-8.3c0-2.2,0.4-4.3,3.1-4.3
		c2.7,0,2.7,2.5,2.7,4.4v8.1H27V18C27,13.5,26,10,20.7,10z"/>
</g>
</svg>
